STARTFONT 2.1
COMMENT
COMMENT Converted from OpenType font "KH-Dot-Ningyouchou-16.ttf" by "otf2bdf 3.0".
COMMENT
FONT -FreeType-KH Dot Ningyouchou 16-Medium-R-Normal--17-120-100-100-P-156-ISO10646-1
SIZE 12 100 100
FONTBOUNDINGBOX 17 17 0 -2
STARTPROPERTIES 19
FOUNDRY "FreeType"
FAMILY_NAME "KH Dot Ningyouchou 16"
WEIGHT_NAME "Medium"
SLANT "R"
SETWIDTH_NAME "Normal"
ADD_STYLE_NAME ""
PIXEL_SIZE 17
POINT_SIZE 120
RESOLUTION_X 100
RESOLUTION_Y 100
SPACING "P"
AVERAGE_WIDTH 156
CHARSET_REGISTRY "ISO10646"
CHARSET_ENCODING "1"
FONT_ASCENT 14
FONT_DESCENT 2
COPYRIGHT "Copyright (c) Keitarou Hiraki, Font Silo. 1990-2015"
_OTF_FONTFILE "KH-Dot-Ningyouchou-16.ttf"
_OTF_PSNAME "KH-Dot-Ningyouchou-16"
ENDPROPERTIES
CHARS 7266
STARTCHAR 0020
ENCODING 32
SWIDTH 540 0
DWIDTH 9 0
BBX 0 0 0 0
BITMAP
ENDCHAR
STARTCHAR 0021
ENCODING 33
SWIDTH 540 0
DWIDTH 9 0
BBX 2 14 3 0
BITMAP
80
80
80
80
80
80
80
80
80
80
00
00
C0
C0
ENDCHAR
STARTCHAR 0022
ENCODING 34
SWIDTH 540 0
DWIDTH 9 0
BBX 5 6 1 8
BITMAP
D8
D8
D8
48
48
90
ENDCHAR
STARTCHAR 0023
ENCODING 35
SWIDTH 540 0
DWIDTH 9 0
BBX 7 14 0 0
BITMAP
44
44
44
44
FE
44
44
44
44
44
FE
44
44
44
ENDCHAR
STARTCHAR 0024
ENCODING 36
SWIDTH 540 0
DWIDTH 9 0
BBX 7 17 0 -2
BITMAP
10
38
38
54
92
92
90
50
38
14
12
92
92
54
38
10
10
ENDCHAR
STARTCHAR 0025
ENCODING 37
SWIDTH 540 0
DWIDTH 9 0
BBX 7 13 0 1
BITMAP
60
60
92
94
94
68
10
10
2C
52
52
92
0C
ENDCHAR
STARTCHAR 0026
ENCODING 38
SWIDTH 540 0
DWIDTH 9 0
BBX 7 14 0 0
BITMAP
70
70
88
88
88
90
60
40
A2
92
8A
8C
44
3A
ENDCHAR
STARTCHAR 0027
ENCODING 39
SWIDTH 540 0
DWIDTH 9 0
BBX 2 6 2 8
BITMAP
C0
C0
C0
40
40
80
ENDCHAR
STARTCHAR 0028
ENCODING 40
SWIDTH 540 0
DWIDTH 9 0
BBX 4 16 3 -1
BITMAP
10
20
20
40
40
80
80
80
80
80
80
80
40
40
20
10
ENDCHAR
STARTCHAR 0029
ENCODING 41
SWIDTH 540 0
DWIDTH 9 0
BBX 4 16 1 -1
BITMAP
80
40
40
20
20
10
10
10
10
10
10
10
20
20
40
80
ENDCHAR
STARTCHAR 002A
ENCODING 42
SWIDTH 540 0
DWIDTH 9 0
BBX 7 9 0 2
BITMAP
10
92
54
38
10
38
54
92
10
ENDCHAR
STARTCHAR 002B
ENCODING 43
SWIDTH 540 0
DWIDTH 9 0
BBX 7 9 0 2
BITMAP
10
10
10
10
FE
10
10
10
10
ENDCHAR
STARTCHAR 002C
ENCODING 44
SWIDTH 540 0
DWIDTH 9 0
BBX 2 5 3 -2
BITMAP
C0
C0
40
40
80
ENDCHAR
STARTCHAR 002D
ENCODING 45
SWIDTH 540 0
DWIDTH 9 0
BBX 7 1 0 6
BITMAP
FE
ENDCHAR
STARTCHAR 002E
ENCODING 46
SWIDTH 540 0
DWIDTH 9 0
BBX 2 2 3 1
BITMAP
C0
C0
ENDCHAR
STARTCHAR 002F
ENCODING 47
SWIDTH 540 0
DWIDTH 9 0
BBX 7 17 0 -2
BITMAP
02
02
02
04
04
08
08
08
10
10
20
20
20
40
40
80
80
ENDCHAR
STARTCHAR 0030
ENCODING 48
SWIDTH 540 0
DWIDTH 9 0
BBX 6 14 1 0
BITMAP
30
30
48
84
84
84
84
84
84
84
84
84
48
30
ENDCHAR
STARTCHAR 0031
ENCODING 49
SWIDTH 540 0
DWIDTH 9 0
BBX 3 14 2 0
BITMAP
20
20
20
E0
20
20
20
20
20
20
20
20
20
20
ENDCHAR
STARTCHAR 0032
ENCODING 50
SWIDTH 540 0
DWIDTH 9 0
BBX 6 14 1 0
BITMAP
30
30
48
84
84
04
08
10
10
20
40
40
80
FC
ENDCHAR
STARTCHAR 0033
ENCODING 51
SWIDTH 540 0
DWIDTH 9 0
BBX 6 14 1 0
BITMAP
30
30
48
84
84
04
08
30
08
04
84
84
48
30
ENDCHAR
STARTCHAR 0034
ENCODING 52
SWIDTH 540 0
DWIDTH 9 0
BBX 6 14 1 0
BITMAP
08
08
18
18
28
28
48
48
88
88
FC
08
08
08
ENDCHAR
STARTCHAR 0035
ENCODING 53
SWIDTH 540 0
DWIDTH 9 0
BBX 6 14 1 0
BITMAP
F8
F8
80
80
80
B0
C8
84
04
04
84
84
48
30
ENDCHAR
STARTCHAR 0036
ENCODING 54
SWIDTH 540 0
DWIDTH 9 0
BBX 6 14 1 0
BITMAP
30
30
48
84
84
B0
C8
84
84
84
84
84
48
30
ENDCHAR
STARTCHAR 0037
ENCODING 55
SWIDTH 540 0
DWIDTH 9 0
BBX 6 14 1 0
BITMAP
FC
FC
04
04
08
08
10
10
10
20
20
20
20
20
ENDCHAR
STARTCHAR 0038
ENCODING 56
SWIDTH 540 0
DWIDTH 9 0
BBX 6 14 1 0
BITMAP
30
30
48
84
84
84
48
30
48
84
84
84
48
30
ENDCHAR
STARTCHAR 0039
ENCODING 57
SWIDTH 540 0
DWIDTH 9 0
BBX 6 14 1 0
BITMAP
30
30
48
84
84
84
84
84
4C
34
84
84
48
30
ENDCHAR
STARTCHAR 003A
ENCODING 58
SWIDTH 540 0
DWIDTH 9 0
BBX 2 8 3 1
BITMAP
C0
C0
00
00
00
00
C0
C0
ENDCHAR
STARTCHAR 003B
ENCODING 59
SWIDTH 540 0
DWIDTH 9 0
BBX 2 11 3 -2
BITMAP
C0
C0
00
00
00
00
C0
C0
40
40
80
ENDCHAR
STARTCHAR 003C
ENCODING 60
SWIDTH 540 0
DWIDTH 9 0
BBX 7 15 0 -1
BITMAP
02
02
04
08
10
20
40
80
80
40
20
10
08
04
02
ENDCHAR
STARTCHAR 003D
ENCODING 61
SWIDTH 540 0
DWIDTH 9 0
BBX 7 4 0 4
BITMAP
FE
00
00
FE
ENDCHAR
STARTCHAR 003E
ENCODING 62
SWIDTH 540 0
DWIDTH 9 0
BBX 7 15 0 -1
BITMAP
80
80
40
20
10
08
04
02
02
04
08
10
20
40
80
ENDCHAR
STARTCHAR 003F
ENCODING 63
SWIDTH 540 0
DWIDTH 9 0
BBX 7 14 0 0
BITMAP
38
38
44
82
82
02
04
08
10
10
00
00
30
30
ENDCHAR
STARTCHAR 0040
ENCODING 64
SWIDTH 540 0
DWIDTH 9 0
BBX 7 14 0 0
BITMAP
38
38
44
44
92
AA
AA
AA
AA
AA
9C
40
42
3C
ENDCHAR
STARTCHAR 0041
ENCODING 65
SWIDTH 540 0
DWIDTH 9 0
BBX 7 14 0 0
BITMAP
10
10
10
28
28
28
44
44
44
7C
82
82
82
82
ENDCHAR
STARTCHAR 0042
ENCODING 66
SWIDTH 540 0
DWIDTH 9 0
BBX 7 14 0 0
BITMAP
F0
F0
88
84
84
84
88
FC
84
82
82
82
84
F8
ENDCHAR
STARTCHAR 0043
ENCODING 67
SWIDTH 540 0
DWIDTH 9 0
BBX 7 14 0 0
BITMAP
3C
3C
42
42
82
80
80
80
80
80
82
42
44
38
ENDCHAR
STARTCHAR 0044
ENCODING 68
SWIDTH 540 0
DWIDTH 9 0
BBX 7 14 0 0
BITMAP
F0
F0
88
84
84
82
82
82
82
82
84
84
88
F0
ENDCHAR
STARTCHAR 0045
ENCODING 69
SWIDTH 540 0
DWIDTH 9 0
BBX 7 14 0 0
BITMAP
FE
FE
80
80
80
80
80
FC
80
80
80
80
80
FE
ENDCHAR
STARTCHAR 0046
ENCODING 70
SWIDTH 540 0
DWIDTH 9 0
BBX 7 14 0 0
BITMAP
FE
FE
80
80
80
80
80
FC
80
80
80
80
80
80
ENDCHAR
STARTCHAR 0047
ENCODING 71
SWIDTH 540 0
DWIDTH 9 0
BBX 7 14 0 0
BITMAP
3C
3C
42
42
82
80
80
80
9E
82
82
42
46
3A
ENDCHAR
STARTCHAR 0048
ENCODING 72
SWIDTH 540 0
DWIDTH 9 0
BBX 7 14 0 0
BITMAP
82
82
82
82
82
82
82
FE
82
82
82
82
82
82
ENDCHAR
STARTCHAR 0049
ENCODING 73
SWIDTH 540 0
DWIDTH 9 0
BBX 1 14 3 0
BITMAP
80
80
80
80
80
80
80
80
80
80
80
80
80
80
ENDCHAR
STARTCHAR 004A
ENCODING 74
SWIDTH 540 0
DWIDTH 9 0
BBX 7 14 0 0
BITMAP
02
02
02
02
02
02
02
02
02
02
82
82
44
38
ENDCHAR
STARTCHAR 004B
ENCODING 75
SWIDTH 540 0
DWIDTH 9 0
BBX 7 14 0 0
BITMAP
82
82
84
88
90
A0
C0
80
C0
A0
90
88
84
82
ENDCHAR
STARTCHAR 004C
ENCODING 76
SWIDTH 540 0
DWIDTH 9 0
BBX 7 14 0 0
BITMAP
80
80
80
80
80
80
80
80
80
80
80
80
80
FE
ENDCHAR
STARTCHAR 004D
ENCODING 77
SWIDTH 540 0
DWIDTH 9 0
BBX 7 14 0 0
BITMAP
82
82
82
C6
C6
AA
AA
AA
92
92
82
82
82
82
ENDCHAR
STARTCHAR 004E
ENCODING 78
SWIDTH 540 0
DWIDTH 9 0
BBX 7 14 0 0
BITMAP
82
82
C2
C2
A2
A2
92
92
8A
8A
86
86
82
82
ENDCHAR
STARTCHAR 004F
ENCODING 79
SWIDTH 540 0
DWIDTH 9 0
BBX 7 14 0 0
BITMAP
38
38
44
44
82
82
82
82
82
82
82
44
44
38
ENDCHAR
STARTCHAR 0050
ENCODING 80
SWIDTH 540 0
DWIDTH 9 0
BBX 7 14 0 0
BITMAP
F8
F8
84
82
82
82
82
84
F8
80
80
80
80
80
ENDCHAR
STARTCHAR 0051
ENCODING 81
SWIDTH 540 0
DWIDTH 9 0
BBX 7 15 0 -1
BITMAP
38
38
44
44
82
82
82
92
92
8A
8A
44
44
3A
02
ENDCHAR
STARTCHAR 0052
ENCODING 82
SWIDTH 540 0
DWIDTH 9 0
BBX 7 14 0 0
BITMAP
F8
F8
84
82
82
82
84
F8
84
84
82
82
82
82
ENDCHAR
STARTCHAR 0053
ENCODING 83
SWIDTH 540 0
DWIDTH 9 0
BBX 7 14 0 0
BITMAP
38
38
44
82
82
80
40
38
04
02
82
82
44
38
ENDCHAR
STARTCHAR 0054
ENCODING 84
SWIDTH 540 0
DWIDTH 9 0
BBX 7 14 0 0
BITMAP
FE
FE
10
10
10
10
10
10
10
10
10
10
10
10
ENDCHAR
STARTCHAR 0055
ENCODING 85
SWIDTH 540 0
DWIDTH 9 0
BBX 7 14 0 0
BITMAP
82
82
82
82
82
82
82
82
82
82
82
82
44
38
ENDCHAR
STARTCHAR 0056
ENCODING 86
SWIDTH 540 0
DWIDTH 9 0
BBX 7 14 0 0
BITMAP
82
82
82
82
82
44
44
44
44
28
28
28
10
10
ENDCHAR
STARTCHAR 0057
ENCODING 87
SWIDTH 540 0
DWIDTH 9 0
BBX 7 14 0 0
BITMAP
92
92
92
92
92
92
92
92
92
54
54
6C
6C
6C
ENDCHAR
STARTCHAR 0058
ENCODING 88
SWIDTH 540 0
DWIDTH 9 0
BBX 7 14 0 0
BITMAP
82
82
82
44
44
28
28
10
28
28
44
44
82
82
ENDCHAR
STARTCHAR 0059
ENCODING 89
SWIDTH 540 0
DWIDTH 9 0
BBX 7 14 0 0
BITMAP
82
82
82
82
44
44
28
28
10
10
10
10
10
10
ENDCHAR
STARTCHAR 005A
ENCODING 90
SWIDTH 540 0
DWIDTH 9 0
BBX 7 14 0 0
BITMAP
FE
FE
02
04
04
08
08
10
20
20
40
40
80
FE
ENDCHAR
STARTCHAR 005B
ENCODING 91
SWIDTH 540 0
DWIDTH 9 0
BBX 5 15 2 0
BITMAP
F8
80
80
80
80
80
80
80
80
80
80
80
80
80
F8
ENDCHAR
STARTCHAR 005C
ENCODING 92
SWIDTH 540 0
DWIDTH 9 0
BBX 7 17 0 -2
BITMAP
80
80
80
40
40
20
20
20
10
10
08
08
08
04
04
02
02
ENDCHAR
STARTCHAR 005D
ENCODING 93
SWIDTH 540 0
DWIDTH 9 0
BBX 5 15 1 0
BITMAP
F8
08
08
08
08
08
08
08
08
08
08
08
08
08
F8
ENDCHAR
STARTCHAR 005E
ENCODING 94
SWIDTH 540 0
DWIDTH 9 0
BBX 7 5 0 9
BITMAP
10
10
28
44
82
ENDCHAR
STARTCHAR 005F
ENCODING 95
SWIDTH 540 0
DWIDTH 9 0
BBX 7 1 0 -1
BITMAP
FE
ENDCHAR
STARTCHAR 0060
ENCODING 96
SWIDTH 540 0
DWIDTH 9 0
BBX 2 6 3 8
BITMAP
40
40
80
80
C0
C0
ENDCHAR
STARTCHAR 0061
ENCODING 97
SWIDTH 540 0
DWIDTH 9 0
BBX 7 9 0 0
BITMAP
78
04
02
02
7E
82
82
86
7A
ENDCHAR
STARTCHAR 0062
ENCODING 98
SWIDTH 540 0
DWIDTH 9 0
BBX 7 15 0 0
BITMAP
80
80
80
80
80
80
B8
C4
82
82
82
82
82
C4
B8
ENDCHAR
STARTCHAR 0063
ENCODING 99
SWIDTH 540 0
DWIDTH 9 0
BBX 7 9 0 0
BITMAP
3C
42
82
80
80
80
82
42
3C
ENDCHAR
STARTCHAR 0064
ENCODING 100
SWIDTH 540 0
DWIDTH 9 0
BBX 7 15 0 0
BITMAP
02
02
02
02
02
02
3A
46
82
82
82
82
82
46
3A
ENDCHAR
STARTCHAR 0065
ENCODING 101
SWIDTH 540 0
DWIDTH 9 0
BBX 7 9 0 0
BITMAP
38
44
82
82
FE
80
80
46
3C
ENDCHAR
STARTCHAR 0066
ENCODING 102
SWIDTH 540 0
DWIDTH 9 0
BBX 7 15 0 0
BITMAP
06
08
08
10
10
10
FE
10
10
10
10
10
10
10
10
ENDCHAR
STARTCHAR 0067
ENCODING 103
SWIDTH 540 0
DWIDTH 9 0
BBX 7 11 0 -2
BITMAP
3A
46
82
82
82
82
82
46
3A
C4
78
ENDCHAR
STARTCHAR 0068
ENCODING 104
SWIDTH 540 0
DWIDTH 9 0
BBX 7 15 0 0
BITMAP
80
80
80
80
80
80
B8
C4
82
82
82
82
82
82
82
ENDCHAR
STARTCHAR 0069
ENCODING 105
SWIDTH 540 0
DWIDTH 9 0
BBX 1 14 3 0
BITMAP
80
80
80
00
00
80
80
80
80
80
80
80
80
80
ENDCHAR
STARTCHAR 006A
ENCODING 106
SWIDTH 540 0
DWIDTH 9 0
BBX 7 16 0 -2
BITMAP
02
02
02
00
00
02
02
02
02
02
02
02
82
82
44
38
ENDCHAR
STARTCHAR 006B
ENCODING 107
SWIDTH 540 0
DWIDTH 9 0
BBX 7 15 0 0
BITMAP
80
80
80
80
80
80
82
84
88
90
E0
90
88
84
82
ENDCHAR
STARTCHAR 006C
ENCODING 108
SWIDTH 540 0
DWIDTH 9 0
BBX 1 15 3 0
BITMAP
80
80
80
80
80
80
80
80
80
80
80
80
80
80
80
ENDCHAR
STARTCHAR 006D
ENCODING 109
SWIDTH 540 0
DWIDTH 9 0
BBX 7 9 0 0
BITMAP
EC
92
92
92
92
92
92
92
92
ENDCHAR
STARTCHAR 006E
ENCODING 110
SWIDTH 540 0
DWIDTH 9 0
BBX 7 9 0 0
BITMAP
B8
C4
82
82
82
82
82
82
82
ENDCHAR
STARTCHAR 006F
ENCODING 111
SWIDTH 540 0
DWIDTH 9 0
BBX 7 9 0 0
BITMAP
38
44
82
82
82
82
82
44
38
ENDCHAR
STARTCHAR 0070
ENCODING 112
SWIDTH 540 0
DWIDTH 9 0
BBX 7 11 0 -2
BITMAP
B8
C4
82
82
82
82
82
C4
B8
80
80
ENDCHAR
STARTCHAR 0071
ENCODING 113
SWIDTH 540 0
DWIDTH 9 0
BBX 7 11 0 -2
BITMAP
3A
46
82
82
82
82
82
46
3A
02
02
ENDCHAR
STARTCHAR 0072
ENCODING 114
SWIDTH 540 0
DWIDTH 9 0
BBX 7 9 0 0
BITMAP
B8
C4
82
82
80
80
80
80
80
ENDCHAR
STARTCHAR 0073
ENCODING 115
SWIDTH 540 0
DWIDTH 9 0
BBX 7 9 0 0
BITMAP
7C
82
82
40
38
04
82
82
7C
ENDCHAR
STARTCHAR 0074
ENCODING 116
SWIDTH 540 0
DWIDTH 9 0
BBX 7 12 0 0
BITMAP
20
20
20
FE
20
20
20
20
20
20
10
0E
ENDCHAR
STARTCHAR 0075
ENCODING 117
SWIDTH 540 0
DWIDTH 9 0
BBX 7 9 0 0
BITMAP
82
82
82
82
82
82
82
46
3A
ENDCHAR
STARTCHAR 0076
ENCODING 118
SWIDTH 540 0
DWIDTH 9 0
BBX 7 9 0 0
BITMAP
82
82
82
44
44
28
28
10
10
ENDCHAR
STARTCHAR 0077
ENCODING 119
SWIDTH 540 0
DWIDTH 9 0
BBX 7 9 0 0
BITMAP
92
92
92
92
92
54
54
6C
6C
ENDCHAR
STARTCHAR 0078
ENCODING 120
SWIDTH 540 0
DWIDTH 9 0
BBX 7 9 0 0
BITMAP
82
44
44
28
10
28
44
44
82
ENDCHAR
STARTCHAR 0079
ENCODING 121
SWIDTH 540 0
DWIDTH 9 0
BBX 7 11 0 -2
BITMAP
82
82
44
44
28
28
10
10
20
A0
C0
ENDCHAR
STARTCHAR 007A
ENCODING 122
SWIDTH 540 0
DWIDTH 9 0
BBX 7 9 0 0
BITMAP
FE
02
04
08
10
20
40
80
FE
ENDCHAR
STARTCHAR 007B
ENCODING 123
SWIDTH 540 0
DWIDTH 9 0
BBX 6 14 1 0
BITMAP
0C
0C
10
20
20
20
20
C0
20
20
20
20
10
0C
ENDCHAR
STARTCHAR 007C
ENCODING 124
SWIDTH 540 0
DWIDTH 9 0
BBX 1 17 3 -2
BITMAP
80
80
80
80
80
80
80
80
80
80
80
80
80
80
80
80
80
ENDCHAR
STARTCHAR 007D
ENCODING 125
SWIDTH 540 0
DWIDTH 9 0
BBX 6 14 1 0
BITMAP
C0
C0
20
10
10
10
10
0C
10
10
10
10
20
C0
ENDCHAR
STARTCHAR 00A0
ENCODING 160
SWIDTH 540 0
DWIDTH 9 0
BBX 0 0 0 0
BITMAP
ENDCHAR
STARTCHAR 00A2
ENCODING 162
SWIDTH 1020 0
DWIDTH 17 0
BBX 8 14 4 -2
BITMAP
0C
0C
0D
3F
4D
8D
98
98
98
98
59
3E
20
20
ENDCHAR
STARTCHAR 00A3
ENCODING 163
SWIDTH 1020 0
DWIDTH 17 0
BBX 12 15 2 -1
BITMAP
0F00
0F00
1080
2040
2080
1000
1000
FFC0
1000
0800
0810
6810
9810
9720
60C0
ENDCHAR
STARTCHAR 00A5
ENCODING 165
SWIDTH 540 0
DWIDTH 9 0
BBX 7 17 0 -2
BITMAP
80
80
80
40
40
20
20
20
10
10
08
08
08
04
04
02
02
ENDCHAR
STARTCHAR 00A7
ENCODING 167
SWIDTH 1020 0
DWIDTH 17 0
BBX 8 16 4 -1
BITMAP
3C
42
42
81
83
40
38
4E
81
62
1C
02
C1
81
42
3C
ENDCHAR
STARTCHAR 00A8
ENCODING 168
SWIDTH 1020 0
DWIDTH 17 0
BBX 7 3 4 12
BITMAP
CE
CE
CE
ENDCHAR
STARTCHAR 00AC
ENCODING 172
SWIDTH 1020 0
DWIDTH 17 0
BBX 12 5 2 3
BITMAP
FFF0
0010
0010
0010
0010
ENDCHAR
STARTCHAR 00B0
ENCODING 176
SWIDTH 1020 0
DWIDTH 17 0
BBX 5 6 0 9
BITMAP
70
88
88
88
88
70
ENDCHAR
STARTCHAR 00B1
ENCODING 177
SWIDTH 1020 0
DWIDTH 17 0
BBX 12 13 2 1
BITMAP
0600
0600
0600
0600
0600
FFF0
0600
0600
0600
0600
0000
0000
FFF0
ENDCHAR
STARTCHAR 00B4
ENCODING 180
SWIDTH 1020 0
DWIDTH 17 0
BBX 4 4 6 11
BITMAP
30
60
60
80
ENDCHAR
STARTCHAR 00B6
ENCODING 182
SWIDTH 1020 0
DWIDTH 17 0
BBX 10 15 2 -1
BITMAP
3FC0
3FC0
7840
F840
F840
7840
3840
0840
0840
0840
0840
0840
0840
0840
0840
ENDCHAR
STARTCHAR 00D7
ENCODING 215
SWIDTH 1020 0
DWIDTH 17 0
BBX 10 10 3 1
BITMAP
8040
4080
2100
1600
0C00
0C00
1600
2100
4080
8040
ENDCHAR
STARTCHAR 00F7
ENCODING 247
SWIDTH 1020 0
DWIDTH 17 0
BBX 12 11 2 1
BITMAP
0600
0F00
0600
0000
0000
FFF0
0000
0000
0600
0F00
0600
ENDCHAR
STARTCHAR 0391
ENCODING 913
SWIDTH 1020 0
DWIDTH 17 0
BBX 14 14 1 0
BITMAP
0300
0300
0300
0580
0580
0840
0840
0840
1020
1FE0
1020
2010
2010
F03C
ENDCHAR
STARTCHAR 0392
ENCODING 914
SWIDTH 1020 0
DWIDTH 17 0
BBX 11 14 2 0
BITMAP
FF80
FF80
2040
2040
2040
2040
3F80
2040
2020
2020
2020
2020
2040
FF80
ENDCHAR
STARTCHAR 0393
ENCODING 915
SWIDTH 1020 0
DWIDTH 17 0
BBX 11 14 2 0
BITMAP
FFE0
FFE0
2020
2020
2020
2000
2000
2000
2000
2000
2000
2000
2000
FF00
ENDCHAR
STARTCHAR 0394
ENCODING 916
SWIDTH 1020 0
DWIDTH 17 0
BBX 14 14 1 0
BITMAP
0300
0300
0300
0580
0580
0840
0840
1020
1020
2010
2010
4008
4008
FFFC
ENDCHAR
STARTCHAR 0395
ENCODING 917
SWIDTH 1020 0
DWIDTH 17 0
BBX 12 14 2 0
BITMAP
FFF0
FFF0
2010
2010
2000
2080
3F80
2080
2080
2000
2010
2010
2010
FFF0
ENDCHAR
STARTCHAR 0396
ENCODING 918
SWIDTH 1020 0
DWIDTH 17 0
BBX 11 14 3 0
BITMAP
FFE0
FFE0
8040
8080
0100
0100
0600
0C00
0C00
1000
2020
2020
4020
FFE0
ENDCHAR
STARTCHAR 0397
ENCODING 919
SWIDTH 1020 0
DWIDTH 17 0
BBX 13 14 2 0
BITMAP
F8F8
F8F8
2020
2020
2020
2020
3FE0
2020
2020
2020
2020
2020
2020
F8F8
ENDCHAR
STARTCHAR 0398
ENCODING 920
SWIDTH 1020 0
DWIDTH 17 0
BBX 12 14 2 0
BITMAP
1F80
1F80
2040
4020
4020
8010
9090
9F90
9090
8010
4020
4020
2040
1F80
ENDCHAR
STARTCHAR 0399
ENCODING 921
SWIDTH 1020 0
DWIDTH 17 0
BBX 6 14 5 0
BITMAP
FC
FC
30
30
30
30
30
30
30
30
30
30
30
FC
ENDCHAR
STARTCHAR 039A
ENCODING 922
SWIDTH 1020 0
DWIDTH 17 0
BBX 13 14 1 0
BITMAP
F878
F878
2020
2040
2180
2300
2400
2B00
3300
2180
2040
2040
2020
F878
ENDCHAR
STARTCHAR 039B
ENCODING 923
SWIDTH 1020 0
DWIDTH 17 0
BBX 14 14 1 0
BITMAP
0300
0300
0300
0580
0580
0840
0840
0840
1020
1020
1020
2010
2010
F87C
ENDCHAR
STARTCHAR 039C
ENCODING 924
SWIDTH 1020 0
DWIDTH 17 0
BBX 16 14 0 0
BITMAP
700E
700E
300C
2814
2814
2424
2424
22C4
22C4
2184
2184
2004
2004
F81F
ENDCHAR
STARTCHAR 039D
ENCODING 925
SWIDTH 1020 0
DWIDTH 17 0
BBX 14 14 1 0
BITMAP
F07C
F07C
3010
2810
2810
2410
2410
2310
2190
2190
2050
2050
2030
F810
ENDCHAR
STARTCHAR 039E
ENCODING 926
SWIDTH 1020 0
DWIDTH 17 0
BBX 12 14 2 0
BITMAP
FFF0
FFF0
8010
0000
0000
0000
4020
7FE0
4020
0000
0000
0000
8010
FFF0
ENDCHAR
STARTCHAR 039F
ENCODING 927
SWIDTH 1020 0
DWIDTH 17 0
BBX 12 14 2 0
BITMAP
1F80
1F80
2040
4020
4020
8010
8010
8010
8010
8010
4020
4020
2040
1F80
ENDCHAR
STARTCHAR 03A0
ENCODING 928
SWIDTH 1020 0
DWIDTH 17 0
BBX 12 14 2 0
BITMAP
FFF0
FFF0
2040
2040
2040
2040
2040
2040
2040
2040
2040
2040
2040
F0F0
ENDCHAR
STARTCHAR 03A1
ENCODING 929
SWIDTH 1020 0
DWIDTH 17 0
BBX 12 14 2 0
BITMAP
FFC0
FFC0
2020
2010
2010
2010
2020
3FC0
2000
2000
2000
2000
2000
FE00
ENDCHAR
STARTCHAR 03A3
ENCODING 931
SWIDTH 1020 0
DWIDTH 17 0
BBX 12 14 2 0
BITMAP
FFF0
FFF0
8010
4010
2000
1000
0800
0600
0800
1000
2010
4010
8010
FFF0
ENDCHAR
STARTCHAR 03A4
ENCODING 932
SWIDTH 1020 0
DWIDTH 17 0
BBX 12 14 2 0
BITMAP
FFF0
FFF0
8610
8610
8610
8610
0600
0600
0600
0600
0600
0600
0600
1F80
ENDCHAR
STARTCHAR 03A5
ENCODING 933
SWIDTH 1020 0
DWIDTH 17 0
BBX 12 14 2 0
BITMAP
70E0
70E0
8B10
8610
0600
0600
0600
0600
0600
0600
0600
0600
0600
1F80
ENDCHAR
STARTCHAR 03A6
ENCODING 934
SWIDTH 1020 0
DWIDTH 17 0
BBX 12 14 2 0
BITMAP
1F80
1F80
0600
1F80
6660
8610
8610
8610
8610
8610
6660
1F80
0600
1F80
ENDCHAR
STARTCHAR 03A7
ENCODING 935
SWIDTH 1020 0
DWIDTH 17 0
BBX 14 14 1 0
BITMAP
F87C
F87C
2010
1020
0840
0580
0300
0300
0580
0840
1020
1020
2010
F87C
ENDCHAR
STARTCHAR 03A8
ENCODING 936
SWIDTH 1020 0
DWIDTH 17 0
BBX 14 14 1 0
BITMAP
0FC0
0FC0
0300
4308
A314
2310
2310
2310
1320
0FC0
0300
0300
0300
0FC0
ENDCHAR
STARTCHAR 03A9
ENCODING 937
SWIDTH 1020 0
DWIDTH 17 0
BBX 12 14 2 0
BITMAP
1F80
1F80
2040
4020
4020
8010
8010
8010
4020
4020
2040
9090
9090
F0F0
ENDCHAR
STARTCHAR 03B1
ENCODING 945
SWIDTH 1020 0
DWIDTH 17 0
BBX 12 9 2 0
BITMAP
0F10
1090
20A0
40C0
4080
8080
8380
8E80
7070
ENDCHAR
STARTCHAR 03B2
ENCODING 946
SWIDTH 1020 0
DWIDTH 17 0
BBX 10 16 3 -2
BITMAP
0F80
0F80
1040
1040
2040
2080
2F00
4100
4080
4080
4080
A100
9E00
8000
8000
8000
ENDCHAR
STARTCHAR 03B3
ENCODING 947
SWIDTH 1020 0
DWIDTH 17 0
BBX 11 11 3 -2
BITMAP
60E0
9100
1600
0C00
0C00
1000
1000
1000
2000
2000
2000
ENDCHAR
STARTCHAR 03B4
ENCODING 948
SWIDTH 1020 0
DWIDTH 17 0
BBX 10 14 4 0
BITMAP
1F00
1F00
2080
1840
0C40
1C00
2200
4100
4100
8100
8100
8200
8C00
7800
ENDCHAR
STARTCHAR 03B5
ENCODING 949
SWIDTH 1020 0
DWIDTH 17 0
BBX 9 9 4 0
BITMAP
3F00
4080
4000
2000
3E00
4000
8000
8300
7C00
ENDCHAR
STARTCHAR 03B6
ENCODING 950
SWIDTH 1020 0
DWIDTH 17 0
BBX 10 16 3 -2
BITMAP
0C00
0C00
1000
21C0
1F00
0C00
1000
2000
4000
4000
8000
8000
7E00
0100
0100
1E00
ENDCHAR
STARTCHAR 03B7
ENCODING 951
SWIDTH 1020 0
DWIDTH 17 0
BBX 10 11 3 -2
BITMAP
4780
AC40
1040
1080
2080
2100
4100
4100
0600
0600
0600
ENDCHAR
STARTCHAR 03B8
ENCODING 952
SWIDTH 1020 0
DWIDTH 17 0
BBX 9 14 3 0
BITMAP
0F00
0F00
1080
2080
2080
4080
7F80
4100
8100
8100
8600
8600
8C00
7000
ENDCHAR
STARTCHAR 03B9
ENCODING 953
SWIDTH 1020 0
DWIDTH 17 0
BBX 7 9 5 0
BITMAP
18
30
30
40
40
80
82
84
78
ENDCHAR
STARTCHAR 03BA
ENCODING 954
SWIDTH 1020 0
DWIDTH 17 0
BBX 10 9 3 0
BITMAP
21C0
2600
2C00
3000
4C00
4C00
4C40
8C80
8700
ENDCHAR
STARTCHAR 03BB
ENCODING 955
SWIDTH 1020 0
DWIDTH 17 0
BBX 10 14 3 0
BITMAP
1C00
1C00
0600
0100
0100
0100
0700
0700
0D00
0D00
1100
2100
4100
80C0
ENDCHAR
STARTCHAR 03BC
ENCODING 956
SWIDTH 1020 0
DWIDTH 17 0
BBX 11 11 2 -2
BITMAP
1040
1040
1040
2080
2080
2080
2380
5E60
4000
8000
8000
ENDCHAR
STARTCHAR 03BD
ENCODING 957
SWIDTH 1020 0
DWIDTH 17 0
BBX 9 9 4 0
BITMAP
8080
4080
4100
4100
4200
4C00
9800
E000
8000
ENDCHAR
STARTCHAR 03BE
ENCODING 958
SWIDTH 1020 0
DWIDTH 17 0
BBX 10 16 3 -2
BITMAP
0F00
0F00
1000
0FC0
1000
2000
2000
1000
3F80
4000
8000
8000
7E00
0100
0100
1E00
ENDCHAR
STARTCHAR 03BF
ENCODING 959
SWIDTH 1020 0
DWIDTH 17 0
BBX 8 9 4 0
BITMAP
1E
21
41
41
81
82
82
8C
78
ENDCHAR
STARTCHAR 03C0
ENCODING 960
SWIDTH 1020 0
DWIDTH 17 0
BBX 11 10 3 0
BITMAP
0020
7FC0
9100
1100
2600
2600
4600
4C40
8C80
8700
ENDCHAR
STARTCHAR 03C1
ENCODING 961
SWIDTH 1020 0
DWIDTH 17 0
BBX 9 11 3 -2
BITMAP
0F00
1080
2080
2080
4080
4080
6100
9E00
8000
8000
8000
ENDCHAR
STARTCHAR 03C3
ENCODING 963
SWIDTH 1020 0
DWIDTH 17 0
BBX 11 10 3 0
BITMAP
0020
1FC0
2600
4100
4100
8100
8600
8600
8C00
7000
ENDCHAR
STARTCHAR 03C4
ENCODING 964
SWIDTH 1020 0
DWIDTH 17 0
BBX 11 10 2 0
BITMAP
0020
7FC0
8300
0600
0800
0800
1000
1040
1080
0F00
ENDCHAR
STARTCHAR 03C5
ENCODING 965
SWIDTH 1020 0
DWIDTH 17 0
BBX 9 9 3 0
BITMAP
4100
4080
4080
4080
4080
8100
8100
8600
7C00
ENDCHAR
STARTCHAR 03C6
ENCODING 966
SWIDTH 1020 0
DWIDTH 17 0
BBX 10 16 3 -2
BITMAP
0100
0100
0100
0600
0600
3F00
4680
8C40
8C40
8C40
9040
5080
3F00
1000
2000
2000
ENDCHAR
STARTCHAR 03C7
ENCODING 967
SWIDTH 1020 0
DWIDTH 17 0
BBX 11 11 3 -2
BITMAP
6040
9080
0C80
0D00
0E00
0C00
1C00
2C00
4620
4640
8180
ENDCHAR
STARTCHAR 03C8
ENCODING 968
SWIDTH 1020 0
DWIDTH 17 0
BBX 10 16 3 -2
BITMAP
0100
0100
0100
0600
0600
8680
4C40
4C40
4C40
8C40
9080
5100
3E00
1000
2000
2000
ENDCHAR
STARTCHAR 03C9
ENCODING 969
SWIDTH 1020 0
DWIDTH 17 0
BBX 12 10 2 0
BITMAP
0800
1040
2020
4010
4010
8610
8E10
8820
9840
6780
ENDCHAR
STARTCHAR 0401
ENCODING 1025
SWIDTH 1020 0
DWIDTH 17 0
BBX 11 15 3 0
BITMAP
2100
0000
0000
FFC0
4020
4000
4000
4080
7F80
4080
4080
4000
4020
4040
FFC0
ENDCHAR
STARTCHAR 0410
ENCODING 1040
SWIDTH 1020 0
DWIDTH 17 0
BBX 12 14 2 0
BITMAP
0600
0600
0600
0B00
0B00
1080
1080
1080
2040
3FC0
2040
4020
4020
E070
ENDCHAR
STARTCHAR 0411
ENCODING 1041
SWIDTH 1020 0
DWIDTH 17 0
BBX 10 14 3 0
BITMAP
FF80
FF80
4080
4040
4000
4000
7F00
4080
4040
4040
4040
4040
4080
FF00
ENDCHAR
STARTCHAR 0412
ENCODING 1042
SWIDTH 1020 0
DWIDTH 17 0
BBX 10 14 3 0
BITMAP
FF00
FF00
4080
4080
4080
4080
7F00
4080
4040
4040
4040
4040
4080
FF00
ENDCHAR
STARTCHAR 0413
ENCODING 1043
SWIDTH 1020 0
DWIDTH 17 0
BBX 10 14 3 0
BITMAP
FF80
FF80
4080
4040
4000
4000
4000
4000
4000
4000
4000
4000
4000
FC00
ENDCHAR
STARTCHAR 0414
ENCODING 1044
SWIDTH 1020 0
DWIDTH 17 0
BBX 12 16 2 -2
BITMAP
3FE0
3FE0
1040
1040
1040
1040
1040
1040
1040
1040
1040
2040
2040
FFF0
8010
8010
ENDCHAR
STARTCHAR 0415
ENCODING 1045
SWIDTH 1020 0
DWIDTH 17 0
BBX 11 14 3 0
BITMAP
FFC0
FFC0
4020
4000
4000
4080
7F80
4080
4080
4000
4000
4020
4040
FFC0
ENDCHAR
STARTCHAR 0416
ENCODING 1046
SWIDTH 1020 0
DWIDTH 17 0
BBX 14 14 1 0
BITMAP
4788
4788
A314
2310
2310
2310
1320
0FC0
1320
1320
2310
4308
4308
E79C
ENDCHAR
STARTCHAR 0417
ENCODING 1047
SWIDTH 1020 0
DWIDTH 17 0
BBX 10 14 3 0
BITMAP
3F00
3F00
4080
8040
0040
0040
0080
1F00
0080
0040
8040
8040
4080
7F00
ENDCHAR
STARTCHAR 0418
ENCODING 1048
SWIDTH 1020 0
DWIDTH 17 0
BBX 12 14 2 0
BITMAP
E070
E070
4020
4060
40A0
4320
4320
4620
4820
4820
5020
6020
4020
E070
ENDCHAR
STARTCHAR 0419
ENCODING 1049
SWIDTH 1020 0
DWIDTH 17 0
BBX 12 15 2 0
BITMAP
1080
0F00
0F00
E070
4020
4060
40A0
4320
4620
4620
4820
5020
6020
4020
E070
ENDCHAR
STARTCHAR 041A
ENCODING 1050
SWIDTH 1020 0
DWIDTH 17 0
BBX 12 14 2 0
BITMAP
E060
E060
4090
4080
4300
7600
4800
4600
4300
4080
4040
4040
4020
E070
ENDCHAR
STARTCHAR 041B
ENCODING 1051
SWIDTH 1020 0
DWIDTH 17 0
BBX 12 14 1 0
BITMAP
0FF0
0FF0
0420
0420
0420
0420
0420
0420
0420
0420
0820
0820
9020
6070
ENDCHAR
STARTCHAR 041C
ENCODING 1052
SWIDTH 1020 0
DWIDTH 17 0
BBX 14 14 1 0
BITMAP
7038
7038
2850
2850
2850
2590
2590
2310
4308
4308
4008
4008
4008
E01C
ENDCHAR
STARTCHAR 041D
ENCODING 1053
SWIDTH 1020 0
DWIDTH 17 0
BBX 12 14 2 0
BITMAP
E070
E070
4020
4020
4020
4020
7FE0
4020
4020
4020
4020
4020
4020
E070
ENDCHAR
STARTCHAR 041E
ENCODING 1054
SWIDTH 1020 0
DWIDTH 17 0
BBX 12 14 2 0
BITMAP
1F80
1F80
2040
4020
4020
8010
8010
8010
8010
8010
4020
4020
2040
1F80
ENDCHAR
STARTCHAR 041F
ENCODING 1055
SWIDTH 1020 0
DWIDTH 17 0
BBX 12 14 2 0
BITMAP
FFF0
FFF0
4020
4020
4020
4020
4020
4020
4020
4020
4020
4020
4020
E070
ENDCHAR
STARTCHAR 0420
ENCODING 1056
SWIDTH 1020 0
DWIDTH 17 0
BBX 10 14 3 0
BITMAP
FF00
FF00
4080
4040
4040
4040
4080
7F00
4000
4000
4000
4000
4000
FC00
ENDCHAR
STARTCHAR 0421
ENCODING 1057
SWIDTH 1020 0
DWIDTH 17 0
BBX 11 14 2 0
BITMAP
1FA0
1FA0
2060
4020
4000
8000
8000
8000
8000
8000
4020
4020
2060
1F80
ENDCHAR
STARTCHAR 0422
ENCODING 1058
SWIDTH 1020 0
DWIDTH 17 0
BBX 12 14 2 0
BITMAP
7FE0
7FE0
4620
4620
8610
0600
0600
0600
0600
0600
0600
0600
0600
1F80
ENDCHAR
STARTCHAR 0423
ENCODING 1059
SWIDTH 1020 0
DWIDTH 17 0
BBX 12 14 2 0
BITMAP
E070
E070
4020
4020
2040
2040
1080
1080
0B00
0B00
0600
0600
4800
3000
ENDCHAR
STARTCHAR 0424
ENCODING 1060
SWIDTH 1020 0
DWIDTH 17 0
BBX 12 14 2 0
BITMAP
0F00
0F00
0600
1F80
6660
8610
8610
8610
8610
8610
6660
1F80
0600
0F00
ENDCHAR
STARTCHAR 0425
ENCODING 1061
SWIDTH 1020 0
DWIDTH 17 0
BBX 12 14 2 0
BITMAP
E070
E070
4020
2040
1080
0B00
0600
0600
0B00
1080
2040
2040
4020
E070
ENDCHAR
STARTCHAR 0426
ENCODING 1062
SWIDTH 1020 0
DWIDTH 17 0
BBX 12 16 2 -2
BITMAP
E0E0
E0E0
4040
4040
4040
4040
4040
4040
4040
4040
4040
4040
4040
FFF0
0010
0010
ENDCHAR
STARTCHAR 0427
ENCODING 1063
SWIDTH 1020 0
DWIDTH 17 0
BBX 11 14 2 0
BITMAP
E0E0
E0E0
4040
4040
4040
4040
4040
4040
20C0
1F40
0040
0040
0040
07E0
ENDCHAR
STARTCHAR 0428
ENCODING 1064
SWIDTH 1020 0
DWIDTH 17 0
BBX 14 14 1 0
BITMAP
E79C
E79C
4308
4308
4308
4308
4308
4308
4308
4308
4308
4308
4308
FFFC
ENDCHAR
STARTCHAR 0429
ENCODING 1065
SWIDTH 1020 0
DWIDTH 17 0
BBX 15 16 1 -2
BITMAP
E79C
E79C
4308
4308
4308
4308
4308
4308
4308
4308
4308
4308
4308
FFFE
0002
0002
ENDCHAR
STARTCHAR 042A
ENCODING 1066
SWIDTH 1020 0
DWIDTH 17 0
BBX 13 14 1 0
BITMAP
7C00
7C00
4400
8400
0400
07E0
0410
0408
0408
0408
0408
0408
0410
0FE0
ENDCHAR
STARTCHAR 042B
ENCODING 1067
SWIDTH 1020 0
DWIDTH 17 0
BBX 14 14 1 0
BITMAP
E01C
E01C
4008
4008
4008
7C08
4308
4188
4188
4188
4188
4188
4308
FC1C
ENDCHAR
STARTCHAR 042C
ENCODING 1068
SWIDTH 1020 0
DWIDTH 17 0
BBX 10 14 3 0
BITMAP
E000
E000
4000
4000
4000
7F00
4080
4040
4040
4040
4040
4040
4080
FF00
ENDCHAR
STARTCHAR 042D
ENCODING 1069
SWIDTH 1020 0
DWIDTH 17 0
BBX 11 14 3 0
BITMAP
BF00
BF00
C080
8040
0040
0020
3060
4CA0
0720
0020
8040
8040
C080
3F00
ENDCHAR
STARTCHAR 042E
ENCODING 1070
SWIDTH 1020 0
DWIDTH 17 0
BBX 13 14 1 0
BITMAP
E3E0
E3E0
4410
4808
4808
4808
7808
4808
4808
4808
4808
4808
4410
E3E0
ENDCHAR
STARTCHAR 042F
ENCODING 1071
SWIDTH 1020 0
DWIDTH 17 0
BBX 11 14 2 0
BITMAP
1FE0
1FE0
2040
4040
4040
2040
1FC0
0840
0840
1040
1040
2040
4040
80E0
ENDCHAR
STARTCHAR 0430
ENCODING 1072
SWIDTH 1020 0
DWIDTH 17 0
BBX 10 9 3 0
BITMAP
3E00
4100
0100
1F00
6100
8100
8100
8740
7C80
ENDCHAR
STARTCHAR 0431
ENCODING 1073
SWIDTH 1020 0
DWIDTH 17 0
BBX 9 14 3 0
BITMAP
0100
0100
3E00
4000
4000
BE00
C100
8080
8080
8080
8080
8080
4100
3E00
ENDCHAR
STARTCHAR 0432
ENCODING 1074
SWIDTH 1020 0
DWIDTH 17 0
BBX 9 9 3 0
BITMAP
FE00
4100
4100
4100
7F00
4080
4080
4080
FF00
ENDCHAR
STARTCHAR 0433
ENCODING 1075
SWIDTH 1020 0
DWIDTH 17 0
BBX 9 9 3 0
BITMAP
FF80
4080
4080
4000
4000
4000
4000
4000
F000
ENDCHAR
STARTCHAR 0434
ENCODING 1076
SWIDTH 1020 0
DWIDTH 17 0
BBX 10 11 3 -2
BITMAP
3FC0
1080
1080
1080
1080
1080
2080
2080
FFC0
8040
8040
ENDCHAR
STARTCHAR 0435
ENCODING 1077
SWIDTH 1020 0
DWIDTH 17 0
BBX 9 9 3 0
BITMAP
3E00
4100
8080
8080
FF80
8000
8000
4080
3F00
ENDCHAR
STARTCHAR 0436
ENCODING 1078
SWIDTH 1020 0
DWIDTH 17 0
BBX 12 9 2 0
BITMAP
4F20
A650
2640
2640
1F80
2640
2640
4620
EF70
ENDCHAR
STARTCHAR 0437
ENCODING 1079
SWIDTH 1020 0
DWIDTH 17 0
BBX 9 9 3 0
BITMAP
3F00
4080
8080
0080
1F00
0080
8080
4080
3F00
ENDCHAR
STARTCHAR 0438
ENCODING 1080
SWIDTH 1020 0
DWIDTH 17 0
BBX 10 9 3 0
BITMAP
E1C0
4080
4180
4680
4C80
5080
6080
4080
E1C0
ENDCHAR
STARTCHAR 0439
ENCODING 1081
SWIDTH 1020 0
DWIDTH 17 0
BBX 10 12 3 0
BITMAP
2100
1E00
0000
E1C0
4080
4180
4680
4C80
5080
6080
4080
E1C0
ENDCHAR
STARTCHAR 043A
ENCODING 1082
SWIDTH 1020 0
DWIDTH 17 0
BBX 10 9 3 0
BITMAP
E080
4140
4600
6C00
5C00
4600
4100
4080
E1C0
ENDCHAR
STARTCHAR 043B
ENCODING 1083
SWIDTH 1020 0
DWIDTH 17 0
BBX 11 9 2 0
BITMAP
1FE0
0840
0840
0840
0840
0840
0840
9040
60E0
ENDCHAR
STARTCHAR 043C
ENCODING 1084
SWIDTH 1020 0
DWIDTH 17 0
BBX 12 9 2 0
BITMAP
C030
6060
6060
50A0
4B20
4B20
4620
4620
E070
ENDCHAR
STARTCHAR 043D
ENCODING 1085
SWIDTH 1020 0
DWIDTH 17 0
BBX 10 9 3 0
BITMAP
E1C0
4080
4080
7F80
4080
4080
4080
4080
E1C0
ENDCHAR
STARTCHAR 043E
ENCODING 1086
SWIDTH 1020 0
DWIDTH 17 0
BBX 9 9 3 0
BITMAP
3E00
4100
8080
8080
8080
8080
8080
4100
3E00
ENDCHAR
STARTCHAR 043F
ENCODING 1087
SWIDTH 1020 0
DWIDTH 17 0
BBX 10 9 3 0
BITMAP
FFC0
4080
4080
4080
4080
4080
4080
4080
E1C0
ENDCHAR
STARTCHAR 0440
ENCODING 1088
SWIDTH 1020 0
DWIDTH 17 0
BBX 9 11 3 -2
BITMAP
1E00
E100
4080
4080
4080
4080
6100
5E00
4000
4000
F000
ENDCHAR
STARTCHAR 0441
ENCODING 1089
SWIDTH 1020 0
DWIDTH 17 0
BBX 9 9 3 0
BITMAP
3E00
4180
8080
8000
8000
8000
8080
4100
3F00
ENDCHAR
STARTCHAR 0442
ENCODING 1090
SWIDTH 1020 0
DWIDTH 17 0
BBX 10 9 3 0
BITMAP
FFC0
8C40
8C40
0C00
0C00
0C00
0C00
0C00
1E00
ENDCHAR
STARTCHAR 0443
ENCODING 1091
SWIDTH 1020 0
DWIDTH 17 0
BBX 10 11 3 -2
BITMAP
E1C0
4080
4080
2100
2100
1600
1600
0C00
0C00
9000
6000
ENDCHAR
STARTCHAR 0444
ENCODING 1092
SWIDTH 1020 0
DWIDTH 17 0
BBX 12 16 2 -2
BITMAP
0600
0600
0E00
0600
0600
36C0
4F20
8610
8610
8610
8610
4F20
36C0
0600
0600
0F00
ENDCHAR
STARTCHAR 0445
ENCODING 1093
SWIDTH 1020 0
DWIDTH 17 0
BBX 10 9 3 0
BITMAP
E1C0
4080
2100
1600
0C00
1600
2100
4080
E1C0
ENDCHAR
STARTCHAR 0446
ENCODING 1094
SWIDTH 1020 0
DWIDTH 17 0
BBX 11 11 3 -2
BITMAP
E1C0
4080
4080
4080
4080
4080
4080
4080
FFE0
0020
0020
ENDCHAR
STARTCHAR 0447
ENCODING 1095
SWIDTH 1020 0
DWIDTH 17 0
BBX 10 9 3 0
BITMAP
E1C0
4080
4080
4080
4180
3E80
0080
0080
07C0
ENDCHAR
STARTCHAR 0448
ENCODING 1096
SWIDTH 1020 0
DWIDTH 17 0
BBX 12 9 2 0
BITMAP
EF70
4620
4620
4620
4620
4620
4620
4620
FFF0
ENDCHAR
STARTCHAR 0449
ENCODING 1097
SWIDTH 1020 0
DWIDTH 17 0
BBX 12 11 2 -2
BITMAP
EF70
4620
4620
4620
4620
4620
4620
4620
FFF0
0010
0010
ENDCHAR
STARTCHAR 044A
ENCODING 1098
SWIDTH 1020 0
DWIDTH 17 0
BBX 11 9 2 0
BITMAP
7800
4800
8800
0FC0
0820
0820
0820
0820
1FC0
ENDCHAR
STARTCHAR 044B
ENCODING 1099
SWIDTH 1020 0
DWIDTH 17 0
BBX 12 9 2 0
BITMAP
E070
4020
4020
7E20
4320
4320
4320
4320
FE70
ENDCHAR
STARTCHAR 044C
ENCODING 1100
SWIDTH 1020 0
DWIDTH 17 0
BBX 9 9 4 0
BITMAP
E000
4000
4000
7E00
4100
4080
4080
4100
FE00
ENDCHAR
STARTCHAR 044D
ENCODING 1101
SWIDTH 1020 0
DWIDTH 17 0
BBX 9 9 3 0
BITMAP
7E00
8100
0080
3180
4E80
0080
0080
8100
7E00
ENDCHAR
STARTCHAR 044E
ENCODING 1102
SWIDTH 1020 0
DWIDTH 17 0
BBX 11 9 2 0
BITMAP
E7C0
4820
4820
7820
4820
4820
4820
4820
E7C0
ENDCHAR
STARTCHAR 044F
ENCODING 1103
SWIDTH 1020 0
DWIDTH 17 0
BBX 10 9 3 0
BITMAP
3FC0
4080
4080
4080
3F80
0C80
1080
2080
C1C0
ENDCHAR
STARTCHAR 0451
ENCODING 1105
SWIDTH 1020 0
DWIDTH 17 0
BBX 9 11 3 0
BITMAP
4100
0000
3E00
4100
8080
8080
FF80
8000
8000
4080
3F00
ENDCHAR
STARTCHAR 2000
ENCODING 8192
SWIDTH 1020 0
DWIDTH 17 0
BBX 0 0 0 0
BITMAP
ENDCHAR
STARTCHAR 2001
ENCODING 8193
SWIDTH 1020 0
DWIDTH 17 0
BBX 0 0 0 0
BITMAP
ENDCHAR
STARTCHAR 2002
ENCODING 8194
SWIDTH 1020 0
DWIDTH 17 0
BBX 0 0 0 0
BITMAP
ENDCHAR
STARTCHAR 2003
ENCODING 8195
SWIDTH 1020 0
DWIDTH 17 0
BBX 0 0 0 0
BITMAP
ENDCHAR
STARTCHAR 2004
ENCODING 8196
SWIDTH 1020 0
DWIDTH 17 0
BBX 0 0 0 0
BITMAP
ENDCHAR
STARTCHAR 2005
ENCODING 8197
SWIDTH 1020 0
DWIDTH 17 0
BBX 0 0 0 0
BITMAP
ENDCHAR
STARTCHAR 2006
ENCODING 8198
SWIDTH 1020 0
DWIDTH 17 0
BBX 0 0 0 0
BITMAP
ENDCHAR
STARTCHAR 2007
ENCODING 8199
SWIDTH 1020 0
DWIDTH 17 0
BBX 0 0 0 0
BITMAP
ENDCHAR
STARTCHAR 2008
ENCODING 8200
SWIDTH 1020 0
DWIDTH 17 0
BBX 0 0 0 0
BITMAP
ENDCHAR
STARTCHAR 2009
ENCODING 8201
SWIDTH 1020 0
DWIDTH 17 0
BBX 0 0 0 0
BITMAP
ENDCHAR
STARTCHAR 200A
ENCODING 8202
SWIDTH 1020 0
DWIDTH 17 0
BBX 0 0 0 0
BITMAP
ENDCHAR
STARTCHAR 200B
ENCODING 8203
SWIDTH 540 0
DWIDTH 9 0
BBX 0 0 0 0
BITMAP
ENDCHAR
STARTCHAR 200C
ENCODING 8204
SWIDTH 540 0
DWIDTH 9 0
BBX 0 0 0 0
BITMAP
ENDCHAR
STARTCHAR 200D
ENCODING 8205
SWIDTH 540 0
DWIDTH 9 0
BBX 0 0 0 0
BITMAP
ENDCHAR
STARTCHAR 200E
ENCODING 8206
SWIDTH 540 0
DWIDTH 9 0
BBX 0 0 0 0
BITMAP
ENDCHAR
STARTCHAR 200F
ENCODING 8207
SWIDTH 540 0
DWIDTH 9 0
BBX 0 0 0 0
BITMAP
ENDCHAR
STARTCHAR 2010
ENCODING 8208
SWIDTH 1020 0
DWIDTH 17 0
BBX 6 1 5 6
BITMAP
FC
ENDCHAR
STARTCHAR 2015
ENCODING 8213
SWIDTH 1020 0
DWIDTH 17 0
BBX 16 1 0 6
BITMAP
FFFF
ENDCHAR
STARTCHAR 2016
ENCODING 8214
SWIDTH 1020 0
DWIDTH 17 0
BBX 6 17 5 -2
BITMAP
84
84
84
84
84
84
84
84
84
84
84
84
84
84
84
84
84
ENDCHAR
STARTCHAR 2018
ENCODING 8216
SWIDTH 1020 0
DWIDTH 17 0
BBX 2 5 13 10
BITMAP
40
80
80
C0
C0
ENDCHAR
STARTCHAR 2019
ENCODING 8217
SWIDTH 1020 0
DWIDTH 17 0
BBX 2 5 1 10
BITMAP
C0
C0
C0
40
80
ENDCHAR
STARTCHAR 201C
ENCODING 8220
SWIDTH 1020 0
DWIDTH 17 0
BBX 5 5 10 10
BITMAP
48
90
90
90
D8
ENDCHAR
STARTCHAR 201D
ENCODING 8221
SWIDTH 1020 0
DWIDTH 17 0
BBX 5 5 1 10
BITMAP
D8
48
48
48
90
ENDCHAR
STARTCHAR 2020
ENCODING 8224
SWIDTH 1020 0
DWIDTH 17 0
BBX 10 17 3 -2
BITMAP
0C00
1E00
1E00
1E00
0C00
4C80
FFC0
4C80
0C00
1E00
3F00
1E00
0C00
0C00
0C00
0C00
0C00
ENDCHAR
STARTCHAR 2021
ENCODING 8225
SWIDTH 1020 0
DWIDTH 17 0
BBX 10 17 3 -2
BITMAP
1E00
0C00
0C00
4C80
FFC0
4C80
0C00
1E00
0C00
0C00
1E00
0C00
4C80
FFC0
4C80
0C00
1E00
ENDCHAR
STARTCHAR 2025
ENCODING 8229
SWIDTH 1020 0
DWIDTH 17 0
BBX 14 3 1 5
BITMAP
4008
E01C
4008
ENDCHAR
STARTCHAR 2026
ENCODING 8230
SWIDTH 1020 0
DWIDTH 17 0
BBX 16 3 0 5
BITMAP
4182
E3C7
4182
ENDCHAR
STARTCHAR 2030
ENCODING 8240
SWIDTH 1020 0
DWIDTH 17 0
BBX 16 16 0 -1
BITMAP
6008
9010
9010
9020
90C0
9180
9200
6400
0800
1386
24C9
44C9
84C9
04C9
04C9
0386
ENDCHAR
STARTCHAR 2032
ENCODING 8242
SWIDTH 1020 0
DWIDTH 17 0
BBX 3 6 0 9
BITMAP
20
60
60
40
40
80
ENDCHAR
STARTCHAR 2033
ENCODING 8243
SWIDTH 1020 0
DWIDTH 17 0
BBX 6 6 0 9
BITMAP
24
6C
6C
48
48
90
ENDCHAR
STARTCHAR 203B
ENCODING 8251
SWIDTH 1020 0
DWIDTH 17 0
BBX 14 14 1 0
BITMAP
8784
8784
4788
2790
1020
0840
E59C
E31C
E59C
0840
1020
2790
4788
8784
ENDCHAR
STARTCHAR 203E
ENCODING 8254
SWIDTH 540 0
DWIDTH 9 0
BBX 7 2 0 12
BITMAP
FE
FE
ENDCHAR
STARTCHAR 2103
ENCODING 8451
SWIDTH 1020 0
DWIDTH 17 0
BBX 13 14 1 0
BITMAP
6000
6000
93E0
9410
6808
0808
1000
1000
1000
1000
0808
0808
0410
03E0
ENDCHAR
STARTCHAR 2116
ENCODING 8470
SWIDTH 1020 0
DWIDTH 17 0
BBX 16 13 0 -1
BITMAP
C780
4200
6200
5200
521C
5222
4A22
4A22
4A22
4622
4222
E39D
0001
ENDCHAR
STARTCHAR 2121
ENCODING 8481
SWIDTH 1020 0
DWIDTH 17 0
BBX 16 12 0 0
BITMAP
FE00
9200
9200
1000
1000
13EC
1228
12C8
13C8
12C8
1229
3BEF
ENDCHAR
STARTCHAR 212B
ENCODING 8491
SWIDTH 1020 0
DWIDTH 17 0
BBX 14 15 1 0
BITMAP
0780
0840
0840
0840
0780
0580
0580
0840
0840
1020
1020
1FE0
2010
2010
F03C
ENDCHAR
STARTCHAR 2160
ENCODING 8544
SWIDTH 1020 0
DWIDTH 17 0
BBX 7 14 4 0
BITMAP
FE
FE
38
38
38
38
38
38
38
38
38
38
38
FE
ENDCHAR
STARTCHAR 2161
ENCODING 8545
SWIDTH 1020 0
DWIDTH 17 0
BBX 11 14 3 0
BITMAP
FFE0
FFE0
3180
3180
3180
3180
3180
3180
3180
3180
3180
3180
3180
FFE0
ENDCHAR
STARTCHAR 2162
ENCODING 8546
SWIDTH 1020 0
DWIDTH 17 0
BBX 15 14 1 0
BITMAP
FFFE
FFFE
3398
3398
3398
3398
3398
3398
3398
3398
3398
3398
3398
FFFE
ENDCHAR
STARTCHAR 2163
ENCODING 8547
SWIDTH 1020 0
DWIDTH 17 0
BBX 15 14 1 0
BITMAP
FF9E
FF9E
3704
3704
3704
3388
3388
3388
31D0
31D0
31D0
3060
3060
FC60
ENDCHAR
STARTCHAR 2164
ENCODING 8548
SWIDTH 1020 0
DWIDTH 17 0
BBX 13 14 2 0
BITMAP
F8F8
F8F8
3020
3020
3020
1840
1840
1840
0E80
0E80
0E80
0700
0700
0700
ENDCHAR
STARTCHAR 2165
ENCODING 8549
SWIDTH 1020 0
DWIDTH 17 0
BBX 15 14 1 0
BITMAP
F3FE
F3FE
6058
6058
6058
3198
3198
3198
1B18
1B18
1B18
0C18
0C18
0C7E
ENDCHAR
STARTCHAR 2166
ENCODING 8550
SWIDTH 1020 0
DWIDTH 17 0
BBX 16 14 0 0
BITMAP
F7FF
F7FF
62E6
62E6
62E6
34E6
34E6
34E6
34E6
34E6
18E6
18E6
18E6
19FF
ENDCHAR
STARTCHAR 2167
ENCODING 8551
SWIDTH 1020 0
DWIDTH 17 0
BBX 16 14 0 0
BITMAP
EFFF
EFFF
C7B6
C7B6
C7B6
6BB6
6BB6
6BB6
6BB6
6BB6
33B6
33B6
33B6
37FF
ENDCHAR
STARTCHAR 2168
ENCODING 8552
SWIDTH 1020 0
DWIDTH 17 0
BBX 15 14 1 0
BITMAP
FF9E
FF9E
3704
3388
3388
31D0
31E0
3060
3070
31B0
3318
3318
340C
FF9E
ENDCHAR
STARTCHAR 2169
ENCODING 8553
SWIDTH 1020 0
DWIDTH 17 0
BBX 13 14 2 0
BITMAP
F8F8
F8F8
3020
1840
1840
0E80
0F00
0700
0780
0B80
10C0
10C0
2060
F8F8
ENDCHAR
STARTCHAR 2190
ENCODING 8592
SWIDTH 1020 0
DWIDTH 17 0
BBX 16 7 0 3
BITMAP
1000
2000
4000
FFFF
4000
2000
1000
ENDCHAR
STARTCHAR 2191
ENCODING 8593
SWIDTH 1020 0
DWIDTH 17 0
BBX 8 17 4 -2
BITMAP
18
3C
3C
5A
99
18
18
18
18
18
18
18
18
18
18
18
18
ENDCHAR
STARTCHAR 2192
ENCODING 8594
SWIDTH 1020 0
DWIDTH 17 0
BBX 16 7 0 3
BITMAP
0008
0004
0002
FFFF
0002
0004
0008
ENDCHAR
STARTCHAR 2193
ENCODING 8595
SWIDTH 1020 0
DWIDTH 17 0
BBX 8 17 4 -2
BITMAP
18
18
18
18
18
18
18
18
18
18
18
18
18
99
5A
3C
18
ENDCHAR
STARTCHAR 21D2
ENCODING 8658
SWIDTH 1020 0
DWIDTH 17 0
BBX 14 9 1 2
BITMAP
0040
0020
FFF0
0008
0004
0008
FFF0
0020
0040
ENDCHAR
STARTCHAR 21D4
ENCODING 8660
SWIDTH 1020 0
DWIDTH 17 0
BBX 15 9 0 2
BITMAP
0820
1010
3FF8
4004
8002
4004
3FF8
1010
0820
ENDCHAR
STARTCHAR 2200
ENCODING 8704
SWIDTH 1020 0
DWIDTH 17 0
BBX 12 15 2 -1
BITMAP
8010
8010
8010
4020
4020
7FE0
2040
2040
1080
1080
1080
0B00
0B00
0600
0600
ENDCHAR
STARTCHAR 2202
ENCODING 8706
SWIDTH 1020 0
DWIDTH 17 0
BBX 10 15 2 -1
BITMAP
0F00
0F00
1080
0040
0040
0040
0040
1E40
2340
4080
4080
8300
8300
4600
3800
ENDCHAR
STARTCHAR 2203
ENCODING 8707
SWIDTH 1020 0
DWIDTH 17 0
BBX 12 11 2 1
BITMAP
FFF0
0010
0010
0010
0010
FFF0
0010
0010
0010
0010
FFF0
ENDCHAR
STARTCHAR 2207
ENCODING 8711
SWIDTH 1020 0
DWIDTH 17 0
BBX 12 10 2 1
BITMAP
FFF0
7FE0
6020
2040
3040
1080
1880
0B00
0F00
0600
ENDCHAR
STARTCHAR 2208
ENCODING 8712
SWIDTH 1020 0
DWIDTH 17 0
BBX 12 9 2 2
BITMAP
3FF0
4000
8000
8000
FFF0
8000
8000
4000
3FF0
ENDCHAR
STARTCHAR 220B
ENCODING 8715
SWIDTH 1020 0
DWIDTH 17 0
BBX 12 9 2 2
BITMAP
FFC0
0020
0010
0010
FFF0
0010
0010
0020
FFC0
ENDCHAR
STARTCHAR 2211
ENCODING 8721
SWIDTH 1020 0
DWIDTH 17 0
BBX 12 12 2 0
BITMAP
FFE0
6020
3010
1800
0E00
0700
0E00
1800
3000
6010
C020
FFE0
ENDCHAR
STARTCHAR 2212
ENCODING 8722
SWIDTH 1020 0
DWIDTH 17 0
BBX 12 1 2 6
BITMAP
FFF0
ENDCHAR
STARTCHAR 221A
ENCODING 8730
SWIDTH 1020 0
DWIDTH 17 0
BBX 14 16 0 -1
BITMAP
00FC
00C0
00C0
00C0
0180
0180
0180
0180
4200
4200
6200
A400
1400
1400
0800
0800
ENDCHAR
STARTCHAR 221D
ENCODING 8733
SWIDTH 1020 0
DWIDTH 17 0
BBX 13 7 1 3
BITMAP
3030
4848
8580
8300
8580
4848
3030
ENDCHAR
STARTCHAR 221E
ENCODING 8734
SWIDTH 1020 0
DWIDTH 17 0
BBX 14 7 1 3
BITMAP
3030
4848
8584
8304
8584
4848
3030
ENDCHAR
STARTCHAR 221F
ENCODING 8735
SWIDTH 1020 0
DWIDTH 17 0
BBX 13 13 2 1
BITMAP
8000
8000
8000
8000
8000
8000
8000
8000
8000
8000
8000
8000
FFF8
ENDCHAR
STARTCHAR 2220
ENCODING 8736
SWIDTH 1020 0
DWIDTH 17 0
BBX 13 11 2 1
BITMAP
0010
0020
0040
0080
0300
0600
0800
1000
2000
4000
FFF8
ENDCHAR
STARTCHAR 2227
ENCODING 8743
SWIDTH 1020 0
DWIDTH 17 0
BBX 14 14 1 -2
BITMAP
0300
0300
0580
0580
0840
0840
1020
1020
2010
2010
4008
4008
8004
8004
ENDCHAR
STARTCHAR 2228
ENCODING 8744
SWIDTH 1020 0
DWIDTH 17 0
BBX 14 15 1 0
BITMAP
8004
8004
8004
4008
4008
2010
2010
1020
1020
0840
0840
0580
0580
0300
0300
ENDCHAR
STARTCHAR 2229
ENCODING 8745
SWIDTH 1020 0
DWIDTH 17 0
BBX 10 15 3 -1
BITMAP
1E00
1E00
2100
4080
8040
8040
8040
8040
8040
8040
8040
8040
8040
8040
8040
ENDCHAR
STARTCHAR 222A
ENCODING 8746
SWIDTH 1020 0
DWIDTH 17 0
BBX 10 15 3 -1
BITMAP
8040
8040
8040
8040
8040
8040
8040
8040
8040
8040
8040
8040
4080
2100
1E00
ENDCHAR
STARTCHAR 222B
ENCODING 8747
SWIDTH 1020 0
DWIDTH 17 0
BBX 5 17 6 -2
BITMAP
70
88
88
B8
80
80
60
60
60
30
30
30
08
08
E8
88
70
ENDCHAR
STARTCHAR 222C
ENCODING 8748
SWIDTH 1020 0
DWIDTH 17 0
BBX 10 17 3 -2
BITMAP
6180
9640
9640
8600
8600
8600
4100
4100
4100
2080
2080
2080
1040
1040
1040
9640
6180
ENDCHAR
STARTCHAR 222E
ENCODING 8750
SWIDTH 1020 0
DWIDTH 17 0
BBX 7 17 5 -2
BITMAP
38
44
44
5C
40
40
7C
B2
B2
9A
7C
18
04
04
74
44
38
ENDCHAR
STARTCHAR 2234
ENCODING 8756
SWIDTH 1020 0
DWIDTH 17 0
BBX 12 10 2 1
BITMAP
0600
0F00
0600
0000
0000
0000
0000
4020
E070
4020
ENDCHAR
STARTCHAR 2235
ENCODING 8757
SWIDTH 1020 0
DWIDTH 17 0
BBX 12 10 2 1
BITMAP
4020
E070
4020
0000
0000
0000
0000
0600
0F00
0600
ENDCHAR
STARTCHAR 223D
ENCODING 8765
SWIDTH 1020 0
DWIDTH 17 0
BBX 14 7 1 3
BITMAP
3030
4848
8184
8304
8404
4848
3030
ENDCHAR
STARTCHAR 2252
ENCODING 8786
SWIDTH 1020 0
DWIDTH 17 0
BBX 12 15 2 -1
BITMAP
2000
2000
7000
2000
0000
0000
FFF0
0000
0000
FFF0
0000
0000
0040
00E0
0040
ENDCHAR
STARTCHAR 2260
ENCODING 8800
SWIDTH 1020 0
DWIDTH 17 0
BBX 12 12 2 0
BITMAP
0040
0080
0080
0300
FFF0
0600
0600
FFF0
0800
1000
1000
2000
ENDCHAR
STARTCHAR 2261
ENCODING 8801
SWIDTH 1020 0
DWIDTH 17 0
BBX 12 7 2 3
BITMAP
FFF0
0000
0000
FFF0
0000
0000
FFF0
ENDCHAR
STARTCHAR 2266
ENCODING 8806
SWIDTH 1020 0
DWIDTH 17 0
BBX 12 14 2 0
BITMAP
0030
0030
03C0
0E00
3000
C000
3000
0E00
03C0
0030
0000
FFF0
0000
FFF0
ENDCHAR
STARTCHAR 2267
ENCODING 8807
SWIDTH 1020 0
DWIDTH 17 0
BBX 12 14 2 0
BITMAP
C000
C000
3800
0700
00C0
0030
00C0
0700
3800
C000
0000
FFF0
0000
FFF0
ENDCHAR
STARTCHAR 226A
ENCODING 8810
SWIDTH 1020 0
DWIDTH 17 0
BBX 13 14 2 0
BITMAP
0060
0060
0080
0718
0820
30C0
4300
8600
4300
30C0
0820
0718
0080
0060
ENDCHAR
STARTCHAR 226B
ENCODING 8811
SWIDTH 1020 0
DWIDTH 17 0
BBX 13 14 1 0
BITMAP
3000
3000
0800
C700
2180
1860
0410
0308
0410
1860
2180
C700
0800
3000
ENDCHAR
STARTCHAR 2282
ENCODING 8834
SWIDTH 1020 0
DWIDTH 17 0
BBX 12 9 2 2
BITMAP
3FF0
4000
8000
8000
8000
8000
8000
4000
3FF0
ENDCHAR
STARTCHAR 2283
ENCODING 8835
SWIDTH 1020 0
DWIDTH 17 0
BBX 12 9 2 2
BITMAP
FFC0
0020
0010
0010
0010
0010
0010
0020
FFC0
ENDCHAR
STARTCHAR 2286
ENCODING 8838
SWIDTH 1020 0
DWIDTH 17 0
BBX 12 11 2 1
BITMAP
3FF0
4000
8000
8000
8000
8000
4000
3FF0
0000
0000
FFF0
ENDCHAR
STARTCHAR 2287
ENCODING 8839
SWIDTH 1020 0
DWIDTH 17 0
BBX 12 11 2 1
BITMAP
FFC0
0020
0010
0010
0010
0010
0020
FFC0
0000
0000
FFF0
ENDCHAR
STARTCHAR 22A5
ENCODING 8869
SWIDTH 1020 0
DWIDTH 17 0
BBX 14 13 1 1
BITMAP
0300
0300
0300
0300
0300
0300
0300
0300
0300
0300
0300
0300
FFFC
ENDCHAR
STARTCHAR 22BF
ENCODING 8895
SWIDTH 1020 0
DWIDTH 17 0
BBX 12 11 2 1
BITMAP
0010
0030
0050
0090
0310
0610
0810
1010
2010
4010
FFF0
ENDCHAR
STARTCHAR 2312
ENCODING 8978
SWIDTH 1020 0
DWIDTH 17 0
BBX 14 4 1 8
BITMAP
0FC0
3030
4008
8004
ENDCHAR
STARTCHAR 2460
ENCODING 9312
SWIDTH 1020 0
DWIDTH 17 0
BBX 16 17 0 -2
BITMAP
07E0
1818
1818
2184
4182
4782
8181
8181
8181
8181
8181
8181
4182
47E2
2004
1818
07E0
ENDCHAR
STARTCHAR 2461
ENCODING 9313
SWIDTH 1020 0
DWIDTH 17 0
BBX 16 17 0 -2
BITMAP
07E0
1818
1818
2004
47C2
4822
8821
8021
80C1
8181
8201
8421
4822
4FE2
2004
1818
07E0
ENDCHAR
STARTCHAR 2462
ENCODING 9314
SWIDTH 1020 0
DWIDTH 17 0
BBX 16 17 0 -2
BITMAP
07E0
1818
1818
2004
47C2
4822
8821
8021
83C1
8021
8021
8821
4822
47C2
2004
1818
07E0
ENDCHAR
STARTCHAR 2463
ENCODING 9315
SWIDTH 1020 0
DWIDTH 17 0
BBX 16 17 0 -2
BITMAP
07E0
1818
1818
2004
40C2
41C2
82C1
82C1
84C1
88C1
9FF1
80C1
40C2
43E2
2004
1818
07E0
ENDCHAR
STARTCHAR 2464
ENCODING 9316
SWIDTH 1020 0
DWIDTH 17 0
BBX 16 17 0 -2
BITMAP
07E0
1818
1818
2004
4FE2
4802
8801
8801
8FC1
8821
8021
8821
4822
47C2
2004
1818
07E0
ENDCHAR
STARTCHAR 2465
ENCODING 9317
SWIDTH 1020 0
DWIDTH 17 0
BBX 16 17 0 -2
BITMAP
07E0
1818
1818
2004
47C2
4822
8821
8801
8FC1
8821
8821
8821
4822
47C2
2004
1818
07E0
ENDCHAR
STARTCHAR 2466
ENCODING 9318
SWIDTH 1020 0
DWIDTH 17 0
BBX 16 17 0 -2
BITMAP
07E0
1818
1818
2004
4FE2
4822
8821
80C1
80C1
8181
8181
8201
4202
4202
2004
1818
07E0
ENDCHAR
STARTCHAR 2467
ENCODING 9319
SWIDTH 1020 0
DWIDTH 17 0
BBX 16 17 0 -2
BITMAP
07E0
1818
1818
2004
47C2
4822
8821
8821
87C1
8821
8821
8821
4822
47C2
2004
1818
07E0
ENDCHAR
STARTCHAR 2468
ENCODING 9320
SWIDTH 1020 0
DWIDTH 17 0
BBX 16 17 0 -2
BITMAP
07E0
1818
1818
2004
47C2
4822
8821
8821
8821
87E1
8021
8821
4822
47C2
2004
1818
07E0
ENDCHAR
STARTCHAR 2469
ENCODING 9321
SWIDTH 1020 0
DWIDTH 17 0
BBX 16 17 0 -2
BITMAP
07E0
1818
1818
2004
48F2
598A
8989
8989
8989
8989
8989
8989
498A
5CF2
2004
1818
07E0
ENDCHAR
STARTCHAR 246A
ENCODING 9322
SWIDTH 1020 0
DWIDTH 17 0
BBX 16 17 0 -2
BITMAP
07E0
1818
1818
2004
4422
4CE2
8421
8421
8421
8421
8421
8421
4422
4EF2
2004
1818
07E0
ENDCHAR
STARTCHAR 246B
ENCODING 9323
SWIDTH 1020 0
DWIDTH 17 0
BBX 16 17 0 -2
BITMAP
07E0
1818
1818
2004
48F2
598A
8989
8809
8811
8821
88C1
8981
498A
5DFA
2004
1818
07E0
ENDCHAR
STARTCHAR 246C
ENCODING 9324
SWIDTH 1020 0
DWIDTH 17 0
BBX 16 17 0 -2
BITMAP
07E0
1818
1818
2004
48F2
598A
8989
8809
8831
8809
8809
8989
498A
5CF2
2004
1818
07E0
ENDCHAR
STARTCHAR 246D
ENCODING 9325
SWIDTH 1020 0
DWIDTH 17 0
BBX 16 17 0 -2
BITMAP
07E0
1818
1818
2004
4812
5832
88D1
88D1
8991
8A11
8BF9
8811
4812
5CFA
2004
1818
07E0
ENDCHAR
STARTCHAR 246E
ENCODING 9326
SWIDTH 1020 0
DWIDTH 17 0
BBX 16 17 0 -2
BITMAP
07E0
1818
1818
2004
49F2
5982
8981
8981
89F1
8989
8809
8989
498A
5CF2
2004
1818
07E0
ENDCHAR
STARTCHAR 246F
ENCODING 9327
SWIDTH 1020 0
DWIDTH 17 0
BBX 16 17 0 -2
BITMAP
07E0
1818
1818
2004
48F2
598A
8989
8981
89F1
8989
8989
8989
498A
5CF2
2004
1818
07E0
ENDCHAR
STARTCHAR 2470
ENCODING 9328
SWIDTH 1020 0
DWIDTH 17 0
BBX 16 17 0 -2
BITMAP
07E0
1818
1818
2004
49FA
598A
8989
8811
8811
8821
8821
88C1
48C2
5CC2
2004
1818
07E0
ENDCHAR
STARTCHAR 2471
ENCODING 9329
SWIDTH 1020 0
DWIDTH 17 0
BBX 16 17 0 -2
BITMAP
07E0
1818
1818
2004
48F2
598A
8989
8989
88F1
8989
8989
8989
498A
5CF2
2004
1818
07E0
ENDCHAR
STARTCHAR 2472
ENCODING 9330
SWIDTH 1020 0
DWIDTH 17 0
BBX 16 17 0 -2
BITMAP
07E0
1818
1818
2004
48F2
598A
8989
8989
8989
88F9
8809
8989
498A
5CF2
2004
1818
07E0
ENDCHAR
STARTCHAR 2473
ENCODING 9331
SWIDTH 1020 0
DWIDTH 17 0
BBX 16 17 0 -2
BITMAP
07E0
1818
1818
2004
4C32
52CA
92C9
82C9
82C9
84C9
88C9
90C9
52CA
5E32
2004
1818
07E0
ENDCHAR
STARTCHAR 2581
ENCODING 9601
SWIDTH 1020 0
DWIDTH 17 0
BBX 7 17 0 -2
BITMAP
80
80
80
40
40
20
20
20
10
10
08
08
08
04
04
02
02
ENDCHAR
STARTCHAR 2582
ENCODING 9602
SWIDTH 1020 0
DWIDTH 17 0
BBX 7 3 0 11
BITMAP
72
72
8C
ENDCHAR
STARTCHAR 2583
ENCODING 9603
SWIDTH 1020 0
DWIDTH 17 0
BBX 1 11 3 1
BITMAP
80
80
80
80
00
00
00
80
80
80
80
ENDCHAR
STARTCHAR 2584
ENCODING 9604
SWIDTH 1020 0
DWIDTH 17 0
BBX 9 17 0 -2
BITMAP
7E00
9980
9980
9180
8780
8780
9180
9980
FF80
FF80
9980
9980
8180
8180
9980
9980
7E00
ENDCHAR
STARTCHAR 2587
ENCODING 9607
SWIDTH 1020 0
DWIDTH 17 0
BBX 7 16 0 -1
BITMAP
20
10
10
1C
70
20
20
50
6A
8C
88
18
28
20
20
1C
ENDCHAR
STARTCHAR 2588
ENCODING 9608
SWIDTH 1020 0
DWIDTH 17 0
BBX 7 10 0 -2
BITMAP
20
20
78
22
3A
64
AA
92
A2
44
ENDCHAR
STARTCHAR 2589
ENCODING 9609
SWIDTH 1020 0
DWIDTH 17 0
BBX 7 10 0 -2
BITMAP
10
10
1E
10
10
10
70
98
94
62
ENDCHAR
STARTCHAR 258A
ENCODING 9610
SWIDTH 1020 0
DWIDTH 17 0
BBX 7 10 0 -2
BITMAP
10
88
9C
AA
CA
AA
9C
10
10
20
ENDCHAR
STARTCHAR 258B
ENCODING 9611
SWIDTH 1020 0
DWIDTH 17 0
BBX 7 10 0 -2
BITMAP
04
58
4C
32
E2
2C
20
10
10
10
ENDCHAR
STARTCHAR 258C
ENCODING 9612
SWIDTH 1020 0
DWIDTH 17 0
BBX 7 9 0 -1
BITMAP
24
22
FA
20
20
3C
62
A2
64
ENDCHAR
STARTCHAR 258D
ENCODING 9613
SWIDTH 1020 0
DWIDTH 17 0
BBX 7 10 0 -2
BITMAP
38
00
7C
04
08
10
18
28
48
8E
ENDCHAR
STARTCHAR 258E
ENCODING 9614
SWIDTH 1020 0
DWIDTH 17 0
BBX 6 10 0 -2
BITMAP
38
00
38
C4
04
04
04
08
08
10
ENDCHAR
STARTCHAR 258F
ENCODING 9615
SWIDTH 1020 0
DWIDTH 17 0
BBX 7 8 0 -1
BITMAP
80
84
82
82
82
40
50
20
ENDCHAR
STARTCHAR 25A0
ENCODING 9632
SWIDTH 1020 0
DWIDTH 17 0
BBX 16 17 0 -2
BITMAP
FFFF
FFFF
FFFF
FFFF
FFFF
FFFF
FFFF
FFFF
FFFF
FFFF
FFFF
FFFF
FFFF
FFFF
FFFF
FFFF
FFFF
ENDCHAR
STARTCHAR 25A1
ENCODING 9633
SWIDTH 1020 0
DWIDTH 17 0
BBX 16 17 0 -2
BITMAP
FFFF
8001
8001
8001
8001
8001
8001
8001
8001
8001
8001
8001
8001
8001
8001
8001
FFFF
ENDCHAR
STARTCHAR 25B2
ENCODING 9650
SWIDTH 1020 0
DWIDTH 17 0
BBX 16 16 0 -1
BITMAP
0180
0180
0180
03C0
03C0
07E0
07E0
0FF0
0FF0
1FF8
1FF8
3FFC
3FFC
7FFE
7FFE
FFFF
ENDCHAR
STARTCHAR 25B3
ENCODING 9651
SWIDTH 1020 0
DWIDTH 17 0
BBX 16 16 0 -1
BITMAP
0180
0180
0180
02C0
02C0
0420
0420
0810
0810
1008
1008
2004
2004
4002
4002
FFFF
ENDCHAR
STARTCHAR 25BC
ENCODING 9660
SWIDTH 1020 0
DWIDTH 17 0
BBX 16 16 0 -2
BITMAP
FFFF
FFFF
7FFE
7FFE
3FFC
3FFC
1FF8
1FF8
0FF0
0FF0
07E0
07E0
03C0
03C0
0180
0180
ENDCHAR
STARTCHAR 25BD
ENCODING 9661
SWIDTH 1020 0
DWIDTH 17 0
BBX 16 16 0 -2
BITMAP
FFFF
FFFF
4002
4002
2004
2004
1008
1008
0810
0810
0420
0420
02C0
02C0
0180
0180
ENDCHAR
STARTCHAR 25C6
ENCODING 9670
SWIDTH 1020 0
DWIDTH 17 0
BBX 16 17 0 -2
BITMAP
0180
03C0
03C0
07E0
0FF0
1FF8
3FFC
7FFE
FFFF
FFFF
7FFE
3FFC
1FF8
0FF0
07E0
03C0
0180
ENDCHAR
STARTCHAR 25C7
ENCODING 9671
SWIDTH 1020 0
DWIDTH 17 0
BBX 16 16 0 -1
BITMAP
0180
02C0
02C0
0420
0810
1008
2004
4002
8001
4002
2004
1008
0810
0420
02C0
0180
ENDCHAR
STARTCHAR 25CB
ENCODING 9675
SWIDTH 1020 0
DWIDTH 17 0
BBX 16 17 0 -2
BITMAP
07E0
1818
1818
2004
4002
4002
8001
8001
8001
8001
8001
8001
4002
4002
2004
1818
07E0
ENDCHAR
STARTCHAR 25CE
ENCODING 9678
SWIDTH 1020 0
DWIDTH 17 0
BBX 16 17 0 -2
BITMAP
07E0
1818
1818
2004
4002
47E2
8811
9009
9009
9009
9009
8811
47E2
4002
2004
1818
07E0
ENDCHAR
STARTCHAR 25CF
ENCODING 9679
SWIDTH 1020 0
DWIDTH 17 0
BBX 16 17 0 -2
BITMAP
07E0
1FF8
1FF8
3FFC
7FFE
7FFE
FFFF
FFFF
FFFF
FFFF
FFFF
FFFF
7FFE
7FFE
3FFC
1FF8
07E0
ENDCHAR
STARTCHAR 25EF
ENCODING 9711
SWIDTH 1020 0
DWIDTH 17 0
BBX 16 17 0 -2
BITMAP
07E0
1818
1818
2004
4002
4002
8001
8001
8001
8001
8001
8001
4002
4002
2004
1818
07E0
ENDCHAR
STARTCHAR 2605
ENCODING 9733
SWIDTH 1020 0
DWIDTH 17 0
BBX 16 17 0 -2
BITMAP
0180
0180
0180
03C0
03C0
07E0
07E0
FFFF
7FFE
3FFC
1FF8
0FF0
1FF8
1EF8
1C38
381C
300C
ENDCHAR
STARTCHAR 2606
ENCODING 9734
SWIDTH 1020 0
DWIDTH 17 0
BBX 16 17 0 -2
BITMAP
0180
0180
0180
02C0
02C0
0420
0420
FC3F
4002
2004
1008
0810
1188
12C8
1428
2814
300C
ENDCHAR
STARTCHAR 2640
ENCODING 9792
SWIDTH 1020 0
DWIDTH 17 0
BBX 12 16 2 -1
BITMAP
0F00
1080
1080
2040
2040
2040
1080
0F00
0600
0600
FFF0
0600
0600
0600
0600
0600
ENDCHAR
STARTCHAR 2642
ENCODING 9794
SWIDTH 1020 0
DWIDTH 17 0
BBX 15 15 0 -1
BITMAP
00FE
00FE
0006
000A
0012
0022
00C2
0180
3A00
4400
8200
8200
8200
4400
3800
ENDCHAR
STARTCHAR 266A
ENCODING 9834
SWIDTH 1020 0
DWIDTH 17 0
BBX 11 15 2 -1
BITMAP
0600
0600
0700
0680
0640
0640
0620
0620
0620
0640
1E00
7E00
F800
F800
7000
ENDCHAR
STARTCHAR 266D
ENCODING 9837
SWIDTH 1020 0
DWIDTH 17 0
BBX 7 15 4 -1
BITMAP
80
80
80
80
80
B8
CC
82
82
8C
8C
98
A0
C0
80
ENDCHAR
STARTCHAR 266F
ENCODING 9839
SWIDTH 1020 0
DWIDTH 17 0
BBX 10 15 3 -1
BITMAP
0100
0100
2100
21C0
3FC0
FF00
E100
2100
2100
21C0
3FC0
FF00
E100
2100
2000
ENDCHAR
STARTCHAR 3000
ENCODING 12288
SWIDTH 1020 0
DWIDTH 17 0
BBX 0 0 0 0
BITMAP
ENDCHAR
STARTCHAR 3001
ENCODING 12289
SWIDTH 1020 0
DWIDTH 17 0
BBX 4 5 0 -2
BITMAP
80
40
20
30
10
ENDCHAR
STARTCHAR 3002
ENCODING 12290
SWIDTH 1020 0
DWIDTH 17 0
BBX 5 5 0 -2
BITMAP
70
88
88
88
70
ENDCHAR
STARTCHAR 3003
ENCODING 12291
SWIDTH 1020 0
DWIDTH 17 0
BBX 9 6 3 4
BITMAP
1080
1080
2100
2100
4600
8C00
ENDCHAR
STARTCHAR 3005
ENCODING 12293
SWIDTH 1020 0
DWIDTH 17 0
BBX 13 16 1 -2
BITMAP
0400
0400
0400
0400
09F8
0F10
1020
1020
2040
4040
8D80
0300
0180
0040
0020
0020
ENDCHAR
STARTCHAR 3006
ENCODING 12294
SWIDTH 1020 0
DWIDTH 17 0
BBX 13 15 1 -1
BITMAP
0010
0010
0008
0010
0020
0840
1580
2300
2580
4800
5000
9000
A000
C000
8000
ENDCHAR
STARTCHAR 3007
ENCODING 12295
SWIDTH 1020 0
DWIDTH 17 0
BBX 16 12 0 0
BITMAP
07E0
1818
2004
4002
8001
8001
8001
8001
4002
2004
1818
07E0
ENDCHAR
STARTCHAR 3008
ENCODING 12296
SWIDTH 1020 0
DWIDTH 17 0
BBX 5 17 10 -2
BITMAP
08
08
08
10
10
20
40
40
80
80
40
40
20
10
10
08
08
ENDCHAR
STARTCHAR 3009
ENCODING 12297
SWIDTH 1020 0
DWIDTH 17 0
BBX 5 17 1 -2
BITMAP
80
80
80
40
40
20
10
10
08
08
10
10
20
40
40
80
80
ENDCHAR
STARTCHAR 300A
ENCODING 12298
SWIDTH 1020 0
DWIDTH 17 0
BBX 9 17 6 -2
BITMAP
0480
0480
0480
0900
0900
3200
6400
6400
8800
8800
6400
6400
3200
0900
0900
0480
0480
ENDCHAR
STARTCHAR 300B
ENCODING 12299
SWIDTH 1020 0
DWIDTH 17 0
BBX 9 17 1 -2
BITMAP
9000
9000
9000
4800
4800
2400
1300
1300
0980
0980
1300
1300
2400
4800
4800
9000
9000
ENDCHAR
STARTCHAR 300C
ENCODING 12300
SWIDTH 1020 0
DWIDTH 17 0
BBX 5 13 10 2
BITMAP
F8
80
80
80
80
80
80
80
80
80
80
80
80
ENDCHAR
STARTCHAR 300D
ENCODING 12301
SWIDTH 1020 0
DWIDTH 17 0
BBX 5 12 1 -2
BITMAP
08
08
08
08
08
08
08
08
08
08
08
F8
ENDCHAR
STARTCHAR 300E
ENCODING 12302
SWIDTH 1020 0
DWIDTH 17 0
BBX 7 13 8 2
BITMAP
FE
C2
C2
DE
D0
D0
D0
D0
D0
D0
D0
D0
F0
ENDCHAR
STARTCHAR 300F
ENCODING 12303
SWIDTH 1020 0
DWIDTH 17 0
BBX 6 12 1 -2
BITMAP
1C
14
14
14
14
14
14
14
14
F4
84
FC
ENDCHAR
STARTCHAR 3010
ENCODING 12304
SWIDTH 1020 0
DWIDTH 17 0
BBX 4 17 11 -2
BITMAP
F0
E0
E0
C0
C0
C0
C0
C0
C0
C0
C0
C0
C0
C0
C0
E0
F0
ENDCHAR
STARTCHAR 3011
ENCODING 12305
SWIDTH 1020 0
DWIDTH 17 0
BBX 4 17 1 -2
BITMAP
F0
70
70
30
30
30
30
30
30
30
30
30
30
30
30
70
F0
ENDCHAR
STARTCHAR 3012
ENCODING 12306
SWIDTH 1020 0
DWIDTH 17 0
BBX 15 16 0 -2
BITMAP
FFFE
FFFE
FFFE
0000
0000
FFFE
FFFE
0380
0380
0380
0380
0380
0380
0380
0380
0380
ENDCHAR
STARTCHAR 3013
ENCODING 12307
SWIDTH 1020 0
DWIDTH 17 0
BBX 12 7 2 3
BITMAP
FFF0
FFF0
0000
0000
0000
FFF0
FFF0
ENDCHAR
STARTCHAR 3014
ENCODING 12308
SWIDTH 1020 0
DWIDTH 17 0
BBX 4 17 11 -2
BITMAP
10
60
60
80
80
80
80
80
80
80
80
80
80
80
80
60
10
ENDCHAR
STARTCHAR 3015
ENCODING 12309
SWIDTH 1020 0
DWIDTH 17 0
BBX 4 17 1 -2
BITMAP
80
60
60
10
10
10
10
10
10
10
10
10
10
10
10
60
80
ENDCHAR
STARTCHAR 301C
ENCODING 12316
SWIDTH 1020 0
DWIDTH 17 0
BBX 16 6 0 3
BITMAP
3800
4400
8201
0182
00C4
0038
ENDCHAR
STARTCHAR 301D
ENCODING 12317
SWIDTH 1020 0
DWIDTH 17 0
BBX 6 4 10 10
BITMAP
6C
6C
48
90
ENDCHAR
STARTCHAR 301F
ENCODING 12319
SWIDTH 1020 0
DWIDTH 17 0
BBX 6 3 1 -1
BITMAP
6C
48
90
ENDCHAR
STARTCHAR 3041
ENCODING 12353
SWIDTH 1020 0
DWIDTH 17 0
BBX 10 11 3 -2
BITMAP
3000
1700
5C00
7000
1F80
3640
5640
8C40
B680
4100
0E00
ENDCHAR
STARTCHAR 3042
ENCODING 12354
SWIDTH 1020 0
DWIDTH 17 0
BBX 13 16 1 -1
BITMAP
0800
0400
0400
0430
45C0
3F00
0800
0FE0
1990
2988
4708
4408
8C08
9410
6060
0380
ENDCHAR
STARTCHAR 3043
ENCODING 12355
SWIDTH 1020 0
DWIDTH 17 0
BBX 10 8 3 -1
BITMAP
8000
4100
4080
8040
9040
5040
6000
3000
ENDCHAR
STARTCHAR 3044
ENCODING 12356
SWIDTH 1020 0
DWIDTH 17 0
BBX 14 12 1 0
BITMAP
8040
4020
4010
4008
8008
8004
881C
8804
5000
5000
3000
1000
ENDCHAR
STARTCHAR 3045
ENCODING 12357
SWIDTH 1020 0
DWIDTH 17 0
BBX 8 11 4 -2
BITMAP
20
1C
00
9E
61
01
01
01
02
02
1C
ENDCHAR
STARTCHAR 3046
ENCODING 12358
SWIDTH 1020 0
DWIDTH 17 0
BBX 10 17 3 -2
BITMAP
2000
1F00
1F00
0600
0C00
0000
8F00
F080
4040
0040
0040
0040
0080
0080
0100
0600
1C00
ENDCHAR
STARTCHAR 3047
ENCODING 12359
SWIDTH 1020 0
DWIDTH 17 0
BBX 10 9 3 -1
BITMAP
1E00
0000
4F00
3600
0C00
1000
2C00
4C00
87C0
ENDCHAR
STARTCHAR 3048
ENCODING 12360
SWIDTH 1020 0
DWIDTH 17 0
BBX 14 16 1 -1
BITMAP
0800
07C0
07C0
0180
0000
0180
47C0
3980
0300
0400
0800
1C00
2300
C300
8300
01FC
ENDCHAR
STARTCHAR 3049
ENCODING 12361
SWIDTH 1020 0
DWIDTH 17 0
BBX 10 10 3 -2
BITMAP
3080
1040
9E40
7000
1F80
3040
5040
9640
5180
3000
ENDCHAR
STARTCHAR 304A
ENCODING 12362
SWIDTH 1020 0
DWIDTH 17 0
BBX 14 16 1 -1
BITMAP
1800
0830
0830
0808
0804
8F04
7800
0800
09F0
0B08
0C08
1808
2808
CB10
39E0
0800
ENDCHAR
STARTCHAR 304B
ENCODING 12363
SWIDTH 1020 0
DWIDTH 17 0
BBX 15 16 1 -1
BITMAP
0800
0400
0400
0400
0800
0F30
B188
D184
1184
218E
2182
4300
4300
5300
8C00
8800
ENDCHAR
STARTCHAR 304C
ENCODING 12364
SWIDTH 1020 0
DWIDTH 17 0
BBX 15 16 1 -1
BITMAP
0804
0412
0412
040A
0808
0F30
B188
D184
1184
218E
2182
4300
4300
5300
8C00
8800
ENDCHAR
STARTCHAR 304D
ENCODING 12365
SWIDTH 1020 0
DWIDTH 17 0
BBX 11 16 2 -1
BITMAP
1800
0800
0800
0800
46C0
3F00
0600
8360
7F80
0080
0040
3FC0
4060
4000
3000
0FC0
ENDCHAR
STARTCHAR 304E
ENCODING 12366
SWIDTH 1020 0
DWIDTH 17 0
BBX 14 16 2 -1
BITMAP
1808
0824
0824
0814
46D0
3F00
0600
8360
7F80
0080
0040
3FC0
4060
4000
3000
0FC0
ENDCHAR
STARTCHAR 304F
ENCODING 12367
SWIDTH 1020 0
DWIDTH 17 0
BBX 8 17 4 -2
BITMAP
0C
02
02
02
0C
18
20
40
80
40
20
18
0C
02
02
01
01
ENDCHAR
STARTCHAR 3050
ENCODING 12368
SWIDTH 1020 0
DWIDTH 17 0
BBX 12 17 4 -2
BITMAP
0C00
0200
0200
0200
0C20
1890
2050
4040
8000
4000
2000
1800
0C00
0200
0200
0100
0100
ENDCHAR
STARTCHAR 3051
ENCODING 12369
SWIDTH 1020 0
DWIDTH 17 0
BBX 14 17 1 -2
BITMAP
0040
0020
0020
8020
4020
4024
4438
43E0
8020
8020
8020
9020
A020
4040
4040
0180
0300
ENDCHAR
STARTCHAR 3052
ENCODING 12370
SWIDTH 1020 0
DWIDTH 17 0
BBX 15 17 1 -2
BITMAP
0184
0052
0052
804A
4048
4040
4870
47C0
8040
8040
8040
9040
A040
4180
4180
0300
0400
ENDCHAR
STARTCHAR 3053
ENCODING 12371
SWIDTH 1020 0
DWIDTH 17 0
BBX 12 12 2 0
BITMAP
2000
1FC0
0300
0600
0000
0000
2000
4000
8000
8000
6020
1FF0
ENDCHAR
STARTCHAR 3054
ENCODING 12372
SWIDTH 1020 0
DWIDTH 17 0
BBX 14 15 2 0
BITMAP
0008
0024
0024
2014
1FD0
0300
0600
0000
0000
2000
4000
8000
8000
6020
1FF0
ENDCHAR
STARTCHAR 3055
ENCODING 12373
SWIDTH 1020 0
DWIDTH 17 0
BBX 12 15 2 -1
BITMAP
0E00
0E00
0600
0630
83C0
7F00
0080
0080
0040
3FA0
4060
4000
2000
1800
07C0
ENDCHAR
STARTCHAR 3056
ENCODING 12374
SWIDTH 1020 0
DWIDTH 17 0
BBX 14 16 2 -1
BITMAP
0008
0E24
0E24
0614
0650
83C0
7F00
0080
0080
0040
3FA0
4060
4000
2000
1800
07C0
ENDCHAR
STARTCHAR 3057
ENCODING 12375
SWIDTH 1020 0
DWIDTH 17 0
BBX 12 16 3 -1
BITMAP
8000
6000
6000
4000
4000
4000
4000
4000
4000
4000
4010
4020
4040
4080
2700
1C00
ENDCHAR
STARTCHAR 3058
ENCODING 12376
SWIDTH 1020 0
DWIDTH 17 0
BBX 12 16 3 -1
BITMAP
8000
6040
6040
4120
40A0
4080
4000
4000
4000
4000
4010
4020
4040
4080
2700
1C00
ENDCHAR
STARTCHAR 3059
ENCODING 12377
SWIDTH 1020 0
DWIDTH 17 0
BBX 16 17 0 -2
BITMAP
01C0
00C0
00C0
00C0
81FF
7EC0
00C0
07C0
08C0
08C0
09C0
06C0
00C0
0180
0180
0200
0400
ENDCHAR
STARTCHAR 305A
ENCODING 12378
SWIDTH 1020 0
DWIDTH 17 0
BBX 16 17 0 -2
BITMAP
01D2
00C9
00C9
00C9
81FF
7EC0
00C0
07C0
08C0
08C0
09C0
06C0
00C0
0180
0180
0200
0400
ENDCHAR
STARTCHAR 305B
ENCODING 12379
SWIDTH 1020 0
DWIDTH 17 0
BBX 16 15 0 -1
BITMAP
0030
0030
1010
0810
0810
083F
8BE0
7C20
0820
09A0
08C0
08C0
0800
0800
07F8
ENDCHAR
STARTCHAR 305C
ENCODING 12380
SWIDTH 1020 0
DWIDTH 17 0
BBX 16 16 0 -1
BITMAP
0002
00E9
00E9
1025
0824
0820
083F
8BE0
7C20
0820
09A0
08C0
08C0
0800
0800
07F8
ENDCHAR
STARTCHAR 305D
ENCODING 12381
SWIDTH 1020 0
DWIDTH 17 0
BBX 14 15 1 -1
BITMAP
13C0
13C0
0C60
0180
0300
0300
05FC
1F00
E300
8400
0400
0400
0400
0300
01C0
ENDCHAR
STARTCHAR 305E
ENCODING 12382
SWIDTH 1020 0
DWIDTH 17 0
BBX 15 15 1 -1
BITMAP
13C4
13C4
0C52
018A
0308
0300
05FC
1F00
E300
8400
0400
0400
0400
0300
01C0
ENDCHAR
STARTCHAR 305F
ENCODING 12383
SWIDTH 1020 0
DWIDTH 17 0
BBX 14 15 1 -1
BITMAP
1800
1800
0800
0800
8F00
7060
1018
1020
2000
2000
2300
4300
41C0
803C
8000
ENDCHAR
STARTCHAR 3060
ENCODING 12384
SWIDTH 1020 0
DWIDTH 17 0
BBX 15 16 1 -1
BITMAP
0004
1812
1812
080A
0808
8F00
7060
1018
1020
2000
2000
2300
4300
41C0
803C
8000
ENDCHAR
STARTCHAR 3061
ENCODING 12385
SWIDTH 1020 0
DWIDTH 17 0
BBX 13 16 2 -1
BITMAP
1800
0800
0800
0860
8F80
7800
0800
1000
10F0
2708
3808
2008
0010
0010
0060
0780
ENDCHAR
STARTCHAR 3062
ENCODING 12386
SWIDTH 1020 0
DWIDTH 17 0
BBX 14 16 2 -1
BITMAP
1800
0800
0800
08C8
8F24
7814
0810
1000
10F0
2708
3808
2008
0010
0010
0060
0780
ENDCHAR
STARTCHAR 3063
ENCODING 12387
SWIDTH 1020 0
DWIDTH 17 0
BBX 11 8 2 -2
BITMAP
07C0
9820
6020
0020
0040
0040
0380
0E00
ENDCHAR
STARTCHAR 3064
ENCODING 12388
SWIDTH 1020 0
DWIDTH 17 0
BBX 15 10 0 0
BITMAP
01F8
0604
9802
6002
0002
0004
0004
0008
0030
03C0
ENDCHAR
STARTCHAR 3065
ENCODING 12389
SWIDTH 1020 0
DWIDTH 17 0
BBX 16 15 0 0
BITMAP
0002
0009
0009
0005
0004
01F8
0604
9802
6002
0002
0004
0004
0008
0030
03C0
ENDCHAR
STARTCHAR 3066
ENCODING 12390
SWIDTH 1020 0
DWIDTH 17 0
BBX 15 12 0 0
BITMAP
00FE
87A0
78C0
0180
0200
0200
0400
0400
0400
0400
0200
01F0
ENDCHAR
STARTCHAR 3067
ENCODING 12391
SWIDTH 1020 0
DWIDTH 17 0
BBX 16 12 0 0
BITMAP
00FE
87A0
78C2
0189
0205
0204
0400
0400
0400
0400
0200
01F0
ENDCHAR
STARTCHAR 3068
ENCODING 12392
SWIDTH 1020 0
DWIDTH 17 0
BBX 12 15 2 -1
BITMAP
1800
1800
0800
0800
0800
0800
06E0
0700
1800
2000
4000
8000
8000
4030
3FC0
ENDCHAR
STARTCHAR 3069
ENCODING 12393
SWIDTH 1020 0
DWIDTH 17 0
BBX 13 16 2 -1
BITMAP
0010
1848
1848
0828
0820
0800
0800
06E0
0700
1800
2000
4000
8000
8000
4030
3FC0
ENDCHAR
STARTCHAR 306A
ENCODING 12394
SWIDTH 1020 0
DWIDTH 17 0
BBX 14 16 1 -1
BITMAP
1000
0800
0800
0860
9C18
700C
1020
2040
2040
4040
4020
8020
83F0
042C
0420
03C0
ENDCHAR
STARTCHAR 306B
ENCODING 12395
SWIDTH 1020 0
DWIDTH 17 0
BBX 14 13 1 -1
BITMAP
8000
4478
43A0
4000
4000
8000
8300
8400
9400
A400
A380
407C
4000
ENDCHAR
STARTCHAR 306C
ENCODING 12396
SWIDTH 1020 0
DWIDTH 17 0
BBX 15 14 1 0
BITMAP
0380
0380
2180
2180
23F0
2F08
3304
2404
5404
5804
8874
958C
918A
6070
ENDCHAR
STARTCHAR 306D
ENCODING 12397
SWIDTH 1020 0
DWIDTH 17 0
BBX 15 15 1 -1
BITMAP
3000
3000
1000
1070
1D88
B308
7408
1808
3008
3008
51E8
531C
B30A
91F0
1000
ENDCHAR
STARTCHAR 306E
ENCODING 12398
SWIDTH 1020 0
DWIDTH 17 0
BBX 14 12 1 0
BITMAP
07E0
1B10
2308
4304
4404
8404
8804
8808
9008
A010
4060
0380
ENDCHAR
STARTCHAR 306F
ENCODING 12399
SWIDTH 1020 0
DWIDTH 17 0
BBX 14 15 1 -1
BITMAP
0060
0060
8020
4020
483C
47E0
4020
8020
8020
8020
9020
A3E0
A438
4424
43C0
ENDCHAR
STARTCHAR 3070
ENCODING 12400
SWIDTH 1020 0
DWIDTH 17 0
BBX 15 16 1 -1
BITMAP
0004
01D2
01D2
804A
4048
4870
47C0
4040
8040
8040
8040
8040
A7C0
A870
4848
4780
ENDCHAR
STARTCHAR 3071
ENCODING 12401
SWIDTH 1020 0
DWIDTH 17 0
BBX 15 16 1 -1
BITMAP
000C
01D2
01D2
8052
404C
4870
47C0
4040
8040
8040
8040
8040
A7C0
A870
4848
4780
ENDCHAR
STARTCHAR 3072
ENCODING 12402
SWIDTH 1020 0
DWIDTH 17 0
BBX 15 13 1 -1
BITMAP
9C20
6820
1020
2030
2028
4028
4024
4022
4040
4040
4180
2300
1C00
ENDCHAR
STARTCHAR 3073
ENCODING 12403
SWIDTH 1020 0
DWIDTH 17 0
BBX 15 16 1 -1
BITMAP
0004
0012
0012
9C2A
6828
1020
2030
2028
4028
4024
4022
4040
4040
4180
2300
1C00
ENDCHAR
STARTCHAR 3074
ENCODING 12404
SWIDTH 1020 0
DWIDTH 17 0
BBX 15 16 1 -1
BITMAP
000C
0012
0012
9C32
682C
1020
2030
2028
4028
4024
4022
4040
4040
4180
2300
1C00
ENDCHAR
STARTCHAR 3075
ENCODING 12405
SWIDTH 1020 0
DWIDTH 17 0
BBX 15 15 0 -1
BITMAP
0200
0200
0180
00E0
0380
0400
0400
0200
01F0
078C
08C2
10C2
A4C0
4380
4000
ENDCHAR
STARTCHAR 3076
ENCODING 12406
SWIDTH 1020 0
DWIDTH 17 0
BBX 16 15 0 -1
BITMAP
0200
0200
0180
00E2
0389
0405
0404
0200
01F0
078C
08C2
10C2
A4C0
4380
4000
ENDCHAR
STARTCHAR 3077
ENCODING 12407
SWIDTH 1020 0
DWIDTH 17 0
BBX 16 15 0 -1
BITMAP
0200
0200
0180
00E6
0389
0409
0406
0200
01F0
078C
08C2
10C2
A4C0
4380
4000
ENDCHAR
STARTCHAR 3078
ENCODING 12408
SWIDTH 1020 0
DWIDTH 17 0
BBX 16 8 0 2
BITMAP
0600
0980
08C0
1020
9010
6008
0004
0003
ENDCHAR
STARTCHAR 3079
ENCODING 12409
SWIDTH 1020 0
DWIDTH 17 0
BBX 16 12 0 2
BITMAP
0008
0008
0024
0014
0610
0980
08C0
1020
9010
6008
0004
0003
ENDCHAR
STARTCHAR 307A
ENCODING 12410
SWIDTH 1020 0
DWIDTH 17 0
BBX 16 12 0 2
BITMAP
0018
0018
0024
0024
0618
0980
08C0
1020
9010
6008
0004
0003
ENDCHAR
STARTCHAR 307B
ENCODING 12411
SWIDTH 1020 0
DWIDTH 17 0
BBX 14 15 1 -1
BITMAP
0338
0338
81E0
4020
4020
4020
483C
87E0
8020
8020
9020
A3E0
A438
4424
43C0
ENDCHAR
STARTCHAR 307C
ENCODING 12412
SWIDTH 1020 0
DWIDTH 17 0
BBX 15 16 1 -1
BITMAP
0004
0332
0332
81EA
4028
4020
4020
483C
87E0
8020
8020
9020
A3E0
A438
4426
43C0
ENDCHAR
STARTCHAR 307D
ENCODING 12413
SWIDTH 1020 0
DWIDTH 17 0
BBX 15 16 1 -1
BITMAP
000C
0332
0332
81F2
402C
4020
4020
483C
87E0
8020
8020
9020
A3E0
A438
4426
43C0
ENDCHAR
STARTCHAR 307E
ENCODING 12414
SWIDTH 1020 0
DWIDTH 17 0
BBX 12 16 1 -1
BITMAP
0700
0300
0300
0300
83E0
7F00
0300
0320
23C0
1F00
0300
0300
1F80
2360
2310
1C00
ENDCHAR
STARTCHAR 307F
ENCODING 12415
SWIDTH 1020 0
DWIDTH 17 0
BBX 14 15 1 -1
BITMAP
2780
2780
1980
0300
0300
0420
0410
0810
3F90
5070
902C
A040
C040
0180
0300
ENDCHAR
STARTCHAR 3080
ENCODING 12416
SWIDTH 1020 0
DWIDTH 17 0
BBX 15 16 1 -1
BITMAP
1800
0800
0800
0800
8F18
7804
0802
1002
1000
7000
9000
9000
B008
5010
1060
0F80
ENDCHAR
STARTCHAR 3081
ENCODING 12417
SWIDTH 1020 0
DWIDTH 17 0
BBX 14 15 1 0
BITMAP
0300
0180
0180
4180
2180
27F0
2B08
3304
5304
5404
8C04
8808
9408
6030
01C0
ENDCHAR
STARTCHAR 3082
ENCODING 12418
SWIDTH 1020 0
DWIDTH 17 0
BBX 12 16 2 -1
BITMAP
1800
0800
0800
0800
4800
3800
2800
5680
9040
9020
5020
3E10
1010
1010
1020
0FC0
ENDCHAR
STARTCHAR 3083
ENCODING 12419
SWIDTH 1020 0
DWIDTH 17 0
BBX 11 11 2 -1
BITMAP
0600
2300
5F00
43C0
2620
1820
B640
4B80
0800
0600
0600
ENDCHAR
STARTCHAR 3084
ENCODING 12420
SWIDTH 1020 0
DWIDTH 17 0
BBX 15 15 0 -1
BITMAP
00C0
00C0
0C20
13E0
103C
08C2
0B82
0C02
94C4
6238
0200
0180
0180
00C0
00C0
ENDCHAR
STARTCHAR 3085
ENCODING 12421
SWIDTH 1020 0
DWIDTH 17 0
BBX 11 12 3 -2
BITMAP
0C00
9600
5F80
5640
7620
9620
9620
9640
4F80
0600
0C00
1000
ENDCHAR
STARTCHAR 3086
ENCODING 12422
SWIDTH 1020 0
DWIDTH 17 0
BBX 14 16 1 -2
BITMAP
0380
0380
0440
C470
47C8
4444
4C44
5444
9444
A344
A348
41F0
4180
0180
0300
0400
ENDCHAR
STARTCHAR 3087
ENCODING 12423
SWIDTH 1020 0
DWIDTH 17 0
BBX 10 11 3 -1
BITMAP
1C00
0C00
0DC0
0E00
0C00
0C00
0C00
7C00
8F00
8CC0
7000
ENDCHAR
STARTCHAR 3088
ENCODING 12424
SWIDTH 1020 0
DWIDTH 17 0
BBX 12 15 2 -1
BITMAP
0E00
0E00
0600
0600
0660
0780
0600
0600
0600
0600
0600
7F00
86C0
8630
7800
ENDCHAR
STARTCHAR 3089
ENCODING 12425
SWIDTH 1020 0
DWIDTH 17 0
BBX 11 16 3 -1
BITMAP
2000
1C00
1C00
0700
0C00
2000
4000
4000
8780
9C40
A020
C020
8020
0040
0180
1E00
ENDCHAR
STARTCHAR 308A
ENCODING 12426
SWIDTH 1020 0
DWIDTH 17 0
BBX 10 16 3 -2
BITMAP
6000
6000
2000
2F00
5080
5040
A040
A040
A040
C040
4040
4080
0080
0100
0E00
3000
ENDCHAR
STARTCHAR 308B
ENCODING 12427
SWIDTH 1020 0
DWIDTH 17 0
BBX 12 15 2 -1
BITMAP
23C0
23C0
1E40
0080
0300
0600
0800
17C0
3820
4010
C010
8E10
1320
10C0
0F00
ENDCHAR
STARTCHAR 308C
ENCODING 12428
SWIDTH 1020 0
DWIDTH 17 0
BBX 15 16 1 -1
BITMAP
3000
1000
1000
1000
19E0
1B10
B410
5810
1010
3010
3020
5020
D022
B024
1018
1000
ENDCHAR
STARTCHAR 308D
ENCODING 12429
SWIDTH 1020 0
DWIDTH 17 0
BBX 12 15 2 -1
BITMAP
2780
2780
1880
0300
0600
0800
1000
17E0
3810
6010
8010
8010
0020
00C0
0700
ENDCHAR
STARTCHAR 308E
ENCODING 12430
SWIDTH 1020 0
DWIDTH 17 0
BBX 11 10 2 -2
BITMAP
3000
1000
13C0
5620
7820
1020
3020
5040
B380
1000
ENDCHAR
STARTCHAR 308F
ENCODING 12431
SWIDTH 1020 0
DWIDTH 17 0
BBX 14 15 1 -1
BITMAP
1800
1800
0800
0800
0C00
19F0
9708
7804
1004
3004
5004
5008
9010
B060
1380
ENDCHAR
STARTCHAR 3090
ENCODING 12432
SWIDTH 1020 0
DWIDTH 17 0
BBX 14 15 1 -1
BITMAP
1380
1380
0DC0
0180
0300
0300
07F0
1C08
2404
4804
4804
9384
9448
6430
03C0
ENDCHAR
STARTCHAR 3091
ENCODING 12433
SWIDTH 1020 0
DWIDTH 17 0
BBX 14 15 1 -1
BITMAP
13C0
13C0
0D80
0300
0400
0FE0
1810
2010
0F20
0BC0
0F00
1070
2988
C704
840C
ENDCHAR
STARTCHAR 3092
ENCODING 12434
SWIDTH 1020 0
DWIDTH 17 0
BBX 13 16 2 -1
BITMAP
0E00
0600
0600
87C0
7E00
0800
1010
2E08
7318
43E0
0700
0B00
1300
2000
2040
1FE0
ENDCHAR
STARTCHAR 3093
ENCODING 12435
SWIDTH 1020 0
DWIDTH 17 0
BBX 14 15 1 -1
BITMAP
0700
0700
0300
0400
0400
0800
0800
1000
1C04
3304
2308
4308
4310
81E0
8000
ENDCHAR
STARTCHAR 309B
ENCODING 12443
SWIDTH 1020 0
DWIDTH 17 0
BBX 5 6 0 9
BITMAP
20
90
90
48
28
20
ENDCHAR
STARTCHAR 309C
ENCODING 12444
SWIDTH 1020 0
DWIDTH 17 0
BBX 5 6 0 9
BITMAP
70
88
88
88
88
70
ENDCHAR
STARTCHAR 309D
ENCODING 12445
SWIDTH 1020 0
DWIDTH 17 0
BBX 8 10 4 1
BITMAP
80
80
40
40
20
18
0C
02
1D
61
ENDCHAR
STARTCHAR 309E
ENCODING 12446
SWIDTH 1020 0
DWIDTH 17 0
BBX 10 13 4 1
BITMAP
0080
0080
0040
8240
8100
4100
4000
2000
1800
0C00
0200
1D00
6100
ENDCHAR
STARTCHAR 30A1
ENCODING 12449
SWIDTH 1020 0
DWIDTH 17 0
BBX 10 8 3 -1
BITMAP
8FC0
7080
0100
0E00
0C00
0C00
1000
6000
ENDCHAR
STARTCHAR 30A2
ENCODING 12450
SWIDTH 1020 0
DWIDTH 17 0
BBX 12 13 2 -1
BITMAP
0020
87F0
7820
0040
0880
0700
0600
0600
0600
0800
0800
1000
2000
ENDCHAR
STARTCHAR 30A3
ENCODING 12451
SWIDTH 1020 0
DWIDTH 17 0
BBX 8 10 3 -2
BITMAP
06
07
0C
1C
2C
4C
8C
0C
0C
0C
ENDCHAR
STARTCHAR 30A4
ENCODING 12452
SWIDTH 1020 0
DWIDTH 17 0
BBX 10 15 2 -1
BITMAP
0080
0080
00C0
0300
0300
0600
0800
1600
2600
4600
8600
0600
0600
0600
0600
ENDCHAR
STARTCHAR 30A5
ENCODING 12453
SWIDTH 1020 0
DWIDTH 17 0
BBX 9 10 4 -2
BITMAP
3800
1800
9F80
E080
8080
8100
0100
0200
0C00
3800
ENDCHAR
STARTCHAR 30A6
ENCODING 12454
SWIDTH 1020 0
DWIDTH 17 0
BBX 12 13 2 -1
BITMAP
0E00
0600
0620
C7F0
7820
4020
4040
4040
0080
0080
0300
0600
1800
ENDCHAR
STARTCHAR 30A7
ENCODING 12455
SWIDTH 1020 0
DWIDTH 17 0
BBX 10 7 3 -1
BITMAP
4F80
3C00
0C00
0C00
0C00
8FC0
7000
ENDCHAR
STARTCHAR 30A8
ENCODING 12456
SWIDTH 1020 0
DWIDTH 17 0
BBX 14 9 1 1
BITMAP
21F0
1F00
0300
0300
0300
0300
0300
87F8
7804
ENDCHAR
STARTCHAR 30A9
ENCODING 12457
SWIDTH 1020 0
DWIDTH 17 0
BBX 10 10 3 -2
BITMAP
0E00
0600
87C0
7E00
1600
2600
4600
9600
0E00
0600
ENDCHAR
STARTCHAR 30AA
ENCODING 12458
SWIDTH 1020 0
DWIDTH 17 0
BBX 13 15 1 -1
BITMAP
0380
0380
0180
0180
0180
87F8
7B80
0580
0580
0980
1180
2180
4580
8380
0180
ENDCHAR
STARTCHAR 30AB
ENCODING 12459
SWIDTH 1020 0
DWIDTH 17 0
BBX 11 14 2 0
BITMAP
0E00
0E00
0600
0600
87E0
7820
0820
1020
1040
2040
2040
4680
4380
8300
ENDCHAR
STARTCHAR 30AC
ENCODING 12460
SWIDTH 1020 0
DWIDTH 17 0
BBX 14 15 2 0
BITMAP
0008
0E24
0E24
0614
0610
87E0
7820
0820
1020
1040
2040
2040
4680
4380
8300
ENDCHAR
STARTCHAR 30AD
ENCODING 12461
SWIDTH 1020 0
DWIDTH 17 0
BBX 13 15 1 -1
BITMAP
0C00
0C00
0400
0400
25E0
1F00
0400
0400
0378
8F80
7300
0300
0300
0300
0300
ENDCHAR
STARTCHAR 30AE
ENCODING 12462
SWIDTH 1020 0
DWIDTH 17 0
BBX 15 16 1 -1
BITMAP
0004
0C12
0C12
040A
0408
25E0
1F00
0400
0400
0378
8F80
7300
0300
0300
0300
0300
ENDCHAR
STARTCHAR 30AF
ENCODING 12463
SWIDTH 1020 0
DWIDTH 17 0
BBX 11 15 2 -1
BITMAP
0800
0800
0600
0640
0FE0
1040
2080
4080
8300
0300
0600
0800
1000
2000
C000
ENDCHAR
STARTCHAR 30B0
ENCODING 12464
SWIDTH 1020 0
DWIDTH 17 0
BBX 14 16 2 -1
BITMAP
0008
0824
0824
0614
0650
0FC0
1040
2080
4080
8300
0300
0600
0800
1000
2000
C000
ENDCHAR
STARTCHAR 30B1
ENCODING 12465
SWIDTH 1020 0
DWIDTH 17 0
BBX 13 15 1 -1
BITMAP
1800
1800
0800
0800
1000
11F8
3F00
2180
4180
8300
0300
0400
0400
0800
1000
ENDCHAR
STARTCHAR 30B2
ENCODING 12466
SWIDTH 1020 0
DWIDTH 17 0
BBX 15 16 1 -1
BITMAP
0004
1812
1812
080A
0808
1000
11F8
3F00
2180
4180
8300
0300
0400
0400
0800
1000
ENDCHAR
STARTCHAR 30B3
ENCODING 12467
SWIDTH 1020 0
DWIDTH 17 0
BBX 11 10 3 1
BITMAP
0040
87E0
7C40
0040
0040
0040
0040
0040
8FC0
7000
ENDCHAR
STARTCHAR 30B4
ENCODING 12468
SWIDTH 1020 0
DWIDTH 17 0
BBX 13 14 3 1
BITMAP
0010
0048
0048
0028
0020
87C0
7C40
0040
0040
0040
0040
0040
8FC0
7000
ENDCHAR
STARTCHAR 30B5
ENCODING 12469
SWIDTH 1020 0
DWIDTH 17 0
BBX 14 13 1 -1
BITMAP
01C0
1840
0840
0840
8BFC
7C40
0840
0980
0180
0180
0300
0300
0400
ENDCHAR
STARTCHAR 30B6
ENCODING 12470
SWIDTH 1020 0
DWIDTH 17 0
BBX 15 16 1 -1
BITMAP
0004
0012
0012
01CA
1848
0840
0840
8BFC
7C40
0840
0980
0180
0180
0300
0300
0400
ENDCHAR
STARTCHAR 30B7
ENCODING 12471
SWIDTH 1020 0
DWIDTH 17 0
BBX 12 12 3 0
BITMAP
3000
0C00
0000
0010
C020
2040
0080
0100
0600
0C00
B000
C000
ENDCHAR
STARTCHAR 30B8
ENCODING 12472
SWIDTH 1020 0
DWIDTH 17 0
BBX 13 15 3 0
BITMAP
0010
0048
0048
3028
0C20
0000
0010
C020
2040
0080
0100
0600
0C00
B000
C000
ENDCHAR
STARTCHAR 30B9
ENCODING 12473
SWIDTH 1020 0
DWIDTH 17 0
BBX 12 11 2 0
BITMAP
47C0
3880
0080
0300
0300
0680
0680
0840
1020
2010
C010
ENDCHAR
STARTCHAR 30BA
ENCODING 12474
SWIDTH 1020 0
DWIDTH 17 0
BBX 14 15 2 0
BITMAP
0008
0024
0024
0014
47D0
3880
0080
0300
0300
0680
0680
0840
1020
2010
C010
ENDCHAR
STARTCHAR 30BB
ENCODING 12475
SWIDTH 1020 0
DWIDTH 17 0
BBX 13 12 1 0
BITMAP
0C00
0400
0400
0438
05D0
8F10
7420
0440
0400
0400
0400
03F8
ENDCHAR
STARTCHAR 30BC
ENCODING 12476
SWIDTH 1020 0
DWIDTH 17 0
BBX 15 15 1 0
BITMAP
0004
0012
0012
0C0A
0408
0400
0438
05D0
8F10
7420
0440
0400
0400
0400
03F8
ENDCHAR
STARTCHAR 30BD
ENCODING 12477
SWIDTH 1020 0
DWIDTH 17 0
BBX 10 13 3 -1
BITMAP
00C0
8040
4040
2080
2080
0080
0100
0100
0600
0600
0C00
1000
2000
ENDCHAR
STARTCHAR 30BE
ENCODING 12478
SWIDTH 1020 0
DWIDTH 17 0
BBX 14 16 2 -1
BITMAP
0008
0024
0024
0014
80D0
4040
2080
2080
0080
0300
0300
0600
0600
0800
1000
2000
ENDCHAR
STARTCHAR 30BF
ENCODING 12479
SWIDTH 1020 0
DWIDTH 17 0
BBX 11 13 2 -1
BITMAP
1800
0840
0FE0
1040
1040
2880
4680
8300
0300
0600
0800
1000
6000
ENDCHAR
STARTCHAR 30C0
ENCODING 12480
SWIDTH 1020 0
DWIDTH 17 0
BBX 14 16 2 -1
BITMAP
0008
0024
0024
1814
0850
0FC0
1040
1040
2880
4680
8300
0300
0600
0800
1000
6000
ENDCHAR
STARTCHAR 30C1
ENCODING 12481
SWIDTH 1020 0
DWIDTH 17 0
BBX 13 13 1 -1
BITMAP
01E0
0700
3B00
0300
83F8
7F00
0300
0300
0300
0400
0400
0800
1000
ENDCHAR
STARTCHAR 30C2
ENCODING 12482
SWIDTH 1020 0
DWIDTH 17 0
BBX 15 16 1 -1
BITMAP
0004
0012
0012
01CA
0708
3B00
0300
83F8
7F00
0300
0300
0300
0400
0400
0800
1000
ENDCHAR
STARTCHAR 30C3
ENCODING 12483
SWIDTH 1020 0
DWIDTH 17 0
BBX 10 9 3 -2
BITMAP
10C0
8C40
4C40
4080
0080
0100
0100
0600
0C00
ENDCHAR
STARTCHAR 30C4
ENCODING 12484
SWIDTH 1020 0
DWIDTH 17 0
BBX 12 12 2 -1
BITMAP
0830
8610
4620
4020
0040
0040
0080
0080
0300
0600
0800
1000
ENDCHAR
STARTCHAR 30C5
ENCODING 12485
SWIDTH 1020 0
DWIDTH 17 0
BBX 15 16 1 -1
BITMAP
0004
0012
0012
000A
0808
8460
4420
4020
0040
0040
0180
0180
0300
0400
0800
1000
ENDCHAR
STARTCHAR 30C6
ENCODING 12486
SWIDTH 1020 0
DWIDTH 17 0
BBX 13 13 1 -1
BITMAP
11E0
0F00
0000
0000
87F8
7B00
0300
0300
0300
0400
0400
0800
1000
ENDCHAR
STARTCHAR 30C7
ENCODING 12487
SWIDTH 1020 0
DWIDTH 17 0
BBX 15 16 1 -1
BITMAP
0004
0012
0012
11CA
0F08
0000
0000
87F8
7B00
0300
0300
0300
0400
0400
0800
1000
ENDCHAR
STARTCHAR 30C8
ENCODING 12488
SWIDTH 1020 0
DWIDTH 17 0
BBX 8 15 5 -1
BITMAP
C0
C0
40
40
40
40
78
44
42
41
40
40
40
40
40
ENDCHAR
STARTCHAR 30C9
ENCODING 12489
SWIDTH 1020 0
DWIDTH 17 0
BBX 10 15 5 -1
BITMAP
C080
C080
4240
4140
4100
4000
7800
4400
4200
4100
4000
4000
4000
4000
4000
ENDCHAR
STARTCHAR 30CA
ENCODING 12490
SWIDTH 1020 0
DWIDTH 17 0
BBX 13 15 1 -1
BITMAP
0700
0700
0300
0300
0300
83F8
7F00
0300
0300
0400
0400
0400
0800
0800
1000
ENDCHAR
STARTCHAR 30CB
ENCODING 12491
SWIDTH 1020 0
DWIDTH 17 0
BBX 14 8 1 2
BITMAP
11E0
0F00
0000
0000
0000
0000
83FC
7C00
ENDCHAR
STARTCHAR 30CC
ENCODING 12492
SWIDTH 1020 0
DWIDTH 17 0
BBX 11 11 2 0
BITMAP
43C0
3E40
0080
0080
1B00
0700
0680
0840
1020
2020
C000
ENDCHAR
STARTCHAR 30CD
ENCODING 12493
SWIDTH 1020 0
DWIDTH 17 0
BBX 13 16 1 -1
BITMAP
0400
0300
0300
0180
0000
23C0
1C60
0180
0340
0720
0B10
1308
2308
C300
0300
0300
ENDCHAR
STARTCHAR 30CE
ENCODING 12494
SWIDTH 1020 0
DWIDTH 17 0
BBX 9 13 2 -1
BITMAP
0380
0080
0080
0080
0300
0300
0600
0600
0800
1000
2000
4000
8000
ENDCHAR
STARTCHAR 30CF
ENCODING 12495
SWIDTH 1020 0
DWIDTH 17 0
BBX 14 10 1 1
BITMAP
0040
1020
0810
0808
1008
1004
2004
2004
4000
8000
ENDCHAR
STARTCHAR 30D0
ENCODING 12496
SWIDTH 1020 0
DWIDTH 17 0
BBX 15 14 1 1
BITMAP
0004
0012
0012
000A
0048
1020
0810
0808
1008
1004
2004
2004
4000
8000
ENDCHAR
STARTCHAR 30D1
ENCODING 12497
SWIDTH 1020 0
DWIDTH 17 0
BBX 15 14 1 1
BITMAP
000C
0012
0012
0012
004C
1020
0810
0808
1008
1004
2004
2004
4000
8000
ENDCHAR
STARTCHAR 30D2
ENCODING 12498
SWIDTH 1020 0
DWIDTH 17 0
BBX 10 10 3 1
BITMAP
C000
4000
4180
4E00
7000
4000
4000
4000
4000
3FC0
ENDCHAR
STARTCHAR 30D3
ENCODING 12499
SWIDTH 1020 0
DWIDTH 17 0
BBX 13 14 3 1
BITMAP
0010
0048
0048
0028
C020
4000
4180
4E00
7000
4000
4000
4000
4000
3FC0
ENDCHAR
STARTCHAR 30D4
ENCODING 12500
SWIDTH 1020 0
DWIDTH 17 0
BBX 13 14 3 1
BITMAP
0030
0048
0048
0048
C030
4000
4180
4E00
7000
4000
4000
4000
4000
3FC0
ENDCHAR
STARTCHAR 30D5
ENCODING 12501
SWIDTH 1020 0
DWIDTH 17 0
BBX 11 12 2 -1
BITMAP
00E0
8F20
7020
0040
0040
0080
0080
0300
0600
0800
1000
2000
ENDCHAR
STARTCHAR 30D6
ENCODING 12502
SWIDTH 1020 0
DWIDTH 17 0
BBX 15 16 1 -1
BITMAP
0004
0012
0012
000A
01E8
8F20
7020
0040
0040
0180
0180
0300
0400
0800
1000
2000
ENDCHAR
STARTCHAR 30D7
ENCODING 12503
SWIDTH 1020 0
DWIDTH 17 0
BBX 15 16 1 -1
BITMAP
000C
0012
0012
0012
01EC
8F20
7020
0040
0040
0180
0180
0300
0400
0800
1000
2000
ENDCHAR
STARTCHAR 30D8
ENCODING 12504
SWIDTH 1020 0
DWIDTH 17 0
BBX 14 7 1 3
BITMAP
0700
0980
1040
2020
A010
4008
0004
ENDCHAR
STARTCHAR 30D9
ENCODING 12505
SWIDTH 1020 0
DWIDTH 17 0
BBX 14 12 1 3
BITMAP
0010
0048
0048
0028
0020
0700
0980
1040
2020
A010
4008
0004
ENDCHAR
STARTCHAR 30DA
ENCODING 12506
SWIDTH 1020 0
DWIDTH 17 0
BBX 14 12 1 3
BITMAP
0030
0048
0048
0048
0030
0700
0980
1040
2020
A010
4008
0004
ENDCHAR
STARTCHAR 30DB
ENCODING 12507
SWIDTH 1020 0
DWIDTH 17 0
BBX 12 15 2 -1
BITMAP
0800
0800
0600
0600
0600
87F0
7E00
0600
0640
2620
2620
2610
4610
8E00
0600
ENDCHAR
STARTCHAR 30DC
ENCODING 12508
SWIDTH 1020 0
DWIDTH 17 0
BBX 14 16 2 -1
BITMAP
0008
0824
0824
0614
0610
0600
87F0
7E00
0600
0640
2620
2620
2610
4610
8E00
0600
ENDCHAR
STARTCHAR 30DD
ENCODING 12509
SWIDTH 1020 0
DWIDTH 17 0
BBX 14 16 2 -1
BITMAP
0018
0824
0824
0624
0618
0600
87F0
7E00
0600
0640
2620
2620
2610
4610
8E00
0600
ENDCHAR
STARTCHAR 30DE
ENCODING 12510
SWIDTH 1020 0
DWIDTH 17 0
BBX 13 9 1 1
BITMAP
0070
8F98
7020
0020
0040
0D80
0300
0180
0040
ENDCHAR
STARTCHAR 30DF
ENCODING 12511
SWIDTH 1020 0
DWIDTH 17 0
BBX 8 12 4 0
BITMAP
60
1C
02
00
60
1C
00
00
E0
1C
02
01
ENDCHAR
STARTCHAR 30E0
ENCODING 12512
SWIDTH 1020 0
DWIDTH 17 0
BBX 14 12 1 0
BITMAP
0400
0300
0300
0400
0400
0800
0840
0820
1070
1788
F804
4000
ENDCHAR
STARTCHAR 30E1
ENCODING 12513
SWIDTH 1020 0
DWIDTH 17 0
BBX 10 13 2 -1
BITMAP
0380
0080
0080
3300
0B00
0600
0B00
0880
1040
1040
2000
4000
8000
ENDCHAR
STARTCHAR 30E2
ENCODING 12514
SWIDTH 1020 0
DWIDTH 17 0
BBX 13 10 1 1
BITMAP
23E0
1C00
0400
0400
87F8
7C00
0400
0400
0400
03F0
ENDCHAR
STARTCHAR 30E3
ENCODING 12515
SWIDTH 1020 0
DWIDTH 17 0
BBX 10 10 3 -2
BITMAP
3000
1000
11C0
9E40
7080
1100
0C00
0C00
0C00
0C00
ENDCHAR
STARTCHAR 30E4
ENCODING 12516
SWIDTH 1020 0
DWIDTH 17 0
BBX 13 15 1 -1
BITMAP
1800
1800
0800
0800
0830
07D8
9C10
E420
0440
0400
0300
0300
0300
0300
0300
ENDCHAR
STARTCHAR 30E5
ENCODING 12517
SWIDTH 1020 0
DWIDTH 17 0
BBX 10 7 3 0
BITMAP
4700
3D00
0100
0600
0600
8FC0
7000
ENDCHAR
STARTCHAR 30E6
ENCODING 12518
SWIDTH 1020 0
DWIDTH 17 0
BBX 14 9 1 1
BITMAP
23C0
1C60
0040
0040
0180
0180
0180
8FFC
7000
ENDCHAR
STARTCHAR 30E7
ENCODING 12519
SWIDTH 1020 0
DWIDTH 17 0
BBX 9 8 4 -1
BITMAP
9F00
6180
0100
5F00
6100
0100
9F00
6100
ENDCHAR
STARTCHAR 30E8
ENCODING 12520
SWIDTH 1020 0
DWIDTH 17 0
BBX 10 10 3 1
BITMAP
8F80
70C0
0080
0080
4F80
3080
0080
0080
8F80
7080
ENDCHAR
STARTCHAR 30E9
ENCODING 12521
SWIDTH 1020 0
DWIDTH 17 0
BBX 11 13 3 -1
BITMAP
4780
3C00
0000
0000
87E0
7C40
0040
0080
0080
0100
0600
0C00
1000
ENDCHAR
STARTCHAR 30EA
ENCODING 12522
SWIDTH 1020 0
DWIDTH 17 0
BBX 8 15 4 -1
BITMAP
03
03
C1
41
41
41
41
41
41
41
01
02
02
0C
18
ENDCHAR
STARTCHAR 30EB
ENCODING 12523
SWIDTH 1020 0
DWIDTH 17 0
BBX 15 11 1 0
BITMAP
0380
1180
0980
0980
0980
0982
1184
1188
21B0
41C0
8180
ENDCHAR
STARTCHAR 30EC
ENCODING 12524
SWIDTH 1020 0
DWIDTH 17 0
BBX 12 13 3 -1
BITMAP
C000
4000
4000
4000
4000
4010
4020
4040
4080
4100
4E00
7000
4000
ENDCHAR
STARTCHAR 30ED
ENCODING 12525
SWIDTH 1020 0
DWIDTH 17 0
BBX 11 10 3 0
BITMAP
0FC0
F060
4040
4040
4040
4080
4080
4080
7FC0
4000
ENDCHAR
STARTCHAR 30EE
ENCODING 12526
SWIDTH 1020 0
DWIDTH 17 0
BBX 9 9 3 -2
BITMAP
CF80
7080
4080
4100
4100
0600
0600
0C00
1000
ENDCHAR
STARTCHAR 30EF
ENCODING 12527
SWIDTH 1020 0
DWIDTH 17 0
BBX 12 12 2 -1
BITMAP
83E0
7E30
4020
4020
4040
4040
0040
0080
0080
0300
0600
0800
ENDCHAR
STARTCHAR 30F0
ENCODING 12528
SWIDTH 1020 0
DWIDTH 17 0
BBX 13 15 1 -1
BITMAP
0700
0700
0300
0300
43E0
3F00
2300
1300
97F8
7B00
0300
0300
0300
0300
0300
ENDCHAR
STARTCHAR 30F1
ENCODING 12529
SWIDTH 1020 0
DWIDTH 17 0
BBX 14 9 1 1
BITMAP
21F0
1F20
0040
0180
0700
0300
0300
87FC
7800
ENDCHAR
STARTCHAR 30F2
ENCODING 12530
SWIDTH 1020 0
DWIDTH 17 0
BBX 11 12 2 -1
BITMAP
8FE0
7040
0040
0040
4FC0
7080
0080
0300
0300
0600
0800
1000
ENDCHAR
STARTCHAR 30F3
ENCODING 12531
SWIDTH 1020 0
DWIDTH 17 0
BBX 12 11 3 0
BITMAP
C000
2010
1020
0020
0040
0080
0100
0600
0C00
9000
6000
ENDCHAR
STARTCHAR 30F4
ENCODING 12532
SWIDTH 1020 0
DWIDTH 17 0
BBX 15 16 1 -1
BITMAP
0004
0012
0012
0C0A
0408
0420
C7F0
7820
4020
4040
4040
0180
0180
0300
0400
1800
ENDCHAR
STARTCHAR 30F5
ENCODING 12533
SWIDTH 1020 0
DWIDTH 17 0
BBX 10 10 3 -2
BITMAP
1C00
0C00
4FC0
3C40
0C40
1040
1080
2680
4180
8100
ENDCHAR
STARTCHAR 30F6
ENCODING 12534
SWIDTH 1020 0
DWIDTH 17 0
BBX 11 11 2 -2
BITMAP
3000
1000
1000
27E0
3B00
4300
8300
0600
0600
0800
1000
ENDCHAR
STARTCHAR 30FB
ENCODING 12539
SWIDTH 1020 0
DWIDTH 17 0
BBX 3 2 7 5
BITMAP
E0
E0
ENDCHAR
STARTCHAR 30FC
ENCODING 12540
SWIDTH 1020 0
DWIDTH 17 0
BBX 14 3 1 4
BITMAP
807C
7F80
1000
ENDCHAR
STARTCHAR 30FD
ENCODING 12541
SWIDTH 1020 0
DWIDTH 17 0
BBX 7 8 5 2
BITMAP
80
40
30
18
04
04
02
02
ENDCHAR
STARTCHAR 30FE
ENCODING 12542
SWIDTH 1020 0
DWIDTH 17 0
BBX 9 12 4 2
BITMAP
0100
0100
0080
0C80
8200
4200
2000
1800
0C00
0C00
0200
0200
ENDCHAR
STARTCHAR 3231
ENCODING 12849
SWIDTH 1020 0
DWIDTH 17 0
BBX 16 16 0 -1
BITMAP
1008
39E4
39E4
49A2
4A3A
CFE1
B821
9E3D
9BE1
AAF1
C9A9
89A5
4A26
4C22
2824
1008
ENDCHAR
STARTCHAR 3232
ENCODING 12850
SWIDTH 1020 0
DWIDTH 17 0
BBX 16 16 0 -1
BITMAP
1008
2604
2604
4212
63FA
9E01
85E1
8E21
95E1
A621
C5E1
8621
4422
45E2
2424
1008
ENDCHAR
STARTCHAR 3239
ENCODING 12857
SWIDTH 1020 0
DWIDTH 17 0
BBX 16 16 0 -1
BITMAP
1008
2DC4
2DC4
44D2
44CA
88C9
8CFD
9BC1
A8C1
C8C1
8821
8821
482A
4812
281C
1008
ENDCHAR
STARTCHAR 32A4
ENCODING 12964
SWIDTH 1020 0
DWIDTH 17 0
BBX 16 17 0 -2
BITMAP
07E0
1818
1818
2604
4202
4202
8231
83C1
8201
8201
8201
A3F9
5E02
4002
2004
1818
07E0
ENDCHAR
STARTCHAR 32A5
ENCODING 12965
SWIDTH 1020 0
DWIDTH 17 0
BBX 16 17 0 -2
BITMAP
07E0
1818
1818
2384
4182
4182
B1F9
9F89
9189
9189
91F9
9F89
5182
4182
2184
1818
07E0
ENDCHAR
STARTCHAR 32A6
ENCODING 12966
SWIDTH 1020 0
DWIDTH 17 0
BBX 16 17 0 -2
BITMAP
07E0
1818
1818
2004
4002
63FA
9E01
8201
83E1
8211
8201
8201
4202
4202
2204
1818
07E0
ENDCHAR
STARTCHAR 32A7
ENCODING 12967
SWIDTH 1020 0
DWIDTH 17 0
BBX 16 17 0 -2
BITMAP
07E0
1818
1818
2604
4202
63FA
9E01
8401
84F9
8FC1
88C1
90C1
68FA
4782
2004
1818
07E0
ENDCHAR
STARTCHAR 32A8
ENCODING 12968
SWIDTH 1020 0
DWIDTH 17 0
BBX 16 17 0 -2
BITMAP
07E0
1818
1818
2604
4202
63FA
9E01
8401
84F1
8F91
9411
A411
44F2
4792
2404
1818
07E0
ENDCHAR
STARTCHAR 3303
ENCODING 13059
SWIDTH 1020 0
DWIDTH 17 0
BBX 16 16 0 -2
BITMAP
9F80
9F80
E200
1400
1980
10FF
10C0
2000
2380
4D80
0580
0588
0590
09A0
09C0
1180
ENDCHAR
STARTCHAR 330D
ENCODING 13069
SWIDTH 1020 0
DWIDTH 17 0
BBX 16 17 0 -2
BITMAP
3000
10E3
10E3
1E3D
F221
1221
2222
2222
5C3E
8822
0600
6400
44FF
4420
4400
0800
3000
ENDCHAR
STARTCHAR 3314
ENCODING 13076
SWIDTH 1020 0
DWIDTH 17 0
BBX 16 16 0 -1
BITMAP
3000
1000
1000
1000
1C00
F000
1000
1000
1EE7
F039
0821
0821
0822
0822
003E
0022
ENDCHAR
STARTCHAR 3318
ENCODING 13080
SWIDTH 1020 0
DWIDTH 17 0
BBX 16 17 0 -2
BITMAP
3180
24CE
24CE
3EF0
458F
45F2
8804
0804
1008
23B0
C180
0180
0200
0220
05F0
1E18
0808
ENDCHAR
STARTCHAR 3322
ENCODING 13090
SWIDTH 1020 0
DWIDTH 17 0
BBX 16 17 0 -2
BITMAP
60C0
2020
2020
3FB0
E201
2402
20CC
2030
1FA0
00C0
0FC0
0180
03FC
3D80
0180
0200
0C00
ENDCHAR
STARTCHAR 3323
ENCODING 13091
SWIDTH 1020 0
DWIDTH 17 0
BBX 16 17 0 -2
BITMAP
60C0
2020
2020
3FB0
E201
2402
20CC
2030
1FA0
0200
0200
0200
03C0
0230
0210
0200
0200
ENDCHAR
STARTCHAR 3326
ENCODING 13094
SWIDTH 1020 0
DWIDTH 17 0
BBX 15 17 1 -2
BITMAP
C300
4980
4980
4580
4400
6000
5800
4C00
4060
43A0
41A0
41A0
01A2
0324
0328
0430
0820
ENDCHAR
STARTCHAR 3327
ENCODING 13095
SWIDTH 1020 0
DWIDTH 17 0
BBX 14 16 2 -1
BITMAP
C000
4000
4000
4000
4000
6000
5800
4B00
4080
40C0
4004
4008
0610
0320
03C0
0300
ENDCHAR
STARTCHAR 332B
ENCODING 13099
SWIDTH 1020 0
DWIDTH 17 0
BBX 16 16 0 -1
BITMAP
13C0
6AC0
6AC0
27C0
2400
24FF
4220
8200
0200
C018
4208
59C8
E81E
522B
49C8
3D88
ENDCHAR
STARTCHAR 3336
ENCODING 13110
SWIDTH 1020 0
DWIDTH 17 0
BBX 16 17 0 -2
BITMAP
0030
1022
1022
183E
A424
62C4
4388
0190
0020
60C0
480C
7C34
4814
ABD5
1215
2026
40C4
ENDCHAR
STARTCHAR 333B
ENCODING 13115
SWIDTH 1020 0
DWIDTH 17 0
BBX 16 17 0 -2
BITMAP
03C0
02C0
02C0
1BC0
1400
A43F
6210
4380
0180
0408
0394
0808
0608
0020
08C0
0780
0400
ENDCHAR
STARTCHAR 3349
ENCODING 13129
SWIDTH 1020 0
DWIDTH 17 0
BBX 16 16 0 -2
BITMAP
6000
6000
1800
0C00
0000
6003
1032
0822
0022
C022
3022
0802
0C02
0004
0004
0018
ENDCHAR
STARTCHAR 334A
ENCODING 13130
SWIDTH 1020 0
DWIDTH 17 0
BBX 16 17 0 -2
BITMAP
3806
0434
0434
0024
3824
0424
0004
7008
0C08
0430
000C
6A34
5594
5015
4BD5
4A26
88C4
ENDCHAR
STARTCHAR 334D
ENCODING 13133
SWIDTH 1020 0
DWIDTH 17 0
BBX 16 17 0 -2
BITMAP
0600
0400
0400
4800
3180
10FF
28C0
4C00
8018
60E8
2028
2028
3829
26CA
20CC
2188
2200
ENDCHAR
STARTCHAR 3351
ENCODING 13137
SWIDTH 1020 0
DWIDTH 17 0
BBX 15 17 1 -2
BITMAP
0C00
C800
C800
8800
8844
8B24
89A8
1188
1010
6060
2000
2030
31D0
2852
2C54
2058
2390
ENDCHAR
STARTCHAR 3357
ENCODING 13143
SWIDTH 1020 0
DWIDTH 17 0
BBX 14 16 1 -2
BITMAP
9F00
9F00
E300
8324
8594
0454
0848
1010
2C20
0440
0400
0780
0460
0420
0400
0400
ENDCHAR
STARTCHAR 337B
ENCODING 13179
SWIDTH 1020 0
DWIDTH 17 0
BBX 16 12 0 0
BITMAP
000E
4E05
71CF
14F4
54C4
30D5
9FF5
70D6
10D5
11A6
118B
1231
ENDCHAR
STARTCHAR 337C
ENCODING 13180
SWIDTH 1020 0
DWIDTH 17 0
BBX 16 12 0 0
BITMAP
0610
BA30
EBED
AA27
B63D
E5E5
BE35
AAED
EBA7
AA25
0E24
0A20
ENDCHAR
STARTCHAR 337D
ENCODING 13181
SWIDTH 1020 0
DWIDTH 17 0
BBX 16 14 0 0
BITMAP
3000
3000
119E
10F0
9E10
7010
10D0
10DE
28D0
28D0
24D0
44D0
42DF
83E0
ENDCHAR
STARTCHAR 337E
ENCODING 13182
SWIDTH 1020 0
DWIDTH 17 0
BBX 16 15 0 -1
BITMAP
1ACC
1ACC
AE24
EA24
AACA
AE29
EA2F
AA19
AE23
EA2D
AA29
0A29
12CB
16CD
22C8
ENDCHAR
STARTCHAR 338E
ENCODING 13198
SWIDTH 1020 0
DWIDTH 17 0
BBX 15 10 1 -1
BITMAP
D836
7448
5448
5448
5430
5420
547C
FF42
0042
003C
ENDCHAR
STARTCHAR 338F
ENCODING 13199
SWIDTH 1020 0
DWIDTH 17 0
BBX 15 15 1 -1
BITMAP
C000
C000
4000
4000
4000
4F36
4448
4848
7048
5030
4820
447C
EF42
0042
003C
ENDCHAR
STARTCHAR 339C
ENCODING 13212
SWIDTH 1020 0
DWIDTH 17 0
BBX 15 8 1 1
BITMAP
D9D8
7474
5454
5454
5454
5454
5454
FFFE
ENDCHAR
STARTCHAR 339D
ENCODING 13213
SWIDTH 1020 0
DWIDTH 17 0
BBX 14 8 2 1
BITMAP
6BB0
98E8
88A8
80A8
80A8
88A8
88A8
73FC
ENDCHAR
STARTCHAR 339E
ENCODING 13214
SWIDTH 1020 0
DWIDTH 17 0
BBX 15 13 1 1
BITMAP
C000
C000
4000
4000
4000
5DD8
4874
5054
6054
5054
4854
4854
EDFE
ENDCHAR
STARTCHAR 33A1
ENCODING 13217
SWIDTH 1020 0
DWIDTH 17 0
BBX 13 13 2 1
BITMAP
0030
0030
0048
0008
0030
EF40
58F8
4880
4880
4880
4880
4880
FFC0
ENDCHAR
STARTCHAR 33C4
ENCODING 13252
SWIDTH 1020 0
DWIDTH 17 0
BBX 13 8 2 1
BITMAP
6868
9898
8888
8080
8080
8888
8888
7070
ENDCHAR
STARTCHAR 33CD
ENCODING 13261
SWIDTH 1020 0
DWIDTH 17 0
BBX 16 13 0 -1
BITMAP
EFEE
44C4
44C4
48C8
50D0
60E0
50D0
48C8
48C8
44C4
44C4
EFEF
0201
ENDCHAR
STARTCHAR 4E00
ENCODING 19968
SWIDTH 1020 0
DWIDTH 17 0
BBX 16 2 0 5
BITMAP
80FF
7F80
ENDCHAR
STARTCHAR 4E01
ENCODING 19969
SWIDTH 1020 0
DWIDTH 17 0
BBX 16 16 0 -2
BITMAP
80FF
80FF
7F80
0180
0180
0180
0180
0180
0180
0180
0180
0180
0180
0580
0380
0200
ENDCHAR
STARTCHAR 4E03
ENCODING 19971
SWIDTH 1020 0
DWIDTH 17 0
BBX 16 16 0 -1
BITMAP
1800
0800
0800
0800
0800
0807
08F8
8F80
7800
0800
0800
0800
0804
0804
0404
03FE
ENDCHAR
STARTCHAR 4E07
ENCODING 19975
SWIDTH 1020 0
DWIDTH 17 0
BBX 16 14 0 -2
BITMAP
81FF
7E00
0200
0200
023C
03C8
0208
0408
0408
0410
0810
0990
10E0
60C0
ENDCHAR
STARTCHAR 4E08
ENCODING 19976
SWIDTH 1020 0
DWIDTH 17 0
BBX 16 17 0 -2
BITMAP
01C0
00C0
00C0
00C0
80FF
7FC0
00C0
18C0
06C0
0180
01C0
0220
0210
0408
0804
3002
C001
ENDCHAR
STARTCHAR 4E09
ENCODING 19977
SWIDTH 1020 0
DWIDTH 17 0
BBX 16 14 0 0
BITMAP
20FC
20FC
1F80
0000
0000
0000
10F8
0F80
0000
0000
0000
0000
81FF
7E00
ENDCHAR
STARTCHAR 4E0A
ENCODING 19978
SWIDTH 1020 0
DWIDTH 17 0
BBX 16 16 0 -1
BITMAP
0600
0200
0200
0200
0200
0200
02FC
0380
0200
0200
0200
0200
0200
0200
83FF
7C00
ENDCHAR
STARTCHAR 4E0B
ENCODING 19979
SWIDTH 1020 0
DWIDTH 17 0
BBX 16 16 0 -2
BITMAP
80FF
80FF
7F80
0180
0180
01E0
0190
0188
0184
0180
0180
0180
0180
0180
0180
0180
ENDCHAR
STARTCHAR 4E0D
ENCODING 19981
SWIDTH 1020 0
DWIDTH 17 0
BBX 16 16 0 -2
BITMAP
80FF
80FF
7FA0
00C0
0180
03A0
0598
0984
1182
2181
C180
0180
0180
0180
0180
0180
ENDCHAR
STARTCHAR 4E0E
ENCODING 19982
SWIDTH 1020 0
DWIDTH 17 0
BBX 16 17 0 -2
BITMAP
0400
043C
043C
07C0
0400
0400
09F8
0E10
1810
0010
81FF
7E10
0020
0020
02C0
01C0
0180
ENDCHAR
STARTCHAR 4E10
ENCODING 19984
SWIDTH 1020 0
DWIDTH 17 0
BBX 16 16 0 -2
BITMAP
80FF
80FF
7F80
0180
019C
31E0
1180
1180
11FF
3F82
2002
2004
0004
0028
0018
0010
ENDCHAR
STARTCHAR 4E11
ENCODING 19985
SWIDTH 1020 0
DWIDTH 17 0
BBX 16 15 0 -1
BITMAP
21F8
21F8
1E10
0210
0210
0210
83FF
7E10
0410
0410
0410
0410
0410
85FF
7E00
ENDCHAR
STARTCHAR 4E14
ENCODING 19988
SWIDTH 1020 0
DWIDTH 17 0
BBX 16 15 0 -1
BITMAP
18F8
18F8
0F90
0810
0810
08F0
0F90
0810
0810
09F0
0E10
0810
0810
89FF
7E00
ENDCHAR
STARTCHAR 4E15
ENCODING 19989
SWIDTH 1020 0
DWIDTH 17 0
BBX 16 15 0 -1
BITMAP
80FF
80FF
7FA0
00C0
0180
01A0
0398
0584
1982
6180
0180
0180
0000
81FF
7E00
ENDCHAR
STARTCHAR 4E16
ENCODING 19990
SWIDTH 1020 0
DWIDTH 17 0
BBX 16 17 0 -2
BITMAP
3398
1188
1188
1188
1188
1188
91FF
7F88
1188
1198
11E8
1188
1000
1000
10FF
1F80
1000
ENDCHAR
STARTCHAR 4E17
ENCODING 19991
SWIDTH 1020 0
DWIDTH 17 0
BBX 16 17 0 -2
BITMAP
3398
1188
1188
1188
1188
1188
91FF
7F88
1188
1188
1188
1188
1188
1188
11F8
1E08
1008
ENDCHAR
STARTCHAR 4E18
ENCODING 19992
SWIDTH 1020 0
DWIDTH 17 0
BBX 16 16 0 -1
BITMAP
0018
0020
0020
31C0
1E00
1000
1000
10FC
1FA0
1020
1020
1020
1020
1020
91FF
7E00
ENDCHAR
STARTCHAR 4E19
ENCODING 19993
SWIDTH 1020 0
DWIDTH 17 0
BBX 16 16 0 -2
BITMAP
80FF
80FF
7F80
0180
0180
61FE
3F84
21C4
2224
2214
2414
280C
3004
2014
200C
2008
ENDCHAR
STARTCHAR 4E1E
ENCODING 19998
SWIDTH 1020 0
DWIDTH 17 0
BBX 16 15 0 -1
BITMAP
08F8
08F8
0790
0222
01C2
8D84
74E8
08D8
08C4
10C2
22C1
4180
8180
41FE
3E00
ENDCHAR
STARTCHAR 4E21
ENCODING 20001
SWIDTH 1020 0
DWIDTH 17 0
BBX 16 16 0 -2
BITMAP
80FF
80FF
7F80
0180
0180
C1FF
7F82
4182
4992
4992
4992
49F2
4E12
480A
4006
4004
ENDCHAR
STARTCHAR 4E26
ENCODING 20006
SWIDTH 1020 0
DWIDTH 17 0
BBX 16 16 0 -1
BITMAP
0010
1010
1010
0820
04C0
45FE
3E20
0424
4424
2424
2428
1428
1420
0420
85FF
7E00
ENDCHAR
STARTCHAR 4E2A
ENCODING 20010
SWIDTH 1020 0
DWIDTH 17 0
BBX 16 17 0 -2
BITMAP
0180
01C0
01C0
0220
0210
0408
0B84
1182
2181
C180
0180
0180
0180
0180
0180
0180
0180
ENDCHAR
STARTCHAR 4E2D
ENCODING 20013
SWIDTH 1020 0
DWIDTH 17 0
BBX 16 17 0 -2
BITMAP
0380
0180
0180
0180
C1FF
7F82
4182
4182
4182
41FE
7F82
4180
0180
0180
0180
0180
0180
ENDCHAR
STARTCHAR 4E31
ENCODING 20017
SWIDTH 1020 0
DWIDTH 17 0
BBX 15 17 0 -2
BITMAP
0CE0
0420
0420
0420
C426
4422
4422
4422
4422
4C26
743A
4422
0822
0820
1020
2020
C020
ENDCHAR
STARTCHAR 4E32
ENCODING 20018
SWIDTH 1020 0
DWIDTH 17 0
BBX 16 17 0 -2
BITMAP
0380
0180
0180
61FE
3F84
2184
21FC
3F84
2180
C1FF
7F82
4182
41FE
7F82
4180
0180
0180
ENDCHAR
STARTCHAR 4E36
ENCODING 20022
SWIDTH 1020 0
DWIDTH 17 0
BBX 9 8 4 2
BITMAP
C000
3800
0C00
0200
0100
0100
0080
0080
ENDCHAR
STARTCHAR 4E38
ENCODING 20024
SWIDTH 1020 0
DWIDTH 17 0
BBX 16 17 0 -2
BITMAP
0600
0200
0200
0200
83F8
7E10
0210
2210
1A10
0410
0610
0990
08D0
10D2
2012
400A
8007
ENDCHAR
STARTCHAR 4E39
ENCODING 20025
SWIDTH 1020 0
DWIDTH 17 0
BBX 16 16 0 -2
BITMAP
18FC
18FC
0F88
0988
08C8
08C8
0808
88FF
7F88
0808
0808
0808
1008
1028
2018
C010
ENDCHAR
STARTCHAR 4E3B
ENCODING 20027
SWIDTH 1020 0
DWIDTH 17 0
BBX 16 16 0 -1
BITMAP
0400
0380
0380
00C0
40FE
3F80
0180
0180
0180
21FC
1F80
0180
0180
0180
81FF
7E00
ENDCHAR
STARTCHAR 4E3C
ENCODING 20028
SWIDTH 1020 0
DWIDTH 17 0
BBX 16 17 0 -2
BITMAP
0C30
0410
0410
0410
44FE
3F90
0410
0590
04D0
04D0
84FF
7F90
0810
0810
1010
2010
C010
ENDCHAR
STARTCHAR 4E3F
ENCODING 20031
SWIDTH 1020 0
DWIDTH 17 0
BBX 8 17 2 -2
BITMAP
07
03
03
03
03
03
03
03
03
06
06
06
08
08
10
20
C0
ENDCHAR
STARTCHAR 4E42
ENCODING 20034
SWIDTH 1020 0
DWIDTH 17 0
BBX 16 17 0 -2
BITMAP
000C
2004
2004
1808
0408
0208
0190
00D0
0020
0020
00D0
0188
0204
0404
0802
3001
C001
ENDCHAR
STARTCHAR 4E43
ENCODING 20035
SWIDTH 1020 0
DWIDTH 17 0
BBX 16 16 0 -2
BITMAP
41F8
41F8
3E10
0410
0420
0420
042F
04F2
0802
0802
0802
1004
1004
2024
4018
8010
ENDCHAR
STARTCHAR 4E45
ENCODING 20037
SWIDTH 1020 0
DWIDTH 17 0
BBX 16 17 0 -2
BITMAP
0200
0200
0200
0200
0238
07C8
0410
0810
1020
2020
40E0
0190
0208
0404
0802
3002
C001
ENDCHAR
STARTCHAR 4E4B
ENCODING 20043
SWIDTH 1020 0
DWIDTH 17 0
BBX 16 17 0 -2
BITMAP
0380
0180
0180
0180
41FC
3E08
0010
0020
00C0
0180
0200
1400
1800
2400
2200
41C0
803F
ENDCHAR
STARTCHAR 4E4D
ENCODING 20045
SWIDTH 1020 0
DWIDTH 17 0
BBX 16 17 0 -2
BITMAP
0800
0800
0800
0800
10FF
1F80
2180
41BC
81C0
0180
0180
01BE
01C0
0180
0180
0180
0180
ENDCHAR
STARTCHAR 4E4E
ENCODING 20046
SWIDTH 1020 0
DWIDTH 17 0
BBX 16 17 0 -2
BITMAP
000C
0030
0030
03C4
3D84
10C8
08C8
04D0
84FF
7FC0
00C0
00C0
00C0
00C0
0580
0380
0200
ENDCHAR
STARTCHAR 4E4F
ENCODING 20047
SWIDTH 1020 0
DWIDTH 17 0
BBX 16 17 0 -2
BITMAP
001C
01E0
01E0
3F80
0180
0180
41FC
3E08
0010
0020
00C0
1180
1200
2C00
2400
4380
80FF
ENDCHAR
STARTCHAR 4E55
ENCODING 20053
SWIDTH 1020 0
DWIDTH 17 0
BBX 16 17 0 -2
BITMAP
000C
60F0
60F0
3FC0
20C0
30FE
2FC0
30FF
2FC0
20C0
28FE
2FC4
28C4
48D4
48CC
88C8
00C0
ENDCHAR
STARTCHAR 4E56
ENCODING 20054
SWIDTH 1020 0
DWIDTH 17 0
BBX 16 17 0 -2
BITMAP
001C
03E0
03E0
7D80
0180
81FF
7F80
09B2
0992
4994
3998
0990
1992
2992
C98F
0180
0180
ENDCHAR
STARTCHAR 4E57
ENCODING 20055
SWIDTH 1020 0
DWIDTH 17 0
BBX 16 17 0 -2
BITMAP
001C
01E0
01E0
1F80
41FE
3F90
0990
89FF
7F90
0990
49FE
3FC0
03B0
0588
0984
3182
C181
ENDCHAR
STARTCHAR 4E58
ENCODING 20056
SWIDTH 1020 0
DWIDTH 17 0
BBX 16 17 0 -2
BITMAP
0038
03C0
03C0
3D80
81FF
7F82
09B2
4994
3998
0992
198F
6BE0
0598
0984
3182
C181
0180
ENDCHAR
STARTCHAR 4E59
ENCODING 20057
SWIDTH 1020 0
DWIDTH 17 0
BBX 14 15 1 -1
BITMAP
41E0
41E0
3F40
0180
0300
0400
0800
1000
2000
4000
4000
8008
8008
4008
3FFC
ENDCHAR
STARTCHAR 4E5D
ENCODING 20061
SWIDTH 1020 0
DWIDTH 17 0
BBX 16 17 0 -2
BITMAP
0600
0200
0200
0200
0200
83F8
7E10
0210
0210
0410
0410
0410
0810
0812
1012
2012
C00F
ENDCHAR
STARTCHAR 4E5E
ENCODING 20062
SWIDTH 1020 0
DWIDTH 17 0
BBX 16 17 0 -2
BITMAP
0800
0800
0800
10FE
1F80
2000
51F0
8E20
01C0
0200
0400
0800
1000
2002
2002
1002
0FFF
ENDCHAR
STARTCHAR 4E5F
ENCODING 20063
SWIDTH 1020 0
DWIDTH 17 0
BBX 16 17 0 -2
BITMAP
0380
3180
3180
1180
118C
11B8
11C8
1788
3988
D188
11A8
1198
1190
1182
1002
0802
07FF
ENDCHAR
STARTCHAR 4E62
ENCODING 20066
SWIDTH 1020 0
DWIDTH 17 0
BBX 16 17 0 -2
BITMAP
30E0
1020
1020
1020
9220
9220
9220
9220
9220
9220
9220
9220
9E20
E222
8022
0012
000F
ENDCHAR
STARTCHAR 4E71
ENCODING 20081
SWIDTH 1020 0
DWIDTH 17 0
BBX 16 17 0 -2
BITMAP
06E0
1820
1820
E820
0820
8FA0
7820
0820
0820
CFA0
7220
4220
4220
4222
4E22
7222
421F
ENDCHAR
STARTCHAR 4E73
ENCODING 20083
SWIDTH 1020 0
DWIDTH 17 0
BBX 16 17 0 -2
BITMAP
03A0
0DA0
0DA0
71A0
9220
4A20
4820
4E20
3220
14E0
09A0
0E20
3420
C422
1422
0822
081F
ENDCHAR
STARTCHAR 4E7E
ENCODING 20094
SWIDTH 1020 0
DWIDTH 17 0
BBX 16 17 0 -2
BITMAP
1820
0820
0820
8FA0
7827
0EF8
72C0
4FAC
7234
4208
4E10
7A20
4820
8FA2
78C2
08C2
083F
ENDCHAR
STARTCHAR 4E80
ENCODING 20096
SWIDTH 1020 0
DWIDTH 17 0
BBX 16 17 0 -2
BITMAP
04C0
07C0
07C0
08FC
1F88
31F8
DF88
11F8
1F88
61FE
3F84
21FC
3F84
21FC
3F86
2182
00FF
ENDCHAR
STARTCHAR 4E82
ENCODING 20098
SWIDTH 1020 0
DWIDTH 17 0
BBX 16 17 0 -2
BITMAP
03B0
0E10
0E10
7190
4810
A790
9A10
0410
C7D0
78D0
56D0
5AD0
66D0
5AD2
54D2
4CD2
72CF
ENDCHAR
STARTCHAR 4E85
ENCODING 20101
SWIDTH 1020 0
DWIDTH 17 0
BBX 4 17 5 -2
BITMAP
70
30
30
30
30
30
30
30
30
30
30
30
30
30
B0
70
40
ENDCHAR
STARTCHAR 4E86
ENCODING 20102
SWIDTH 1020 0
DWIDTH 17 0
BBX 13 16 2 -2
BITMAP
80F8
80F8
7F10
1060
0880
0680
0300
0300
0300
0300
0300
0300
0300
0B00
0600
0600
ENDCHAR
STARTCHAR 4E88
ENCODING 20104
SWIDTH 1020 0
DWIDTH 17 0
BBX 16 16 0 -2
BITMAP
20FC
20FC
1F88
0410
02E0
0180
81FF
7F82
00C4
00C8
00C0
00C0
00C0
02C0
0180
0180
ENDCHAR
STARTCHAR 4E89
ENCODING 20105
SWIDTH 1020 0
DWIDTH 17 0
BBX 16 17 0 -2
BITMAP
0800
09E0
09E0
0EC0
1180
23FC
7F88
81FF
7F88
0188
21F8
1F88
0180
0180
0580
0380
0200
ENDCHAR
STARTCHAR 4E8A
ENCODING 20106
SWIDTH 1020 0
DWIDTH 17 0
BBX 16 17 0 -2
BITMAP
0380
0180
0180
81FF
7F88
0990
25FC
1F88
81FF
7F88
0188
21F8
1F88
0180
0580
0380
0200
ENDCHAR
STARTCHAR 4E8B
ENCODING 20107
SWIDTH 1020 0
DWIDTH 17 0
BBX 16 17 0 -2
BITMAP
0380
81FF
81FF
7F80
11FC
1F88
11F8
1F80
21FC
1F88
81FF
7F88
21F8
1F88
0580
0380
0200
ENDCHAR
STARTCHAR 4E8C
ENCODING 20108
SWIDTH 1020 0
DWIDTH 17 0
BBX 16 10 0 1
BITMAP
20FC
1F80
0000
0000
0000
0000
0000
0000
81FF
7E00
ENDCHAR
STARTCHAR 4E8E
ENCODING 20110
SWIDTH 1020 0
DWIDTH 17 0
BBX 16 16 0 -2
BITMAP
40FE
40FE
3F80
0180
0180
0180
81FF
7F80
0180
0180
0180
0180
0180
0580
0380
0200
ENDCHAR
STARTCHAR 4E91
ENCODING 20113
SWIDTH 1020 0
DWIDTH 17 0
BBX 16 15 0 -1
BITMAP
20FC
20FC
1F80
0000
0000
80FF
7F80
0200
0200
0410
0408
040C
08F4
0F82
7002
ENDCHAR
STARTCHAR 4E92
ENCODING 20114
SWIDTH 1020 0
DWIDTH 17 0
BBX 16 15 0 -1
BITMAP
40FE
40FE
3F80
0200
02FC
0388
0408
0410
0410
09F0
0E10
0820
0020
81FF
7E00
ENDCHAR
STARTCHAR 4E94
ENCODING 20116
SWIDTH 1020 0
DWIDTH 17 0
BBX 16 15 0 -1
BITMAP
40FE
40FE
3F80
0180
0180
0180
21FC
1E08
0208
0208
0208
0408
0408
85FF
7E00
ENDCHAR
STARTCHAR 4E95
ENCODING 20117
SWIDTH 1020 0
DWIDTH 17 0
BBX 16 17 0 -2
BITMAP
0C30
0410
0410
0410
0410
44FE
3F90
0410
0410
0410
85FF
7E10
0810
0810
1010
2010
C010
ENDCHAR
STARTCHAR 4E98
ENCODING 20120
SWIDTH 1020 0
DWIDTH 17 0
BBX 16 15 0 -1
BITMAP
41FE
41FE
3E00
0000
19F8
0E10
0810
09F0
0E10
0810
09F0
0E10
0800
81FF
7E00
ENDCHAR
STARTCHAR 4E99
ENCODING 20121
SWIDTH 1020 0
DWIDTH 17 0
BBX 16 15 0 -1
BITMAP
40FE
40FE
3F80
0400
04F8
0790
0410
0B90
08E0
0E20
11A0
10C0
00C0
81FF
7E00
ENDCHAR
STARTCHAR 4E9B
ENCODING 20123
SWIDTH 1020 0
DWIDTH 17 0
BBX 16 16 0 -1
BITMAP
19C0
08C2
08C2
6BC2
2CCC
28F0
29C0
2EC2
3822
E01F
0000
21FC
1E00
0000
81FF
7E00
ENDCHAR
STARTCHAR 4E9C
ENCODING 20124
SWIDTH 1020 0
DWIDTH 17 0
BBX 16 15 0 -1
BITMAP
40FE
40FE
3FA0
0420
0420
65FE
3E24
2424
2424
25FC
3E24
2420
0420
85FF
7E00
ENDCHAR
STARTCHAR 4E9E
ENCODING 20126
SWIDTH 1020 0
DWIDTH 17 0
BBX 16 15 0 -1
BITMAP
41FE
41FE
3E20
0420
0426
5C3A
6422
4002
4002
4C2E
7432
4420
0420
85FF
7E00
ENDCHAR
STARTCHAR 4E9F
ENCODING 20127
SWIDTH 1020 0
DWIDTH 17 0
BBX 16 15 0 -1
BITMAP
41FE
41FE
3E00
0400
0400
05F3
06CE
D8D2
68CC
48C6
5AC9
69D1
0180
83FF
7C00
ENDCHAR
STARTCHAR 4EA0
ENCODING 20128
SWIDTH 1020 0
DWIDTH 17 0
BBX 16 6 0 5
BITMAP
0380
0180
0180
0180
81FF
7E00
ENDCHAR
STARTCHAR 4EA1
ENCODING 20129
SWIDTH 1020 0
DWIDTH 17 0
BBX 16 16 0 -1
BITMAP
0380
0180
0180
0180
0180
81FF
7F80
1000
1000
1000
1000
1000
1000
1000
0800
07FC
ENDCHAR
STARTCHAR 4EA2
ENCODING 20130
SWIDTH 1020 0
DWIDTH 17 0
BBX 16 17 0 -2
BITMAP
0380
0180
0180
81FF
7F80
0000
19E0
0EC0
08C0
08C0
08C0
08C0
10C0
10C2
20C2
4022
801F
ENDCHAR
STARTCHAR 4EA4
ENCODING 20132
SWIDTH 1020 0
DWIDTH 17 0
BBX 16 17 0 -2
BITMAP
0380
0180
0180
81FF
7E20
0810
0828
1424
2222
C1C2
00C0
01A0
0210
0408
0804
3002
C001
ENDCHAR
STARTCHAR 4EA5
ENCODING 20133
SWIDTH 1020 0
DWIDTH 17 0
BBX 16 17 0 -2
BITMAP
0380
0180
0180
81FF
7F80
0220
0420
18C8
04C8
0390
0210
0420
08D0
3188
0208
0C04
7004
ENDCHAR
STARTCHAR 4EA6
ENCODING 20134
SWIDTH 1020 0
DWIDTH 17 0
BBX 16 17 0 -2
BITMAP
0380
0180
0180
0180
81FF
7E20
0420
0428
2424
2422
2422
4421
8821
0820
11A0
20E0
C0C0
ENDCHAR
STARTCHAR 4EA8
ENCODING 20136
SWIDTH 1020 0
DWIDTH 17 0
BBX 16 17 0 -2
BITMAP
0380
81FF
81FF
7E00
09F8
0E10
09F0
0E10
41FE
3E08
0230
01C0
00C0
00C0
02C0
0180
0180
ENDCHAR
STARTCHAR 4EAB
ENCODING 20139
SWIDTH 1020 0
DWIDTH 17 0
BBX 16 17 0 -2
BITMAP
0380
81FF
81FF
7E00
09F8
0E10
09F0
0E10
21FC
1E10
0220
81FF
7EC0
00C0
02C0
0180
0180
ENDCHAR
STARTCHAR 4EAC
ENCODING 20140
SWIDTH 1020 0
DWIDTH 17 0
BBX 16 17 0 -2
BITMAP
0380
0180
0180
81FF
7F80
0000
31FC
1E08
1008
11F8
1F88
1190
0988
1184
2582
C382
0200
ENDCHAR
STARTCHAR 4EAD
ENCODING 20141
SWIDTH 1020 0
DWIDTH 17 0
BBX 16 17 0 -2
BITMAP
0380
41FE
41FE
3E00
09F8
0E10
09F0
0E10
41FF
7E02
41FC
BF80
0180
0180
0580
0380
0200
ENDCHAR
STARTCHAR 4EAE
ENCODING 20142
SWIDTH 1020 0
DWIDTH 17 0
BBX 16 17 0 -2
BITMAP
0380
0180
0180
81FF
7E00
09F8
0E10
09F0
0E00
21FE
3E04
25C8
44C0
08C2
08C2
30C2
C03F
ENDCHAR
STARTCHAR 4EB0
ENCODING 20144
SWIDTH 1020 0
DWIDTH 17 0
BBX 16 17 0 -2
BITMAP
0380
0180
0180
81FF
7F80
01F8
0F88
08F8
0F88
0808
08F8
0F80
0988
1184
1582
2381
4201
ENDCHAR
STARTCHAR 4EB3
ENCODING 20147
SWIDTH 1020 0
DWIDTH 17 0
BBX 16 17 0 -2
BITMAP
0380
81FF
81FF
7E00
09F8
0E10
09F0
0E02
41FF
7E02
41F4
9E00
43FC
3E00
0202
0202
01FF
ENDCHAR
STARTCHAR 4EB6
ENCODING 20150
SWIDTH 1020 0
DWIDTH 17 0
BBX 16 16 0 -1
BITMAP
0380
81FF
81FF
7E00
11FC
1E28
15E8
1608
11F8
1E00
01F8
0E10
09F0
0E10
89FF
7E00
ENDCHAR
STARTCHAR 4EBA
ENCODING 20154
SWIDTH 1020 0
DWIDTH 17 0
BBX 16 17 0 -2
BITMAP
0380
0180
0180
0180
0180
0180
0180
01C0
0220
0210
0208
0408
0404
0802
1002
2001
C001
ENDCHAR
STARTCHAR 4EC0
ENCODING 20160
SWIDTH 1020 0
DWIDTH 17 0
BBX 16 17 0 -2
BITMAP
08E0
0820
0820
0820
1020
1020
183F
37E0
5020
9020
1020
1020
1020
1020
1020
1020
1020
ENDCHAR
STARTCHAR 4EC1
ENCODING 20161
SWIDTH 1020 0
DWIDTH 17 0
BBX 16 17 0 -2
BITMAP
0800
0800
0800
0800
143C
13C0
2000
2000
6000
A000
2000
2000
2000
283F
27C0
2000
2000
ENDCHAR
STARTCHAR 4EC2
ENCODING 20162
SWIDTH 1020 0
DWIDTH 17 0
BBX 16 17 0 -2
BITMAP
08E0
0820
0820
0820
1020
143F
13E2
3022
5022
90C2
10C2
10C2
1182
1184
1214
140C
1808
ENDCHAR
STARTCHAR 4EC4
ENCODING 20164
SWIDTH 1020 0
DWIDTH 17 0
BBX 16 16 0 -2
BITMAP
60FF
60FF
3F80
20C0
20C0
20C0
20C0
20C0
21A0
2190
2188
2204
4202
4402
8801
3001
ENDCHAR
STARTCHAR 4EC6
ENCODING 20166
SWIDTH 1020 0
DWIDTH 17 0
BBX 16 17 0 -2
BITMAP
0CE0
0420
0420
0820
0820
1020
1038
3024
5022
9021
1021
1020
1020
1020
1020
1020
1020
ENDCHAR
STARTCHAR 4EC7
ENCODING 20167
SWIDTH 1020 0
DWIDTH 17 0
BBX 16 17 0 -2
BITMAP
05C0
04C0
04C0
04C0
08C0
08FC
17C8
10C8
30C8
50C8
9188
1188
1188
120A
120A
140A
1807
ENDCHAR
STARTCHAR 4ECA
ENCODING 20170
SWIDTH 1020 0
DWIDTH 17 0
BBX 16 17 0 -2
BITMAP
0180
01C0
01C0
0230
0208
0404
08FA
0F81
1000
21FC
5E08
8010
0010
0020
00C0
00C0
0180
ENDCHAR
STARTCHAR 4ECB
ENCODING 20171
SWIDTH 1020 0
DWIDTH 17 0
BBX 16 17 0 -2
BITMAP
0180
02E0
02E0
0210
0408
0804
1832
2C11
C411
0410
0410
0410
0810
0810
1010
2010
4010
ENDCHAR
STARTCHAR 4ECD
ENCODING 20173
SWIDTH 1020 0
DWIDTH 17 0
BBX 16 17 0 -2
BITMAP
0800
0C3C
0C3C
0BC8
1188
1188
2190
2197
619A
A192
2202
2204
2204
2404
2428
2818
3010
ENDCHAR
STARTCHAR 4ECE
ENCODING 20174
SWIDTH 1020 0
DWIDTH 17 0
BBX 16 17 0 -2
BITMAP
1830
0810
0810
0810
0810
0810
0810
0810
0810
1428
1224
1224
22C2
20C2
4181
8601
1801
ENDCHAR
STARTCHAR 4ECF
ENCODING 20175
SWIDTH 1020 0
DWIDTH 17 0
BBX 16 17 0 -2
BITMAP
0430
0410
0410
0410
0810
0820
1020
1020
3020
50C8
90C8
10C4
1184
11BA
11C2
1E01
1001
ENDCHAR
STARTCHAR 4ED4
ENCODING 20180
SWIDTH 1020 0
DWIDTH 17 0
BBX 16 17 0 -2
BITMAP
0800
0A0E
0A0E
09F4
10C4
1028
1010
3010
541F
93E8
1008
1008
1008
1008
1028
1010
1010
ENDCHAR
STARTCHAR 4ED5
ENCODING 20181
SWIDTH 1020 0
DWIDTH 17 0
BBX 16 17 0 -2
BITMAP
08E0
0820
0820
0820
1020
1020
283F
27E0
6020
A020
2020
2020
2020
2020
283E
27C0
2000
ENDCHAR
STARTCHAR 4ED6
ENCODING 20182
SWIDTH 1020 0
DWIDTH 17 0
BBX 16 17 0 -2
BITMAP
08E0
0E20
0E20
1220
1226
223C
22E4
63A4
AE24
3234
222C
2228
2220
2202
2202
2182
20FF
ENDCHAR
STARTCHAR 4ED7
ENCODING 20183
SWIDTH 1020 0
DWIDTH 17 0
BBX 16 17 0 -2
BITMAP
1830
0810
0810
0810
1010
183F
27D0
2010
6390
A0E0
2020
20D0
20C8
2184
2202
2402
3801
ENDCHAR
STARTCHAR 4ED8
ENCODING 20184
SWIDTH 1020 0
DWIDTH 17 0
BBX 16 17 0 -2
BITMAP
0818
0808
0808
0808
1008
181F
37E8
5408
9208
1188
1188
1008
1008
1008
1028
1018
1010
ENDCHAR
STARTCHAR 4ED9
ENCODING 20185
SWIDTH 1020 0
DWIDTH 17 0
BBX 15 17 0 -2
BITMAP
08E0
0820
0820
1020
1020
2026
2C22
6422
A422
2422
2422
2422
2422
2422
243E
27C2
2402
ENDCHAR
STARTCHAR 4EDD
ENCODING 20189
SWIDTH 1020 0
DWIDTH 17 0
BBX 16 16 0 -1
BITMAP
0180
01C0
01C0
0220
0210
0408
0804
1002
20FD
DF80
0180
0180
0180
0180
81FF
7E00
ENDCHAR
STARTCHAR 4EDE
ENCODING 20190
SWIDTH 1020 0
DWIDTH 17 0
BBX 16 17 0 -2
BITMAP
0800
0C1F
0C1F
0BE2
1022
1022
2222
2222
6222
A4C2
28C4
20C4
2184
2184
2228
2418
3810
ENDCHAR
STARTCHAR 4EDF
ENCODING 20191
SWIDTH 1020 0
DWIDTH 17 0
BBX 16 17 0 -2
BITMAP
080C
0830
0830
08E0
13A0
1020
1020
383F
57E0
9020
1020
1020
1020
1020
1020
1020
1020
ENDCHAR
STARTCHAR 4EE3
ENCODING 20195
SWIDTH 1020 0
DWIDTH 17 0
BBX 16 17 0 -2
BITMAP
09C8
08C4
08C4
10C2
10C2
20C0
30FF
6FC0
A0C0
2020
2020
2020
2010
2012
200A
2006
2003
ENDCHAR
STARTCHAR 4EE4
ENCODING 20196
SWIDTH 1020 0
DWIDTH 17 0
BBX 16 17 0 -2
BITMAP
0180
02C0
02C0
0230
0408
0804
11FA
2E01
4000
A1FE
1F84
0184
0194
018C
0188
0180
0180
ENDCHAR
STARTCHAR 4EE5
ENCODING 20197
SWIDTH 1020 0
DWIDTH 17 0
BBX 16 17 0 -2
BITMAP
600C
2404
2404
2204
2184
20C4
20C4
2004
2004
2188
2208
2408
2814
3022
E0C2
0381
0C01
ENDCHAR
STARTCHAR 4EED
ENCODING 20205
SWIDTH 1020 0
DWIDTH 17 0
BBX 16 17 0 -2
BITMAP
0800
0C1F
0C1F
0BE2
10C2
10C2
2CC2
23C2
60E2
A0DA
2184
2186
2205
2204
2428
2818
3010
ENDCHAR
STARTCHAR 4EEE
ENCODING 20206
SWIDTH 1020 0
DWIDTH 17 0
BBX 16 17 0 -2
BITMAP
0800
0E0F
0E0F
13F0
1200
2200
221C
63E4
A2C4
2228
2218
2208
2414
2422
28C2
3181
2601
ENDCHAR
STARTCHAR 4EF0
ENCODING 20208
SWIDTH 1020 0
DWIDTH 17 0
BBX 16 17 0 -2
BITMAP
0820
0820
0820
16F7
1399
2211
2211
6211
A211
2211
22F5
2393
2212
2C10
2010
2010
2010
ENDCHAR
STARTCHAR 4EF2
ENCODING 20210
SWIDTH 1020 0
DWIDTH 17 0
BBX 16 17 0 -2
BITMAP
08E0
0820
0820
1020
1C3F
27E2
2422
6422
A422
243E
27E2
2420
2020
2020
2020
2020
2020
ENDCHAR
STARTCHAR 4EF6
ENCODING 20214
SWIDTH 1020 0
DWIDTH 17 0
BBX 16 17 0 -2
BITMAP
0830
0B90
0B90
0990
119E
13F0
2210
2410
6810
A81F
27F0
2010
2010
2010
2010
2010
2010
ENDCHAR
STARTCHAR 4EF7
ENCODING 20215
SWIDTH 1020 0
DWIDTH 17 0
BBX 16 17 0 -2
BITMAP
08C0
08F0
08F0
08C8
1184
1182
1219
3789
5988
9188
1188
1188
1188
1208
1208
1408
1808
ENDCHAR
STARTCHAR 4EFB
ENCODING 20219
SWIDTH 1020 0
DWIDTH 17 0
BBX 16 17 0 -2
BITMAP
080C
0810
0810
08E0
17A0
1020
2020
2020
683F
A7E0
2020
2020
2020
2020
283E
27C0
2000
ENDCHAR
STARTCHAR 4F01
ENCODING 20225
SWIDTH 1020 0
DWIDTH 17 0
BBX 16 16 0 -1
BITMAP
0180
01C0
01C0
0230
0408
0804
1382
2181
C180
19BC
09C0
0980
0980
0980
89FF
7E00
ENDCHAR
STARTCHAR 4F09
ENCODING 20233
SWIDTH 1020 0
DWIDTH 17 0
BBX 16 17 0 -2
BITMAP
08E0
0820
0820
1020
183F
17C0
2000
23B8
61D0
A190
2190
2190
2210
2212
2412
280A
3007
ENDCHAR
STARTCHAR 4F0A
ENCODING 20234
SWIDTH 1020 0
DWIDTH 17 0
BBX 16 17 0 -2
BITMAP
0800
0A1E
0A1E
09E4
1024
183F
27E4
2024
6024
A43C
23E4
2020
2020
20C0
20C0
2180
2200
ENDCHAR
STARTCHAR 4F0D
ENCODING 20237
SWIDTH 1020 0
DWIDTH 17 0
BBX 16 17 0 -2
BITMAP
0800
0C3E
0C3E
0BC0
10C0
10C0
20C0
28FC
67C8
A0C8
2188
2188
2188
2188
31BF
2FC0
2000
ENDCHAR
STARTCHAR 4F0E
ENCODING 20238
SWIDTH 1020 0
DWIDTH 17 0
BBX 16 17 0 -2
BITMAP
0830
0810
0810
0C1F
0BF0
1010
1010
321E
51E2
90C4
1024
1018
1008
1014
1022
11C1
1601
ENDCHAR
STARTCHAR 4F0F
ENCODING 20239
SWIDTH 1020 0
DWIDTH 17 0
BBX 16 17 0 -2
BITMAP
09D0
08C8
08C8
10C4
10C4
20C0
30FF
6FC0
A0E0
20D0
2188
2188
2204
2202
2402
2801
3001
ENDCHAR
STARTCHAR 4F10
ENCODING 20240
SWIDTH 1020 0
DWIDTH 17 0
BBX 16 17 0 -2
BITMAP
08E8
0824
0824
0822
1022
183F
17E0
3024
5024
9028
1018
1010
1030
10CA
138A
1C06
1003
ENDCHAR
STARTCHAR 4F11
ENCODING 20241
SWIDTH 1020 0
DWIDTH 17 0
BBX 16 17 0 -2
BITMAP
08E0
0820
0820
0820
1020
183F
27E0
20F0
61A8
A1A4
2222
2222
2421
2821
2020
2020
2020
ENDCHAR
STARTCHAR 4F1A
ENCODING 20250
SWIDTH 1020 0
DWIDTH 17 0
BBX 16 17 0 -2
BITMAP
0180
02C0
02C0
0230
0408
0804
18FA
2781
C001
40FE
3F80
0210
0408
0434
0BC4
7C02
0002
ENDCHAR
STARTCHAR 4F1C
ENCODING 20252
SWIDTH 1020 0
DWIDTH 17 0
BBX 16 17 0 -2
BITMAP
11C0
10C0
10C0
14F8
13D0
2192
2192
220F
6CE0
A020
283F
27E0
2020
2020
2020
2020
2020
ENDCHAR
STARTCHAR 4F1D
ENCODING 20253
SWIDTH 1020 0
DWIDTH 17 0
BBX 16 17 0 -2
BITMAP
0800
0A1E
0A1E
09E0
1000
1000
281F
27E0
60C0
A0D0
20C8
2184
2184
219A
22E2
2F81
2001
ENDCHAR
STARTCHAR 4F2F
ENCODING 20271
SWIDTH 1020 0
DWIDTH 17 0
BBX 16 17 0 -2
BITMAP
0820
0820
0820
10C0
16DF
23E2
2202
6202
A202
221E
23E2
2202
2202
2202
221E
23E2
2202
ENDCHAR
STARTCHAR 4F30
ENCODING 20272
SWIDTH 1020 0
DWIDTH 17 0
BBX 16 17 0 -2
BITMAP
08E0
0820
0820
1020
1020
183F
27E0
2020
6020
A63E
23E4
2204
2204
2204
221C
23E4
2204
ENDCHAR
STARTCHAR 4F34
ENCODING 20276
SWIDTH 1020 0
DWIDTH 17 0
BBX 16 17 0 -2
BITMAP
08E4
0A24
0A24
0A28
11A8
11A0
283E
27E0
6020
A020
303F
2FE0
2020
2020
2020
2020
2020
ENDCHAR
STARTCHAR 4F36
ENCODING 20278
SWIDTH 1020 0
DWIDTH 17 0
BBX 16 17 0 -2
BITMAP
08C0
08E0
08E0
0990
1188
1234
13C2
3402
583D
97C4
10C4
10C4
10D4
10CC
10C8
10C0
10C0
ENDCHAR
STARTCHAR 4F38
ENCODING 20280
SWIDTH 1020 0
DWIDTH 17 0
BBX 16 17 0 -2
BITMAP
08E0
0820
0820
0820
163F
13E2
2222
223E
63E2
A222
223E
23E2
2220
2020
2020
2020
2020
ENDCHAR
STARTCHAR 4F3A
ENCODING 20282
SWIDTH 1020 0
DWIDTH 17 0
BBX 16 17 0 -2
BITMAP
0800
0C3F
0C3F
0BC2
1002
14FA
2382
2002
66FA
A392
2212
22F2
2392
2002
200A
2006
2004
ENDCHAR
STARTCHAR 4F3C
ENCODING 20284
SWIDTH 1020 0
DWIDTH 17 0
BBX 16 17 0 -2
BITMAP
0E0C
0B84
0B84
12C4
1224
2214
2214
6204
A204
2224
22C4
2388
220C
2412
3822
21C1
2601
ENDCHAR
STARTCHAR 4F3D
ENCODING 20285
SWIDTH 1020 0
DWIDTH 17 0
BBX 16 17 0 -2
BITMAP
1380
1180
1180
1180
1180
29EB
2E2D
6229
A229
2229
2229
2229
2429
242B
2ACD
31C9
2180
ENDCHAR
STARTCHAR 4F43
ENCODING 20291
SWIDTH 1020 0
DWIDTH 17 0
BBX 16 17 0 -2
BITMAP
0800
0A1F
0A1F
0BE2
1222
1222
2222
223E
63E2
A222
2222
2222
2222
2222
223E
23E2
2202
ENDCHAR
STARTCHAR 4F46
ENCODING 20294
SWIDTH 1020 0
DWIDTH 17 0
BBX 16 17 0 -2
BITMAP
0800
0A3E
0A3E
13C4
1204
2204
223C
63C4
A204
2204
223C
23C4
2200
2000
283F
27C0
2000
ENDCHAR
STARTCHAR 4F47
ENCODING 20295
SWIDTH 1020 0
DWIDTH 17 0
BBX 16 17 0 -2
BITMAP
08E0
0820
0820
0A20
123F
13C2
2404
2800
643F
A3E0
2020
2020
2020
2020
21A0
20E0
20C0
ENDCHAR
STARTCHAR 4F4D
ENCODING 20301
SWIDTH 1020 0
DWIDTH 17 0
BBX 16 17 0 -2
BITMAP
08E0
0820
0820
0820
1020
143E
23C0
2004
6204
A208
2188
2188
2190
2190
283F
27C0
2000
ENDCHAR
STARTCHAR 4F4E
ENCODING 20302
SWIDTH 1020 0
DWIDTH 17 0
BBX 16 17 0 -2
BITMAP
080C
0E30
0E30
13D0
1210
2210
221F
63F0
A210
2208
2218
22E8
2389
2C05
20F6
2783
2001
ENDCHAR
STARTCHAR 4F4F
ENCODING 20303
SWIDTH 1020 0
DWIDTH 17 0
BBX 16 17 0 -2
BITMAP
09C0
0820
0820
1020
181E
27E0
2020
6020
A020
243C
23E0
2020
2020
2020
283F
27C0
2000
ENDCHAR
STARTCHAR 4F50
ENCODING 20304
SWIDTH 1020 0
DWIDTH 17 0
BBX 16 17 0 -2
BITMAP
0820
0820
0820
0820
10C0
18DF
27E0
2180
6180
A21E
25E0
2820
3020
2020
283F
27C0
2000
ENDCHAR
STARTCHAR 4F51
ENCODING 20305
SWIDTH 1020 0
DWIDTH 17 0
BBX 16 17 0 -2
BITMAP
08C0
08C0
08C0
10C0
18DF
17E0
20C0
2180
6180
A23E
27C4
2A04
3204
2204
223C
23C4
2204
ENDCHAR
STARTCHAR 4F53
ENCODING 20307
SWIDTH 1020 0
DWIDTH 17 0
BBX 16 17 0 -2
BITMAP
08E0
0820
0820
1020
1020
283F
27F0
61A8
A1A8
2224
2222
2422
2C3D
33E1
2020
2020
2020
ENDCHAR
STARTCHAR 4F55
ENCODING 20309
SWIDTH 1020 0
DWIDTH 17 0
BBX 16 17 0 -2
BITMAP
0800
0800
0800
081F
17E4
1004
2004
2DF4
6624
A424
2424
25E4
2624
2404
2014
200C
2008
ENDCHAR
STARTCHAR 4F57
ENCODING 20311
SWIDTH 1020 0
DWIDTH 17 0
BBX 16 17 0 -2
BITMAP
08E0
0820
0820
0A22
123F
17C2
3404
3380
518C
9190
11E0
1180
1180
1182
1182
10C2
103F
ENDCHAR
STARTCHAR 4F59
ENCODING 20313
SWIDTH 1020 0
DWIDTH 17 0
BBX 16 17 0 -2
BITMAP
0180
02E0
02E0
0210
0408
0804
11FA
2F81
C180
41FE
3F80
0190
0988
1184
2582
C382
0200
ENDCHAR
STARTCHAR 4F5A
ENCODING 20314
SWIDTH 1020 0
DWIDTH 17 0
BBX 16 17 0 -2
BITMAP
10E0
1220
1220
1220
123E
23E0
2420
2820
703F
AFE0
20D0
20C8
2184
2182
2202
2401
3801
ENDCHAR
STARTCHAR 4F5B
ENCODING 20315
SWIDTH 1020 0
DWIDTH 17 0
BBX 16 17 0 -2
BITMAP
13B0
1190
1190
19BF
17D2
2192
2DBE
67D2
6590
A5BF
2FD1
2991
219A
2216
2214
2410
3810
ENDCHAR
STARTCHAR 4F5C
ENCODING 20316
SWIDTH 1020 0
DWIDTH 17 0
BBX 16 17 0 -2
BITMAP
08C0
08C0
08C0
08C0
099F
11E0
1220
342E
5830
9020
1020
102F
1030
1020
1020
1020
1020
ENDCHAR
STARTCHAR 4F5D
ENCODING 20317
SWIDTH 1020 0
DWIDTH 17 0
BBX 16 17 0 -2
BITMAP
1180
1180
1180
1180
121F
23E2
2402
2E3A
73D2
A212
2232
23D2
2204
2004
2024
2018
2010
ENDCHAR
STARTCHAR 4F5E
ENCODING 20318
SWIDTH 1020 0
DWIDTH 17 0
BBX 16 17 0 -2
BITMAP
1000
143C
143C
13C0
2000
283F
27C0
60C0
A0C0
29BF
27C4
2184
22C8
2030
2028
21C4
2E02
ENDCHAR
STARTCHAR 4F69
ENCODING 20329
SWIDTH 1020 0
DWIDTH 17 0
BBX 16 17 0 -2
BITMAP
1000
1C3E
1C3E
17C4
1404
263C
25E4
2424
67BC
A5E4
25A4
25AD
29AD
29BA
29AA
3023
2021
ENDCHAR
STARTCHAR 4F6F
ENCODING 20335
SWIDTH 1020 0
DWIDTH 17 0
BBX 16 17 0 -2
BITMAP
1208
1188
1188
1190
141E
23E0
2020
223C
61E0
A020
283F
27E0
2020
2020
2020
2020
2020
ENDCHAR
STARTCHAR 4F70
ENCODING 20336
SWIDTH 1020 0
DWIDTH 17 0
BBX 16 17 0 -2
BITMAP
1000
183F
183F
17D0
1020
2020
263E
23C4
6204
A204
223C
23C4
2204
2204
223C
23C4
2204
ENDCHAR
STARTCHAR 4F73
ENCODING 20339
SWIDTH 1020 0
DWIDTH 17 0
BBX 16 17 0 -2
BITMAP
08E0
0820
0820
0C3E
13E0
1020
283F
27C0
6020
A020
243E
23E0
2020
2020
283F
27C0
2000
ENDCHAR
STARTCHAR 4F75
ENCODING 20341
SWIDTH 1020 0
DWIDTH 17 0
BBX 16 17 0 -2
BITMAP
0988
0988
0988
10D0
14DE
23E8
2188
6188
A9BF
27C8
2188
2188
2188
2208
2208
2408
2808
ENDCHAR
STARTCHAR 4F76
ENCODING 20342
SWIDTH 1020 0
DWIDTH 17 0
BBX 16 17 0 -2
BITMAP
08E0
0820
0820
0820
143F
13E0
2020
243E
63C0
A000
201E
23E4
2184
2184
219C
21E4
2184
ENDCHAR
STARTCHAR 4F7B
ENCODING 20347
SWIDTH 1020 0
DWIDTH 17 0
BBX 16 17 0 -2
BITMAP
13B0
1190
1190
1192
1192
2994
2590
2598
61D4
A392
2591
3991
2190
2212
2212
2412
380F
ENDCHAR
STARTCHAR 4F7C
ENCODING 20348
SWIDTH 1020 0
DWIDTH 17 0
BBX 16 17 0 -2
BITMAP
08E0
0820
0820
0820
143F
13C8
2184
2182
62CA
A428
2810
2018
2024
20C4
2182
2201
2C01
ENDCHAR
STARTCHAR 4F7F
ENCODING 20351
SWIDTH 1020 0
DWIDTH 17 0
BBX 16 17 0 -2
BITMAP
08E0
0820
0820
083F
17E0
1020
2C3F
27E2
6422
A43E
27E2
2420
21E0
20D8
2184
2202
2C01
ENDCHAR
STARTCHAR 4F83
ENCODING 20355
SWIDTH 1020 0
DWIDTH 17 0
BBX 16 17 0 -2
BITMAP
1000
163E
163E
13C4
2204
2204
223C
63C4
A000
26D8
22C8
22C8
22C8
24C8
24CA
28CA
3007
ENDCHAR
STARTCHAR 4F86
ENCODING 20358
SWIDTH 1020 0
DWIDTH 17 0
BBX 16 17 0 -2
BITMAP
0380
0180
0180
81FF
7F80
0188
1188
1194
2DA2
23C2
45B0
0588
0984
1182
2181
C181
0180
ENDCHAR
STARTCHAR 4F88
ENCODING 20360
SWIDTH 1020 0
DWIDTH 17 0
BBX 16 17 0 -2
BITMAP
08C0
08DE
08DE
09E4
1208
1588
20D0
20E0
63A0
AC2F
20F2
2184
2EC4
2028
2030
21C0
2E00
ENDCHAR
STARTCHAR 4F8B
ENCODING 20363
SWIDTH 1020 0
DWIDTH 17 0
BBX 15 17 0 -2
BITMAP
1006
19F2
19F2
1602
121A
22EA
23AA
622A
A62A
25CA
28CA
318A
2182
2202
240A
2806
3004
ENDCHAR
STARTCHAR 4F8D
ENCODING 20365
SWIDTH 1020 0
DWIDTH 17 0
BBX 16 17 0 -2
BITMAP
08E0
0820
0820
0C3E
13E0
1020
183F
37C4
5004
943F
13C4
1184
10C4
10C4
1014
100C
1008
ENDCHAR
STARTCHAR 4F8F
ENCODING 20367
SWIDTH 1020 0
DWIDTH 17 0
BBX 16 17 0 -2
BITMAP
10E0
1220
1220
1220
123E
27E0
2420
2820
683F
A7E0
21B0
21AC
2222
2421
2821
3020
2020
ENDCHAR
STARTCHAR 4F91
ENCODING 20369
SWIDTH 1020 0
DWIDTH 17 0
BBX 16 17 0 -2
BITMAP
10E0
1020
1020
183F
17C0
2180
221E
23E4
659C
A9E4
3184
219C
21E4
2184
2194
218C
2188
ENDCHAR
STARTCHAR 4F96
ENCODING 20374
SWIDTH 1020 0
DWIDTH 17 0
BBX 16 17 0 -2
BITMAP
0180
01C0
01C0
0230
0408
08F4
1782
2001
50FF
9FA4
1224
1224
1FFC
1224
1234
122C
1008
ENDCHAR
STARTCHAR 4F98
ENCODING 20376
SWIDTH 1020 0
DWIDTH 17 0
BBX 16 17 0 -2
BITMAP
10E0
1020
1020
1420
143F
27C2
281C
20E0
67C0
A0CF
28F0
27C0
20C0
20C2
20C2
20C2
203F
ENDCHAR
STARTCHAR 4F9B
ENCODING 20379
SWIDTH 1020 0
DWIDTH 17 0
BBX 16 17 0 -2
BITMAP
0818
09C8
09C8
08C8
10C8
14DE
23E8
20C8
60C8
A0C8
28DF
27E0
2008
2184
2202
2401
2801
ENDCHAR
STARTCHAR 4F9D
ENCODING 20381
SWIDTH 1020 0
DWIDTH 17 0
BBX 16 17 0 -2
BITMAP
08E0
0820
0820
1020
183F
27C0
2182
61C2
A224
2614
2A08
3208
2204
22E2
2382
2E01
2001
ENDCHAR
STARTCHAR 4FA0
ENCODING 20384
SWIDTH 1020 0
DWIDTH 17 0
BBX 16 17 0 -2
BITMAP
08E0
0820
0820
1020
183E
27E0
2424
6224
A1A8
31AF
2FF0
20C8
20C4
2184
2182
2201
2C01
ENDCHAR
STARTCHAR 4FA1
ENCODING 20385
SWIDTH 1020 0
DWIDTH 17 0
BBX 16 17 0 -2
BITMAP
1000
181F
181F
17E8
10C8
20C8
20C8
6CDF
A7E9
24C9
24C9
24C9
24C9
24C9
24DF
27E1
2401
ENDCHAR
STARTCHAR 4FAB
ENCODING 20395
SWIDTH 1020 0
DWIDTH 17 0
BBX 16 17 0 -2
BITMAP
10E0
1020
1020
183F
27C0
2200
2200
61FE
A0C0
20C0
28FF
27C8
2188
22D0
2030
21CC
2E02
ENDCHAR
STARTCHAR 4FAD
ENCODING 20397
SWIDTH 1020 0
DWIDTH 17 0
BBX 16 17 0 -2
BITMAP
0800
0E3E
0E3E
13C4
1204
1204
223C
23E4
6210
A208
22E4
2414
2412
2B81
30E1
2010
2008
ENDCHAR
STARTCHAR 4FAE
ENCODING 20398
SWIDTH 1020 0
DWIDTH 17 0
BBX 16 17 0 -2
BITMAP
0980
0980
0980
121F
13E0
2400
263E
6BE4
B224
2A3F
2FE4
2224
223F
27C8
2428
2018
2010
ENDCHAR
STARTCHAR 4FAF
ENCODING 20399
SWIDTH 1020 0
DWIDTH 17 0
BBX 16 17 0 -2
BITMAP
0800
0A3C
0A3C
09C8
1008
183F
27C0
2200
621E
A3E0
2420
283F
27E0
20D8
2184
2202
2C01
ENDCHAR
STARTCHAR 4FB5
ENCODING 20405
SWIDTH 1020 0
DWIDTH 17 0
BBX 16 17 0 -2
BITMAP
0800
0A3E
0A3E
11C4
123C
21C4
223C
61C0
A43F
27C2
243C
2BC8
20E8
2010
202C
21C2
2E01
ENDCHAR
STARTCHAR 4FB6
ENCODING 20406
SWIDTH 1020 0
DWIDTH 17 0
BBX 16 17 0 -2
BITMAP
0800
0B9E
0B9E
09E4
1184
1184
119C
31E4
51A0
9020
16DF
13E2
1202
1202
121E
13E2
1202
ENDCHAR
STARTCHAR 4FBF
ENCODING 20415
SWIDTH 1020 0
DWIDTH 17 0
BBX 16 17 0 -2
BITMAP
0800
081F
081F
0FE0
143E
13E4
223C
63E4
A224
223C
23E4
2220
21A0
20F0
20CC
2382
2C01
ENDCHAR
STARTCHAR 4FC2
ENCODING 20418
SWIDTH 1020 0
DWIDTH 17 0
BBX 16 17 0 -2
BITMAP
080C
0830
0830
0BC0
10C8
1190
1614
21A2
60CE
A1F1
2E21
21A8
2224
2222
2422
2820
2020
ENDCHAR
STARTCHAR 4FC3
ENCODING 20419
SWIDTH 1020 0
DWIDTH 17 0
BBX 16 17 0 -2
BITMAP
0800
0E1E
0E1E
13E4
1204
2204
221C
63E4
A220
2020
262E
2230
2220
23A0
24E0
2830
300F
ENDCHAR
STARTCHAR 4FC4
ENCODING 20420
SWIDTH 1020 0
DWIDTH 17 0
BBX 16 17 0 -2
BITMAP
1030
10D4
10D4
1392
2E12
2210
323F
6FD0
A214
22D4
2394
2E08
2209
2215
2AE6
2783
2401
ENDCHAR
STARTCHAR 4FCA
ENCODING 20426
SWIDTH 1020 0
DWIDTH 17 0
BBX 16 17 0 -2
BITMAP
08C0
08C8
08C8
118C
11FA
2FA2
21A0
6222
A2DF
2CC0
21BC
21C8
2230
2C10
20EC
2382
3C01
ENDCHAR
STARTCHAR 4FCE
ENCODING 20430
SWIDTH 1020 0
DWIDTH 17 0
BBX 16 16 0 -1
BITMAP
3000
11CE
11CE
10F4
10C4
28C4
24CC
42F4
52C4
90C4
10CC
18F4
24C4
22C4
44DF
83E0
ENDCHAR
STARTCHAR 4FD0
ENCODING 20432
SWIDTH 1020 0
DWIDTH 17 0
BBX 16 17 0 -2
BITMAP
10E3
1381
1381
1D99
1189
29E9
2789
2189
63C9
A3A9
25A9
2589
2981
3181
2185
2183
2182
ENDCHAR
STARTCHAR 4FD1
ENCODING 20433
SWIDTH 1020 0
DWIDTH 17 0
BBX 16 17 0 -2
BITMAP
1000
141E
141E
13E4
10C8
20D0
2C3F
27E2
643E
A7E2
2422
243E
27E2
2422
242A
2426
2424
ENDCHAR
STARTCHAR 4FD4
ENCODING 20436
SWIDTH 1020 0
DWIDTH 17 0
BBX 16 17 0 -2
BITMAP
1000
163C
163C
13C8
1238
23C8
2208
2238
63C8
A208
2238
23D0
2190
2192
2212
2412
380F
ENDCHAR
STARTCHAR 4FD7
ENCODING 20439
SWIDTH 1020 0
DWIDTH 17 0
BBX 16 17 0 -2
BITMAP
0800
0998
0998
1184
1222
2431
28C8
6184
A182
2201
261E
2BE4
2204
2204
221C
23E4
2204
ENDCHAR
STARTCHAR 4FD8
ENCODING 20440
SWIDTH 1020 0
DWIDTH 17 0
BBX 16 17 0 -2
BITMAP
101C
10E4
10E4
17A2
1221
2411
263C
29C8
6010
A0E0
281F
27F0
2010
2010
21A0
20E0
20C0
ENDCHAR
STARTCHAR 4FDA
ENCODING 20442
SWIDTH 1020 0
DWIDTH 17 0
BBX 16 17 0 -2
BITMAP
1000
143E
143E
17E4
1424
243C
27E4
2424
643C
A7E4
2020
283E
27E0
2020
303F
2FC0
2000
ENDCHAR
STARTCHAR 4FDB
ENCODING 20443
SWIDTH 1020 0
DWIDTH 17 0
BBX 16 17 0 -2
BITMAP
1180
11B8
11B8
13D0
1220
243E
2FC4
34C4
64FC
A7E4
25A0
21A0
21A0
2222
2222
2422
381F
ENDCHAR
STARTCHAR 4FDD
ENCODING 20445
SWIDTH 1020 0
DWIDTH 17 0
BBX 16 17 0 -2
BITMAP
0800
0E1E
0E1E
13E4
1204
2204
221C
63E4
A220
303F
2FE0
21B0
21A8
2224
2422
3821
2020
ENDCHAR
STARTCHAR 4FDF
ENCODING 20447
SWIDTH 1020 0
DWIDTH 17 0
BBX 16 17 0 -2
BITMAP
10C0
10D0
10D0
1188
11B4
23C2
2C02
223C
63C0
A4C0
28FE
37C0
21B0
2188
2204
2402
3801
ENDCHAR
STARTCHAR 4FE1
ENCODING 20449
SWIDTH 1020 0
DWIDTH 17 0
BBX 16 17 0 -2
BITMAP
0800
0A1C
0A1C
11E0
141F
13E0
2000
221C
61E0
A21C
21E0
261F
23E2
2202
221E
23E2
2202
ENDCHAR
STARTCHAR 4FE3
ENCODING 20451
SWIDTH 1020 0
DWIDTH 17 0
BBX 16 17 0 -2
BITMAP
0800
0B9E
0B9E
11E4
1184
119C
21E4
2180
641E
A3E0
2020
283F
27E0
20D8
2184
2202
2C01
ENDCHAR
STARTCHAR 4FE4
ENCODING 20452
SWIDTH 1020 0
DWIDTH 17 0
BBX 16 17 0 -2
BITMAP
1208
1188
1188
1190
183E
27E4
2024
243C
67E4
A420
283F
2FE1
21A2
222A
2426
3824
2020
ENDCHAR
STARTCHAR 4FE5
ENCODING 20453
SWIDTH 1020 0
DWIDTH 17 0
BBX 16 17 0 -2
BITMAP
08E0
0820
0820
0C3E
13E0
103E
27E4
2224
623C
A3E4
2224
223C
23E0
283F
27E0
2020
2020
ENDCHAR
STARTCHAR 4FEE
ENCODING 20462
SWIDTH 1020 0
DWIDTH 17 0
BBX 16 17 0 -2
BITMAP
08C0
08C0
08C0
10DF
11E4
2994
2A08
6814
A8E2
2B91
2814
28E5
2B89
2832
21C4
2018
21E0
ENDCHAR
STARTCHAR 4FEF
ENCODING 20463
SWIDTH 1020 0
DWIDTH 17 0
BBX 16 17 0 -2
BITMAP
10E0
1020
1020
1C3F
17C0
24CC
24C4
24C7
65BC
A5A4
2794
2594
2584
2984
2994
318C
2188
ENDCHAR
STARTCHAR 4FF3
ENCODING 20467
SWIDTH 1020 0
DWIDTH 17 0
BBX 16 17 0 -2
BITMAP
09D0
08D0
08D0
10D7
19D8
16D0
20D0
29D6
66D8
A0D0
20D0
23D7
2CD8
2190
2190
2210
2C10
ENDCHAR
STARTCHAR 4FF5
ENCODING 20469
SWIDTH 1020 0
DWIDTH 17 0
BBX 16 17 0 -2
BITMAP
08E0
0820
0820
143E
13E0
243E
23E0
6020
A83F
27C4
20E4
2198
2788
3984
21B2
21C2
2601
ENDCHAR
STARTCHAR 4FF6
ENCODING 20470
SWIDTH 1020 0
DWIDTH 17 0
BBX 16 17 0 -2
BITMAP
1380
1180
1180
11F7
1189
2192
29EA
278A
61CA
A5A4
25A4
29AA
298A
3592
2391
2221
21C1
ENDCHAR
STARTCHAR 4FF8
ENCODING 20472
SWIDTH 1020 0
DWIDTH 17 0
BBX 16 17 0 -2
BITMAP
08E0
0820
0820
143E
13E0
143E
23D0
28FF
67C4
A1A2
223D
25E0
3820
243E
23E0
2020
2020
ENDCHAR
STARTCHAR 4FFA
ENCODING 20474
SWIDTH 1020 0
DWIDTH 17 0
BBX 16 17 0 -2
BITMAP
08E0
0820
0820
083E
17D0
10EC
11A2
323D
57E5
9A3C
13E4
123C
13E4
1222
1022
1012
100F
ENDCHAR
STARTCHAR 4FFE
ENCODING 20478
SWIDTH 1020 0
DWIDTH 17 0
BBX 16 17 0 -2
BITMAP
1020
10C0
10C0
16DE
13E4
2224
223C
23E4
6224
A23C
23D0
2190
323F
2FD0
2010
2010
2010
ENDCHAR
STARTCHAR 5005
ENCODING 20485
SWIDTH 1020 0
DWIDTH 17 0
BBX 16 17 0 -2
BITMAP
10E0
1020
1020
143E
13C0
2188
2188
22D4
6212
A420
283F
27E0
2020
2020
2020
2020
2020
ENDCHAR
STARTCHAR 5006
ENCODING 20486
SWIDTH 1020 0
DWIDTH 17 0
BBX 16 17 0 -2
BITMAP
1000
181F
181F
17E0
1020
2C3F
27E2
2422
67BA
A5AA
25AA
25AA
26F6
2422
242A
2426
2404
ENDCHAR
STARTCHAR 5009
ENCODING 20489
SWIDTH 1020 0
DWIDTH 17 0
BBX 16 17 0 -2
BITMAP
0180
02C0
02C0
0230
04E8
0F84
18FA
2F91
C8F0
0F90
08F0
1F80
10FC
2F88
48F8
8F88
0808
ENDCHAR
STARTCHAR 500B
ENCODING 20491
SWIDTH 1020 0
DWIDTH 17 0
BBX 16 17 0 -2
BITMAP
0800
0E1F
0E1F
13E1
1211
139F
22F1
2211
62DD
A2F5
22C5
22CD
22F5
22C1
221F
23E1
2201
ENDCHAR
STARTCHAR 500D
ENCODING 20493
SWIDTH 1020 0
DWIDTH 17 0
BBX 16 17 0 -2
BITMAP
08E0
0820
0820
143E
13C8
2188
20D0
70DF
AFE0
2000
261E
23E4
2204
2204
221C
23E4
2204
ENDCHAR
STARTCHAR 500F
ENCODING 20495
SWIDTH 1020 0
DWIDTH 17 0
BBX 16 17 0 -2
BITMAP
1020
1020
1020
103E
10E4
2BA8
2818
68E6
ABA9
2824
2C3E
2BE0
28D0
20C8
2184
2202
2C01
ENDCHAR
STARTCHAR 5011
ENCODING 20497
SWIDTH 1020 0
DWIDTH 17 0
BBX 16 17 0 -2
BITMAP
1000
1DD7
1DD7
16D9
15D7
26D9
24D1
25D7
66D9
A401
2401
2401
2401
2401
2405
2403
2402
ENDCHAR
STARTCHAR 5012
ENCODING 20498
SWIDTH 1020 0
DWIDTH 17 0
BBX 16 17 0 -2
BITMAP
1003
18E1
18E1
1799
12C9
24E9
27A9
7D99
A189
29E9
2789
2189
2181
21E1
2385
2C03
2002
ENDCHAR
STARTCHAR 5014
ENCODING 20500
SWIDTH 1020 0
DWIDTH 17 0
BBX 16 17 0 -2
BITMAP
1000
1C3F
1C3F
17C2
1402
243E
27C0
2412
6592
A59E
25F2
2590
2A11
2A11
2A1F
33E1
2201
ENDCHAR
STARTCHAR 5016
ENCODING 20502
SWIDTH 1020 0
DWIDTH 17 0
BBX 16 17 0 -2
BITMAP
08E0
0820
0820
0C3E
13E0
1020
283F
27C8
6188
A8DF
27E0
2020
243E
23E0
2020
2020
2020
ENDCHAR
STARTCHAR 5019
ENCODING 20505
SWIDTH 1020 0
DWIDTH 17 0
BBX 16 17 0 -2
BITMAP
0800
0A3C
0A3C
09C8
1008
141F
2BE0
2980
699E
ABE0
2A20
2C3F
2BE0
28D8
2984
2202
2C01
ENDCHAR
STARTCHAR 501A
ENCODING 20506
SWIDTH 1020 0
DWIDTH 17 0
BBX 16 17 0 -2
BITMAP
10E0
1020
1020
143E
13D0
20C8
2184
2A3F
67C4
A004
25F4
2624
24E4
27A4
2414
200C
2008
ENDCHAR
STARTCHAR 501F
ENCODING 20511
SWIDTH 1020 0
DWIDTH 17 0
BBX 16 17 0 -2
BITMAP
0BB0
0990
0990
15BE
13D0
1190
29BF
27C0
6000
A63E
23C4
223C
23C4
2204
223C
23C4
2204
ENDCHAR
STARTCHAR 5021
ENCODING 20513
SWIDTH 1020 0
DWIDTH 17 0
BBX 16 17 0 -2
BITMAP
1000
163E
163E
13C4
123C
23C4
223C
23C4
6200
AC3F
27C2
243E
27C2
2402
243E
27C2
2402
ENDCHAR
STARTCHAR 5023
ENCODING 20515
SWIDTH 1020 0
DWIDTH 17 0
BBX 16 17 0 -2
BITMAP
1388
1188
1188
1188
11E8
2F97
241C
65E4
A6D4
24D4
24C8
24C8
24D4
2D92
2BA2
32C1
2181
ENDCHAR
STARTCHAR 5024
ENCODING 20516
SWIDTH 1020 0
DWIDTH 17 0
BBX 16 17 0 -2
BITMAP
10E0
183F
183F
17E0
2020
23BE
21E4
6D9C
A5E4
259C
25E4
259C
25E4
2580
241F
27E0
2400
ENDCHAR
STARTCHAR 5025
ENCODING 20517
SWIDTH 1020 0
DWIDTH 17 0
BBX 16 17 0 -2
BITMAP
10E0
1022
1022
143F
17C2
2404
2998
2186
6201
A401
2A1C
21E0
2020
2020
283F
27C0
2000
ENDCHAR
STARTCHAR 5026
ENCODING 20518
SWIDTH 1020 0
DWIDTH 17 0
BBX 16 17 0 -2
BITMAP
14E4
1224
1224
11A8
14FE
23E0
20D0
29BF
67C8
A204
23BA
25C9
2818
31E8
2182
20C2
203F
ENDCHAR
STARTCHAR 5028
ENCODING 20520
SWIDTH 1020 0
DWIDTH 17 0
BBX 16 17 0 -2
BITMAP
1000
1C1F
1C1F
17E2
1402
241E
27E2
2410
661F
A5F0
2410
259F
25F2
2982
299E
31E2
2182
ENDCHAR
STARTCHAR 5029
ENCODING 20521
SWIDTH 1020 0
DWIDTH 17 0
BBX 16 17 0 -2
BITMAP
10E0
1020
1020
143E
13E0
223C
21E0
283F
67C0
A03E
23E4
2224
223C
23E4
2214
220C
2208
ENDCHAR
STARTCHAR 502A
ENCODING 20522
SWIDTH 1020 0
DWIDTH 17 0
BBX 16 17 0 -2
BITMAP
10C0
10C4
10C4
159E
1604
2404
25DC
2604
6404
A4FC
27D4
20D0
2190
2192
2212
2412
380F
ENDCHAR
STARTCHAR 502B
ENCODING 20523
SWIDTH 1020 0
DWIDTH 17 0
BBX 16 17 0 -2
BITMAP
08C0
08E0
08E0
1190
1188
223C
27C2
6802
B43F
27E4
25A4
25BC
27E4
25A4
25B4
25AC
2408
ENDCHAR
STARTCHAR 502C
ENCODING 20524
SWIDTH 1020 0
DWIDTH 17 0
BBX 16 17 0 -2
BITMAP
10E0
102E
102E
1030
1020
263E
23C4
223C
63C4
A23C
23E4
2220
283F
27E0
2020
2020
2020
ENDCHAR
STARTCHAR 502D
ENCODING 20525
SWIDTH 1020 0
DWIDTH 17 0
BBX 16 17 0 -2
BITMAP
080C
0830
0830
13E0
183E
27E0
21B8
61A4
A222
24C1
38FF
27C8
2188
22D0
2038
21C4
2E02
ENDCHAR
STARTCHAR 5036
ENCODING 20534
SWIDTH 1020 0
DWIDTH 17 0
BBX 16 17 0 -2
BITMAP
0800
0A3E
0A3E
13C4
123C
23C4
2204
623C
A3C4
2204
223C
23C0
283F
27C0
218C
2202
2C01
ENDCHAR
STARTCHAR 5039
ENCODING 20537
SWIDTH 1020 0
DWIDTH 17 0
BBX 16 17 0 -2
BITMAP
08C0
08F0
08F0
08C8
119C
11E2
2221
263E
6BE4
B224
223C
23E4
22D0
20C8
2184
2202
2C01
ENDCHAR
STARTCHAR 5043
ENCODING 20547
SWIDTH 1020 0
DWIDTH 17 0
BBX 16 17 0 -2
BITMAP
1000
1C1F
1C1F
17E0
1400
25DE
24E4
24DC
64E4
A6DF
25E4
24D8
25A8
2424
24DF
27E0
2400
ENDCHAR
STARTCHAR 5047
ENCODING 20551
SWIDTH 1020 0
DWIDTH 17 0
BBX 16 17 0 -2
BITMAP
1000
1DE7
1DE7
16DA
14C2
25C6
26DA
2400
65E7
A61A
2422
25D4
2608
240C
2412
2421
25C1
ENDCHAR
STARTCHAR 5048
ENCODING 20552
SWIDTH 1020 0
DWIDTH 17 0
BBX 16 17 0 -2
BITMAP
1000
163C
163C
13C8
1238
23C8
2238
23C0
61BF
A3E2
2422
2CD2
34CA
25BA
27D4
240C
2008
ENDCHAR
STARTCHAR 5049
ENCODING 20553
SWIDTH 1020 0
DWIDTH 17 0
BBX 16 17 0 -2
BITMAP
08E0
0A3C
0A3C
11E8
18DF
27E0
219C
61E8
A198
21F0
241E
23F0
2190
29BF
27D0
2010
2010
ENDCHAR
STARTCHAR 504F
ENCODING 20559
SWIDTH 1020 0
DWIDTH 17 0
BBX 16 17 0 -2
BITMAP
0800
081F
081F
0FE0
121E
13E2
1202
221E
63E0
A21F
23F2
26D2
2ADE
33F2
22DA
22D6
2204
ENDCHAR
STARTCHAR 5050
ENCODING 20560
SWIDTH 1020 0
DWIDTH 17 0
BBX 16 17 0 -2
BITMAP
10E0
1020
1020
143E
13C8
2030
20C8
2DBF
67C4
A408
2432
25C4
2409
2832
2BC4
3018
23E0
ENDCHAR
STARTCHAR 5055
ENCODING 20565
SWIDTH 1020 0
DWIDTH 17 0
BBX 16 17 0 -2
BITMAP
1430
1412
1412
15D6
1618
2432
24D2
278F
6C20
B23E
23C4
223C
23C4
2204
223C
23C4
2204
ENDCHAR
STARTCHAR 5056
ENCODING 20566
SWIDTH 1020 0
DWIDTH 17 0
BBX 16 17 0 -2
BITMAP
11C0
10C4
10C4
14FC
13C4
20C8
28DF
27E8
60C4
A19C
23E4
259C
39E4
2184
219C
21E4
2184
ENDCHAR
STARTCHAR 505A
ENCODING 20570
SWIDTH 1020 0
DWIDTH 17 0
BBX 16 17 0 -2
BITMAP
1610
1210
1210
1210
13E0
2E27
223C
22C4
6BE4
ACD4
28C8
28CC
2BD4
2CD2
2822
20C1
2381
ENDCHAR
STARTCHAR 505C
ENCODING 20572
SWIDTH 1020 0
DWIDTH 17 0
BBX 16 17 0 -2
BITMAP
08E0
083E
083E
17E0
119C
11E8
2198
61E0
A41F
27E2
241E
2BE0
2020
2020
21A0
20E0
20C0
ENDCHAR
STARTCHAR 5065
ENCODING 20581
SWIDTH 1020 0
DWIDTH 17 0
BBX 16 17 0 -2
BITMAP
0830
0810
0810
159E
1EF4
259F
24F4
699C
AAF4
2F9E
32F0
2A10
2B9F
24F0
2A10
31C0
203F
ENDCHAR
STARTCHAR 506C
ENCODING 20588
SWIDTH 1020 0
DWIDTH 17 0
BBX 16 17 0 -2
BITMAP
1180
1180
1180
121F
13EA
24CA
2992
33D2
6422
A0D4
238C
2C28
2192
2591
24C5
2824
301E
ENDCHAR
STARTCHAR 5072
ENCODING 20594
SWIDTH 1020 0
DWIDTH 17 0
BBX 16 17 0 -2
BITMAP
0800
0E1E
0E1E
0BE4
1224
123C
23E4
2224
623C
A3C4
2224
2192
2589
2589
24C4
2834
300E
ENDCHAR
STARTCHAR 5074
ENCODING 20596
SWIDTH 1020 0
DWIDTH 17 0
BBX 15 17 0 -2
BITMAP
1006
1DE2
1DE2
16DA
24CA
25CA
26CA
64CA
A5CA
26CA
24CA
25CA
26C2
2582
22CA
2426
2824
ENDCHAR
STARTCHAR 5075
ENCODING 20597
SWIDTH 1020 0
DWIDTH 17 0
BBX 16 17 0 -2
BITMAP
08E0
082E
082E
1030
1020
163E
23C4
623C
A3C4
223C
23C4
2204
223C
23D4
20CC
2382
2C01
ENDCHAR
STARTCHAR 5076
ENCODING 20598
SWIDTH 1020 0
DWIDTH 17 0
BBX 16 17 0 -2
BITMAP
0800
0E3E
0E3E
0BE4
123C
13E4
2224
223C
63E0
AC3F
27E1
2429
2425
243D
27C5
2403
2402
ENDCHAR
STARTCHAR 5078
ENCODING 20600
SWIDTH 1020 0
DWIDTH 17 0
BBX 16 17 0 -2
BITMAP
1020
13F0
13F0
10C8
1184
223A
25C1
2809
77C9
A4D2
26D2
25E4
26D2
25D2
24C9
25C9
24C9
ENDCHAR
STARTCHAR 507D
ENCODING 20605
SWIDTH 1020 0
DWIDTH 17 0
BBX 16 17 0 -2
BITMAP
0810
0A10
0A10
09A0
15BC
13E8
20C8
21BE
61C4
A204
24FF
2F89
3025
2595
24DA
24C6
2804
ENDCHAR
STARTCHAR 5080
ENCODING 20608
SWIDTH 1020 0
DWIDTH 17 0
BBX 16 17 0 -2
BITMAP
10C0
10C0
10C0
15BE
17C4
24C4
24FC
27C4
64C4
A4DC
27E8
25AA
21AE
223A
2222
2422
381F
ENDCHAR
STARTCHAR 5085
ENCODING 20613
SWIDTH 1020 0
DWIDTH 17 0
BBX 16 17 0 -2
BITMAP
10EC
1022
1022
183F
17E0
203E
23E4
223C
63E4
A23C
23E4
2228
281F
27E8
2188
20D8
2010
ENDCHAR
STARTCHAR 508D
ENCODING 20621
SWIDTH 1020 0
DWIDTH 17 0
BBX 16 17 0 -2
BITMAP
08E0
0820
0820
143E
13C8
2188
29BF
6FE2
A824
383F
27C0
219C
21E8
2208
22D0
2430
3820
ENDCHAR
STARTCHAR 5091
ENCODING 20625
SWIDTH 1020 0
DWIDTH 17 0
BBX 16 17 0 -2
BITMAP
1202
12E2
12E2
17D7
24DA
2ACA
33AF
621A
A4E2
2822
283F
27E0
20F0
21A8
2224
2422
3821
ENDCHAR
STARTCHAR 5098
ENCODING 20632
SWIDTH 1020 0
DWIDTH 17 0
BBX 16 17 0 -2
BITMAP
0180
02E0
02E0
0418
0B86
3191
D198
19A4
25D2
5198
19A4
25C2
C1FF
7F80
0180
0180
0180
ENDCHAR
STARTCHAR 5099
ENCODING 20633
SWIDTH 1020 0
DWIDTH 17 0
BBX 16 17 0 -2
BITMAP
10C8
14DE
14DE
13E8
20C8
2CDF
27E0
659E
A5F2
259E
25F2
2592
259E
29F2
299A
3196
2184
ENDCHAR
STARTCHAR 509A
ENCODING 20634
SWIDTH 1020 0
DWIDTH 17 0
BBX 16 17 0 -2
BITMAP
1608
1208
1208
1208
13D0
2C17
25DC
2424
69D4
B194
258C
2204
238A
24CA
24D1
2821
31C1
ENDCHAR
STARTCHAR 50AC
ENCODING 20652
SWIDTH 1020 0
DWIDTH 17 0
BBX 16 17 0 -2
BITMAP
0822
0A22
0A22
0A3E
13E8
1188
219F
23F0
6610
AA1E
33F0
221E
23F0
2210
221F
23E0
2200
ENDCHAR
STARTCHAR 50AD
ENCODING 20653
SWIDTH 1020 0
DWIDTH 17 0
BBX 16 17 0 -2
BITMAP
0830
0C1F
0C1F
17F0
161E
25F4
261F
65F4
A61E
25F2
259E
25F2
259E
29F2
299A
3196
2194
ENDCHAR
STARTCHAR 50B2
ENCODING 20658
SWIDTH 1020 0
DWIDTH 17 0
BBX 16 17 0 -2
BITMAP
1608
1208
1208
1BC8
1610
2BD7
263C
33E4
6E14
A414
25CC
26C4
24CA
28CA
2D91
33A1
22C1
ENDCHAR
STARTCHAR 50B3
ENCODING 20659
SWIDTH 1020 0
DWIDTH 17 0
BBX 16 17 0 -2
BITMAP
10E0
143F
143F
13E0
103E
23E4
223C
23E4
623C
A3E2
203E
2FC9
303F
2FC8
21A8
20D8
2010
ENDCHAR
STARTCHAR 50B4
ENCODING 20660
SWIDTH 1020 0
DWIDTH 17 0
BBX 16 17 0 -2
BITMAP
1000
1C1F
1C1F
17E0
14DE
24E4
24C4
24DC
64E2
A58E
25EA
25AA
25AE
25E0
241F
27E0
2400
ENDCHAR
STARTCHAR 50B5
ENCODING 20661
SWIDTH 1020 0
DWIDTH 17 0
BBX 16 17 0 -2
BITMAP
08E0
0C3E
0C3E
13E0
123C
11E0
283F
27C4
623C
A3C4
223C
23C4
223C
23D4
22CC
2382
2C01
ENDCHAR
STARTCHAR 50B7
ENCODING 20663
SWIDTH 1020 0
DWIDTH 17 0
BBX 16 17 0 -2
BITMAP
0980
09BE
09BE
13C0
123C
25C8
29B8
61C8
A9BF
27C0
21BF
23EA
2CCA
2192
2634
21CC
2008
ENDCHAR
STARTCHAR 50BE
ENCODING 20670
SWIDTH 1020 0
DWIDTH 17 0
BBX 16 17 0 -2
BITMAP
0800
098F
098F
10F0
1010
2BDF
2AF2
6ACE
ACF2
28CE
2AF2
2AC2
2ADE
26EA
2024
20C2
2381
ENDCHAR
STARTCHAR 50C2
ENCODING 20674
SWIDTH 1020 0
DWIDTH 17 0
BBX 16 17 0 -2
BITMAP
10E0
123C
123C
13E4
1A3F
27E4
223C
23E0
643C
A3E4
323F
2FC8
2188
2390
20F0
238C
2C02
ENDCHAR
STARTCHAR 50C5
ENCODING 20677
SWIDTH 1020 0
DWIDTH 17 0
BBX 16 17 0 -2
BITMAP
0988
099E
099E
0FE8
1188
163E
23E4
2224
623C
A3E0
243E
23E0
223C
21E0
283F
27C0
2000
ENDCHAR
STARTCHAR 50C9
ENCODING 20681
SWIDTH 1020 0
DWIDTH 17 0
BBX 16 17 0 -2
BITMAP
0180
01C0
01C0
0230
0408
08F4
1782
20DD
CEE4
32C4
22CC
2EF4
3AD0
0810
142C
22C2
C182
ENDCHAR
STARTCHAR 50CA
ENCODING 20682
SWIDTH 1020 0
DWIDTH 17 0
BBX 16 17 0 -2
BITMAP
1000
183F
183F
17D0
11BE
27D4
25BC
27D0
71BF
AFC8
223C
27CA
2A39
33C8
2204
2204
21FE
ENDCHAR
STARTCHAR 50CD
ENCODING 20685
SWIDTH 1020 0
DWIDTH 17 0
BBX 16 17 0 -2
BITMAP
11D8
1E08
1E08
13E8
2E08
2BEF
6E39
ABE9
2E29
2A29
2BE9
2E29
2A09
33F2
2E1A
23E6
3C24
ENDCHAR
STARTCHAR 50CF
ENCODING 20687
SWIDTH 1020 0
DWIDTH 17 0
BBX 16 17 0 -2
BITMAP
08C0
08D8
08D8
11F0
11A0
223E
2FE4
6224
A23C
23E2
2192
262C
21DA
262A
21C9
2631
2020
ENDCHAR
STARTCHAR 50D1
ENCODING 20689
SWIDTH 1020 0
DWIDTH 17 0
BBX 16 17 0 -2
BITMAP
080C
0830
0830
13E0
183F
27E8
21B4
63D2
A5B1
29C0
343E
27C2
25BA
25CA
25BA
25C6
2404
ENDCHAR
STARTCHAR 50D5
ENCODING 20693
SWIDTH 1020 0
DWIDTH 17 0
BBX 16 17 0 -2
BITMAP
10D2
14D2
14D2
12D4
1AFF
27C8
2190
69BE
A7E0
243E
23E0
303F
2FF0
20C8
2184
2602
3801
ENDCHAR
STARTCHAR 50D6
ENCODING 20694
SWIDTH 1020 0
DWIDTH 17 0
BBX 16 17 0 -2
BITMAP
10E0
183F
183F
17E0
143E
23C0
203C
23C4
623C
A3C8
29BF
27C0
223C
23C4
223C
23C4
2204
ENDCHAR
STARTCHAR 50DA
ENCODING 20698
SWIDTH 1020 0
DWIDTH 17 0
BBX 16 17 0 -2
BITMAP
08E0
0820
0820
143E
13F1
298A
2584
623E
A7C9
2A38
23C8
2238
23E8
2224
25A2
28E1
30C1
ENDCHAR
STARTCHAR 50DE
ENCODING 20702
SWIDTH 1020 0
DWIDTH 17 0
BBX 16 17 0 -2
BITMAP
101C
10E4
10E4
17C2
1222
2C3C
27C8
243E
67C2
A404
243F
27C1
2415
2AD5
2ACA
3226
2404
ENDCHAR
STARTCHAR 50E3
ENCODING 20707
SWIDTH 1020 0
DWIDTH 17 0
BBX 16 17 0 -2
BITMAP
1398
19CE
19CE
17B8
1188
29EF
26D8
22D6
6421
AA3D
33C4
223C
23C4
2204
223C
23C4
2204
ENDCHAR
STARTCHAR 50E5
ENCODING 20709
SWIDTH 1020 0
DWIDTH 17 0
BBX 16 17 0 -2
BITMAP
10E0
143E
143E
13E0
183F
27C4
2217
2BCC
6627
A398
2C00
30FF
2FA0
21A0
2222
2422
381F
ENDCHAR
STARTCHAR 50E7
ENCODING 20711
SWIDTH 1020 0
DWIDTH 17 0
BBX 16 17 0 -2
BITMAP
0A08
0988
0988
15BF
17E2
143E
27E2
643E
A7C0
223E
23C4
223C
23C4
2204
223C
23C4
2204
ENDCHAR
STARTCHAR 50ED
ENCODING 20717
SWIDTH 1020 0
DWIDTH 17 0
BBX 16 17 0 -2
BITMAP
1204
1BD7
1BD7
161C
1B94
2FDF
2408
26D5
6BA6
B63C
23C4
223C
23C4
2204
223C
23C4
2204
ENDCHAR
STARTCHAR 50EE
ENCODING 20718
SWIDTH 1020 0
DWIDTH 17 0
BBX 16 17 0 -2
BITMAP
10E0
143E
143E
13E8
199F
27E0
201C
23E4
623C
A3E4
223C
23E0
283E
27E0
303F
2FC0
2000
ENDCHAR
STARTCHAR 50F5
ENCODING 20725
SWIDTH 1020 0
DWIDTH 17 0
BBX 16 17 0 -2
BITMAP
1000
183E
183E
17C0
103C
23E4
223C
23E4
6A3F
A7C0
203C
23E4
223C
23E4
323F
2FE0
2000
ENDCHAR
STARTCHAR 50F9
ENCODING 20729
SWIDTH 1020 0
DWIDTH 17 0
BBX 16 17 0 -2
BITMAP
1000
183F
183F
17D0
11BE
27D2
25BE
27C4
623C
A3C4
223C
23C4
223C
23C8
2184
2202
2C01
ENDCHAR
STARTCHAR 50FB
ENCODING 20731
SWIDTH 1020 0
DWIDTH 17 0
BBX 16 17 0 -2
BITMAP
1018
15C8
15C8
16EF
14DA
24D2
25D2
66D7
A438
25C8
26C8
2CEF
34F8
25C8
26C8
24C8
2008
ENDCHAR
STARTCHAR 5100
ENCODING 20736
SWIDTH 1020 0
DWIDTH 17 0
BBX 16 17 0 -2
BITMAP
0A08
0988
0988
15BE
13E0
143C
23E0
283E
67C4
A1D4
2792
29FF
2794
21D4
2F8A
2396
22E3
ENDCHAR
STARTCHAR 5101
ENCODING 20737
SWIDTH 1020 0
DWIDTH 17 0
BBX 16 17 0 -2
BITMAP
1190
1190
1190
123E
17E0
2A3C
23E0
223C
63E0
A23E
23C0
2CCB
27CD
24D9
24E9
2403
2402
ENDCHAR
STARTCHAR 5102
ENCODING 20738
SWIDTH 1020 0
DWIDTH 17 0
BBX 16 17 0 -2
BITMAP
10D0
16FC
16FC
13D4
12FC
23D4
22FC
23C0
6C3E
A7C0
243E
27D2
258A
2594
29A2
31C1
2601
ENDCHAR
STARTCHAR 5104
ENCODING 20740
SWIDTH 1020 0
DWIDTH 17 0
BBX 16 17 0 -2
BITMAP
10E0
143E
143E
13C8
2190
29BF
27C0
623C
A3C8
2238
23C8
2238
23E8
2192
2591
24C5
383C
ENDCHAR
STARTCHAR 5109
ENCODING 20745
SWIDTH 1020 0
DWIDTH 17 0
BBX 16 17 0 -2
BITMAP
10C0
10E0
10E0
1198
1184
223A
25C1
3817
65DA
A6D2
24D6
25DA
2608
238C
22D2
2422
29C1
ENDCHAR
STARTCHAR 5112
ENCODING 20754
SWIDTH 1020 0
DWIDTH 17 0
BBX 16 17 0 -2
BITMAP
1000
141E
141E
13E0
283F
2FE2
282C
73A8
A220
281F
27E0
2D9F
27E9
24C9
24CD
24CB
2402
ENDCHAR
STARTCHAR 5114
ENCODING 20756
SWIDTH 1020 0
DWIDTH 17 0
BBX 16 17 0 -2
BITMAP
10E0
143E
143E
13E0
123C
21C0
283F
27E2
643F
ABE4
243C
2BE7
259C
25A4
2794
240C
2008
ENDCHAR
STARTCHAR 5115
ENCODING 20757
SWIDTH 1020 0
DWIDTH 17 0
BBX 16 17 0 -2
BITMAP
1020
183F
183F
17C8
10D3
2BAE
2DAA
25AA
6BAD
B205
223C
23C4
223C
23C4
2204
2404
3804
ENDCHAR
STARTCHAR 5116
ENCODING 20758
SWIDTH 1020 0
DWIDTH 17 0
BBX 16 17 0 -2
BITMAP
1008
11C8
11C8
1E08
2BD3
2EDC
29E0
6EC3
6A1C
ABC0
2E00
283E
27D2
24D2
34FF
2FC0
2000
ENDCHAR
STARTCHAR 5118
ENCODING 20760
SWIDTH 1020 0
DWIDTH 17 0
BBX 16 17 0 -2
BITMAP
11C0
14FC
14FC
13C8
18FF
27C8
24F8
23C8
70FF
AFA4
2592
29FD
3794
2594
35FF
2F80
2000
ENDCHAR
STARTCHAR 511A
ENCODING 20762
SWIDTH 1020 0
DWIDTH 17 0
BBX 16 17 0 -2
BITMAP
1190
19BF
19BF
17D0
11BE
27D2
24FE
27C0
683F
AFC2
319C
21E8
2208
2DD0
2020
21C0
2E00
ENDCHAR
STARTCHAR 511F
ENCODING 20767
SWIDTH 1020 0
DWIDTH 17 0
BBX 16 17 0 -2
BITMAP
0A24
09A8
09A8
15BF
17C2
2A3C
21C8
67BC
A3C4
223C
23C4
223C
23C4
223C
23C8
2186
2E01
ENDCHAR
STARTCHAR 5121
ENCODING 20769
SWIDTH 1020 0
DWIDTH 17 0
BBX 16 17 0 -2
BITMAP
1000
161E
161E
13E4
123C
23E4
223C
23C4
6000
ABD7
2EDD
2BD7
2EDD
2AD5
2BD7
2EDD
28D1
ENDCHAR
STARTCHAR 512A
ENCODING 20778
SWIDTH 1020 0
DWIDTH 17 0
BBX 16 17 0 -2
BITMAP
0800
0C1E
0C1E
13E0
12DC
23E8
2218
63E8
AA1F
2FEA
32D4
2CFE
2194
23E8
2C18
20E6
2F81
ENDCHAR
STARTCHAR 5132
ENCODING 20786
SWIDTH 1020 0
DWIDTH 17 0
BBX 16 17 0 -2
BITMAP
1030
1A14
1A14
159C
13F4
2C18
219F
6BF0
A420
2AEC
25B4
2BAC
2DB4
29A4
2BAC
2DB4
29A4
ENDCHAR
STARTCHAR 5137
ENCODING 20791
SWIDTH 1020 0
DWIDTH 17 0
BBX 16 17 0 -2
BITMAP
1000
19E7
19E7
1618
19D7
2EDD
2AD4
2A3F
67C8
A4FE
27CA
24FE
2790
2BDC
2A32
33D2
260F
ENDCHAR
STARTCHAR 513A
ENCODING 20794
SWIDTH 1020 0
DWIDTH 17 0
BBX 16 17 0 -2
BITMAP
158A
1DEA
1DEA
1792
1594
2637
2BDC
2ED4
6BD7
AE1C
33D4
2E17
33DC
2E14
2597
28D8
3010
ENDCHAR
STARTCHAR 513B
ENCODING 20795
SWIDTH 1020 0
DWIDTH 17 0
BBX 16 17 0 -2
BITMAP
1224
11A8
11A8
15BF
17E9
2998
25F6
26DA
65AA
A5BE
27E0
283E
27E0
303F
2FD2
2589
28C9
ENDCHAR
STARTCHAR 513C
ENCODING 20796
SWIDTH 1020 0
DWIDTH 17 0
BBX 16 17 0 -2
BITMAP
1000
15D6
15D6
16DA
15D6
26D8
283F
2FC4
6AE8
A99F
2FF2
2A2A
2BEA
2A24
2BE6
3629
2031
ENDCHAR
STARTCHAR 513F
ENCODING 20799
SWIDTH 1020 0
DWIDTH 17 0
BBX 16 17 0 -2
BITMAP
0CE0
0420
0420
0420
0420
0420
0420
0420
0420
0820
0820
0820
1020
1022
2022
4012
800F
ENDCHAR
STARTCHAR 5140
ENCODING 20800
SWIDTH 1020 0
DWIDTH 17 0
BBX 16 16 0 -2
BITMAP
81FF
81FF
7EC0
04C0
04C0
04C0
04C0
04C0
04C0
08C0
08C0
10C0
10C2
20C2
4022
801F
ENDCHAR
STARTCHAR 5141
ENCODING 20801
SWIDTH 1020 0
DWIDTH 17 0
BBX 16 17 0 -2
BITMAP
0200
0200
0200
0210
0408
041C
0BE2
7CC2
04C0
04C0
04C0
04C0
08C0
08C2
10C2
2022
C01F
ENDCHAR
STARTCHAR 5143
ENCODING 20803
SWIDTH 1020 0
DWIDTH 17 0
BBX 16 16 0 -2
BITMAP
20FC
20FC
1F80
0000
0000
81FF
7EC0
04C0
04C0
04C0
04C0
08C0
08C2
10C2
2022
C01F
ENDCHAR
STARTCHAR 5144
ENCODING 20804
SWIDTH 1020 0
DWIDTH 17 0
BBX 16 16 0 -2
BITMAP
30FC
30FC
1F88
1008
1008
1008
1008
11F8
1EC8
14C0
04C0
08C0
08C2
10C2
2022
C01F
ENDCHAR
STARTCHAR 5145
ENCODING 20805
SWIDTH 1020 0
DWIDTH 17 0
BBX 16 17 0 -2
BITMAP
0380
0180
0180
81FF
7E00
0210
0408
04FC
1FC2
64C2
04C0
04C0
08C0
08C2
10C2
2022
C01F
ENDCHAR
STARTCHAR 5146
ENCODING 20806
SWIDTH 1020 0
DWIDTH 17 0
BBX 16 17 0 -2
BITMAP
0DC0
04C4
04C4
44C4
24C8
14D0
14C0
04E0
0CD8
34C4
C4C2
04C2
08C0
08C2
10C2
2022
C01F
ENDCHAR
STARTCHAR 5147
ENCODING 20807
SWIDTH 1020 0
DWIDTH 17 0
BBX 16 17 0 -2
BITMAP
0020
6C2C
6C2C
23C4
20C4
21A4
2234
2C04
21FC
3EC4
24C0
04C0
08C0
08C2
10C2
2022
C01F
ENDCHAR
STARTCHAR 5148
ENCODING 20808
SWIDTH 1020 0
DWIDTH 17 0
BBX 16 17 0 -2
BITMAP
0380
1980
1980
0980
11FC
1F80
2180
4180
81FF
7EC0
04C0
04C0
08C0
08C2
10C2
2022
C01F
ENDCHAR
STARTCHAR 5149
ENCODING 20809
SWIDTH 1020 0
DWIDTH 17 0
BBX 16 17 0 -2
BITMAP
0380
0184
0184
2184
1188
0990
09A0
81FF
7EC0
04C0
04C0
04C0
08C0
08C2
10C2
2022
C01F
ENDCHAR
STARTCHAR 514B
ENCODING 20811
SWIDTH 1020 0
DWIDTH 17 0
BBX 16 17 0 -2
BITMAP
0380
0180
0180
81FF
7F80
0180
31FC
1F88
1008
1008
11F8
1EC8
14C0
04C2
08C2
30C2
C03F
ENDCHAR
STARTCHAR 514C
ENCODING 20812
SWIDTH 1020 0
DWIDTH 17 0
BBX 16 17 0 -2
BITMAP
0420
05F0
05F0
0808
0804
18FA
2F91
4811
8810
09F0
0ED0
04C0
04C0
08C2
10C2
2022
C01F
ENDCHAR
STARTCHAR 514D
ENCODING 20813
SWIDTH 1020 0
DWIDTH 17 0
BBX 16 17 0 -2
BITMAP
0400
04F0
04F0
07A0
08C0
1180
31FE
DF84
1184
11FC
1FC4
14C0
04C0
04C2
08C2
30C2
C03F
ENDCHAR
STARTCHAR 514E
ENCODING 20814
SWIDTH 1020 0
DWIDTH 17 0
BBX 16 17 0 -2
BITMAP
001C
01E0
01E0
3F80
0180
61FE
3F84
2184
2184
21FC
3EC4
22D0
04C8
04CA
08C2
30C2
C03F
ENDCHAR
STARTCHAR 5150
ENCODING 20816
SWIDTH 1020 0
DWIDTH 17 0
BBX 16 16 0 -2
BITMAP
363C
363C
13C8
1208
1238
13C8
1208
1208
12F8
1388
08C0
08C0
08C2
10C2
2022
C01F
ENDCHAR
STARTCHAR 5152
ENCODING 20818
SWIDTH 1020 0
DWIDTH 17 0
BBX 16 17 0 -2
BITMAP
0208
34FC
34FC
1808
1008
12F8
1C08
1008
11F8
1EC8
14C0
04C0
08C0
08C2
10C2
2022
C01F
ENDCHAR
STARTCHAR 5154
ENCODING 20820
SWIDTH 1020 0
DWIDTH 17 0
BBX 16 16 0 -2
BITMAP
40FE
40FE
3F84
0408
08D0
3020
E0FE
3F84
2184
21FC
3EC4
22D0
04CA
08CA
3022
C01F
ENDCHAR
STARTCHAR 515A
ENCODING 20826
SWIDTH 1020 0
DWIDTH 17 0
BBX 16 17 0 -2
BITMAP
2388
1188
1188
0990
49FF
7E02
4004
99F8
0E10
0810
09F0
0ED0
04C0
04C2
08C2
30C2
C03F
ENDCHAR
STARTCHAR 515C
ENCODING 20828
SWIDTH 1020 0
DWIDTH 17 0
BBX 16 17 0 -2
BITMAP
0980
0980
0980
D2E7
6FAA
4422
45E2
4622
5C26
65EA
4622
04C0
04C0
04C2
08C2
3022
C01F
ENDCHAR
STARTCHAR 5162
ENCODING 20834
SWIDTH 1020 0
DWIDTH 17 0
BBX 16 17 0 -2
BITMAP
3030
1010
1010
9F9E
70F0
1010
DEDE
64E4
44C4
4CDC
74E8
29A8
2A28
2CCA
48CA
598A
8607
ENDCHAR
STARTCHAR 5165
ENCODING 20837
SWIDTH 1020 0
DWIDTH 17 0
BBX 16 17 0 -2
BITMAP
0180
07C0
07C0
0180
0180
0180
0180
0180
02C0
0220
0210
0408
0404
0804
1002
2001
C001
ENDCHAR
STARTCHAR 5168
ENCODING 20840
SWIDTH 1020 0
DWIDTH 17 0
BBX 16 16 0 -1
BITMAP
0180
01C0
01C0
0230
0408
0804
10FA
2F81
C180
0180
11F8
0F80
0180
0180
41FE
3E00
ENDCHAR
STARTCHAR 5169
ENCODING 20841
SWIDTH 1020 0
DWIDTH 17 0
BBX 16 16 0 -2
BITMAP
80FF
80FF
7F80
0180
0180
C1FF
7F82
4182
59B2
4992
4992
55AA
53C6
618A
4186
4184
ENDCHAR
STARTCHAR 516A
ENCODING 20842
SWIDTH 1020 0
DWIDTH 17 0
BBX 16 17 0 -2
BITMAP
0180
1FC0
1FC0
0430
0808
18F6
2781
E012
2F92
3224
2AC8
2624
3224
2A12
2A12
2612
2412
ENDCHAR
STARTCHAR 516B
ENCODING 20843
SWIDTH 1020 0
DWIDTH 17 0
BBX 16 17 0 -2
BITMAP
00C0
03E0
03E0
00C0
0C20
0420
0410
0410
0408
0808
0804
0804
1002
1002
2001
4001
8001
ENDCHAR
STARTCHAR 516C
ENCODING 20844
SWIDTH 1020 0
DWIDTH 17 0
BBX 16 16 0 -1
BITMAP
0020
04E0
04E0
0410
0808
0804
1182
1182
2181
4201
8210
0208
0404
04FC
0F82
7002
ENDCHAR
STARTCHAR 516D
ENCODING 20845
SWIDTH 1020 0
DWIDTH 17 0
BBX 16 16 0 -1
BITMAP
0380
0180
0180
0180
0180
81FF
7E00
0000
0820
0410
0408
0804
0804
1002
2002
4000
ENDCHAR
STARTCHAR 516E
ENCODING 20846
SWIDTH 1020 0
DWIDTH 17 0
BBX 16 17 0 -2
BITMAP
0420
05E0
05E0
0810
0808
10F4
1F82
2401
4400
84FC
0F88
0808
0008
0010
0190
00E0
00C0
ENDCHAR
STARTCHAR 5171
ENCODING 20849
SWIDTH 1020 0
DWIDTH 17 0
BBX 16 17 0 -2
BITMAP
0CE0
0420
0420
0420
44FE
3FA0
0420
0420
0420
85FF
7E00
0010
0408
0804
1002
2001
C001
ENDCHAR
STARTCHAR 5175
ENCODING 20853
SWIDTH 1020 0
DWIDTH 17 0
BBX 16 17 0 -2
BITMAP
0018
19E0
19E0
0E00
0800
08FC
0FA0
0820
0820
0820
89FF
7E00
0020
0418
0804
3002
C001
ENDCHAR
STARTCHAR 5176
ENCODING 20854
SWIDTH 1020 0
DWIDTH 17 0
BBX 16 17 0 -2
BITMAP
0C30
0410
0410
44FE
3F90
04F0
0790
0410
04F0
0790
0410
84FF
7F80
0430
080C
3002
C001
ENDCHAR
STARTCHAR 5177
ENCODING 20855
SWIDTH 1020 0
DWIDTH 17 0
BBX 16 16 0 -2
BITMAP
19F8
19F8
0E10
09F0
0E10
0810
09F0
0E10
0810
09F0
0E00
81FF
7E20
0418
1804
6002
ENDCHAR
STARTCHAR 5178
ENCODING 20856
SWIDTH 1020 0
DWIDTH 17 0
BBX 16 17 0 -2
BITMAP
0CE0
0420
0420
0420
65FE
3E24
2424
25FC
3E24
2424
2424
A5FF
7E00
0430
080C
3002
C001
ENDCHAR
STARTCHAR 517C
ENCODING 20860
SWIDTH 1020 0
DWIDTH 17 0
BBX 16 17 0 -2
BITMAP
0410
0220
0220
42FE
3FA0
12FE
0FA4
82FF
7FA4
0224
22FC
1FA4
0630
0A28
1224
2222
C221
ENDCHAR
STARTCHAR 5180
ENCODING 20864
SWIDTH 1020 0
DWIDTH 17 0
BBX 16 17 0 -2
BITMAP
05C6
9CD8
9CD8
64E2
0CC2
34FF
DF88
11F8
1F88
11F8
1FA0
44FE
3FA0
84FF
7F90
080C
7002
ENDCHAR
STARTCHAR 5182
ENCODING 20866
SWIDTH 1020 0
DWIDTH 17 0
BBX 16 16 0 -2
BITMAP
C0FF
C0FF
7F82
4002
4002
4002
4002
4002
4002
4002
4002
4002
4002
400A
4006
4004
ENDCHAR
STARTCHAR 5185
ENCODING 20869
SWIDTH 1020 0
DWIDTH 17 0
BBX 15 17 1 -2
BITMAP
0700
0300
0300
0300
C3FE
7F04
4304
4384
4444
4424
4814
5014
6004
4004
4014
400C
4008
ENDCHAR
STARTCHAR 5186
ENCODING 20870
SWIDTH 1020 0
DWIDTH 17 0
BBX 15 16 1 -2
BITMAP
C1FE
C1FE
7F04
4304
4304
4304
4304
43FC
7F04
4004
4004
4004
4004
4014
400C
4008
ENDCHAR
STARTCHAR 5189
ENCODING 20873
SWIDTH 1020 0
DWIDTH 17 0
BBX 16 17 0 -2
BITMAP
0380
0180
0180
0180
31FC
1F88
1188
11F8
1F88
1188
91FF
7E08
1008
1008
1028
1018
1010
ENDCHAR
STARTCHAR 518A
ENCODING 20874
SWIDTH 1020 0
DWIDTH 17 0
BBX 16 16 0 -2
BITMAP
30FE
30FE
1FA4
1224
1224
1224
1224
92FF
7FA4
1224
1224
1224
1224
1234
122C
1008
ENDCHAR
STARTCHAR 518C
ENCODING 20876
SWIDTH 1020 0
DWIDTH 17 0
BBX 16 16 0 -2
BITMAP
6EEE
6EEE
3434
2424
2424
2424
AFAF
74F4
2424
2424
2424
24C4
24C4
5594
4E0C
8808
ENDCHAR
STARTCHAR 518D
ENCODING 20877
SWIDTH 1020 0
DWIDTH 17 0
BBX 16 16 0 -2
BITMAP
80FF
80FF
7F80
0180
31FC
1F88
1188
11F8
1F88
1188
91FF
7E08
1008
1028
1018
1010
ENDCHAR
STARTCHAR 518F
ENCODING 20879
SWIDTH 1020 0
DWIDTH 17 0
BBX 16 16 0 -2
BITMAP
C1FF
C1FF
7EC2
44C2
44CA
44CA
483A
5002
6DF2
4622
4422
44E2
47A2
442A
4006
4004
ENDCHAR
STARTCHAR 5190
ENCODING 20880
SWIDTH 1020 0
DWIDTH 17 0
BBX 16 16 0 -2
BITMAP
C1FF
C1FF
7E02
51FA
4E02
51FA
4E00
11F8
1E08
11F8
1E08
11F8
1E08
1028
1018
1010
ENDCHAR
STARTCHAR 5191
ENCODING 20881
SWIDTH 1020 0
DWIDTH 17 0
BBX 14 17 1 -2
BITMAP
0700
C3FC
C3FC
7F08
43F8
7F08
43F8
7C00
03F8
3C10
23D0
2C10
23D0
2C10
2050
2030
2020
ENDCHAR
STARTCHAR 5192
ENCODING 20882
SWIDTH 1020 0
DWIDTH 17 0
BBX 13 16 2 -2
BITMAP
C3F8
C3F8
7E10
43F0
7E10
43F0
7E00
23F0
3E20
23E0
3E20
23E0
3E20
23E0
3E20
2020
ENDCHAR
STARTCHAR 5193
ENCODING 20883
SWIDTH 1020 0
DWIDTH 17 0
BBX 16 17 0 -2
BITMAP
0420
45FE
45FE
3E20
25FC
1E20
85FF
7F80
01FC
1F88
11F8
1F88
91FF
7E08
1028
1018
1010
ENDCHAR
STARTCHAR 5195
ENCODING 20885
SWIDTH 1020 0
DWIDTH 17 0
BBX 16 16 0 -2
BITMAP
61FE
61FE
3E04
21F4
2E04
29F4
2EC0
1180
23FE
FF84
2184
21FC
3EC4
04C2
1822
E01F
ENDCHAR
STARTCHAR 5196
ENCODING 20886
SWIDTH 1020 0
DWIDTH 17 0
BBX 16 5 0 5
BITMAP
0002
41FF
7E02
4004
8000
ENDCHAR
STARTCHAR 5197
ENCODING 20887
SWIDTH 1020 0
DWIDTH 17 0
BBX 16 16 0 -2
BITMAP
41FF
41FF
7E02
4004
8000
19E0
0EC0
08C0
08C0
08C0
08C0
08C0
10C2
10C2
2022
C01F
ENDCHAR
STARTCHAR 5199
ENCODING 20889
SWIDTH 1020 0
DWIDTH 17 0
BBX 16 16 0 -2
BITMAP
40FF
40FF
7F82
4404
84F0
0F80
0800
08F8
1F90
1010
81FF
7E20
0020
02C0
01C0
0180
ENDCHAR
STARTCHAR 51A0
ENCODING 20896
SWIDTH 1020 0
DWIDTH 17 0
BBX 16 16 0 -2
BITMAP
40FF
40FF
7F82
400C
A604
18C7
003C
8FC4
7424
2424
2404
2414
240C
440A
4202
81FF
ENDCHAR
STARTCHAR 51A2
ENCODING 20898
SWIDTH 1020 0
DWIDTH 17 0
BBX 16 16 0 -2
BITMAP
41FF
41FF
7E02
4004
A1F8
1E04
0404
3A08
1390
0CE0
75D8
02C4
04C2
1CC1
6381
0180
ENDCHAR
STARTCHAR 51A4
ENCODING 20900
SWIDTH 1020 0
DWIDTH 17 0
BBX 16 16 0 -2
BITMAP
41FF
41FF
7E02
50FC
8F88
04D0
0830
70FE
3F84
2184
21FC
3ED0
04CA
08CA
30C2
C03F
ENDCHAR
STARTCHAR 51A5
ENCODING 20901
SWIDTH 1020 0
DWIDTH 17 0
BBX 16 16 0 -2
BITMAP
40FF
40FF
7F82
4004
99F8
0E10
09F0
0E10
09F0
0F90
0980
81FF
7E20
0418
1804
6002
ENDCHAR
STARTCHAR 51A6
ENCODING 20902
SWIDTH 1020 0
DWIDTH 17 0
BBX 16 16 0 -2
BITMAP
40FF
40FF
7F82
40E4
A626
1838
0020
8FCE
74F2
14C4
1428
1418
2424
25C2
4202
81FF
ENDCHAR
STARTCHAR 51A8
ENCODING 20904
SWIDTH 1020 0
DWIDTH 17 0
BBX 16 16 0 -2
BITMAP
41FF
41FF
7E02
61FC
9E00
09F0
0E20
09E0
0E20
31FC
1F88
11F8
1F88
11F8
1F88
1008
ENDCHAR
STARTCHAR 51A9
ENCODING 20905
SWIDTH 1020 0
DWIDTH 17 0
BBX 16 16 0 -2
BITMAP
41FF
41FF
7E02
4208
B4FC
1808
10F8
1E08
11F8
1E00
11FF
3E22
C992
24D4
24CC
C008
ENDCHAR
STARTCHAR 51AA
ENCODING 20906
SWIDTH 1020 0
DWIDTH 17 0
BBX 16 16 0 -2
BITMAP
41FF
41FF
7E22
45FC
BE20
05F8
1E08
11F8
1E08
91FF
7F90
11FC
3F8A
D1A9
1198
1190
ENDCHAR
STARTCHAR 51AB
ENCODING 20907
SWIDTH 1020 0
DWIDTH 17 0
BBX 6 16 4 -2
BITMAP
40
40
20
18
18
00
0C
18
18
20
20
C0
20
20
20
20
ENDCHAR
STARTCHAR 51AC
ENCODING 20908
SWIDTH 1020 0
DWIDTH 17 0
BBX 16 17 0 -2
BITMAP
0400
0400
0400
04F8
0F90
1010
2C20
C2C0
01C0
0230
058C
08C2
3021
C600
01C0
0020
0010
ENDCHAR
STARTCHAR 51B0
ENCODING 20912
SWIDTH 1020 0
DWIDTH 17 0
BBX 16 17 0 -2
BITMAP
00E0
4020
4020
2022
2022
13A4
0DA8
01B0
1228
1224
2224
2422
C422
2821
31A1
20E0
20C0
ENDCHAR
STARTCHAR 51B1
ENCODING 20913
SWIDTH 1020 0
DWIDTH 17 0
BBX 16 16 0 -2
BITMAP
483F
483F
27C0
2180
119C
01E8
0988
1188
1208
2238
23C8
C208
2008
303F
2FC0
2000
ENDCHAR
STARTCHAR 51B2
ENCODING 20914
SWIDTH 1020 0
DWIDTH 17 0
BBX 16 17 0 -2
BITMAP
00E0
4020
4020
2020
2020
143F
07E2
0C22
1422
1422
143E
27E2
2420
C020
2020
2020
2020
ENDCHAR
STARTCHAR 51B3
ENCODING 20915
SWIDTH 1020 0
DWIDTH 17 0
BBX 16 17 0 -2
BITMAP
01C0
40C0
40C0
20C0
24FC
13C8
00C8
10C8
18FF
17C0
21A0
2190
C208
2204
2402
2802
3001
ENDCHAR
STARTCHAR 51B4
ENCODING 20916
SWIDTH 1020 0
DWIDTH 17 0
BBX 16 17 0 -2
BITMAP
4000
241E
241E
13E8
1188
0188
0988
09BF
17D8
1028
2028
20C8
C188
2208
2C28
2018
2010
ENDCHAR
STARTCHAR 51B5
ENCODING 20917
SWIDTH 1020 0
DWIDTH 17 0
BBX 16 16 0 -2
BITMAP
463E
463E
23C4
2204
1204
0204
0A3C
13D4
12D0
2190
2190
C210
2212
2412
2812
300F
ENDCHAR
STARTCHAR 51B6
ENCODING 20918
SWIDTH 1020 0
DWIDTH 17 0
BBX 15 17 0 -2
BITMAP
00C0
40C0
40C0
20D0
2188
119C
01E2
0E02
1000
163E
23C4
2204
C204
2204
223C
23C4
2204
ENDCHAR
STARTCHAR 51B7
ENCODING 20919
SWIDTH 1020 0
DWIDTH 17 0
BBX 16 17 0 -2
BITMAP
00C0
40E0
40E0
2190
2188
121C
03E2
1401
183E
17C4
20C4
20C4
C0D4
20CC
20C8
20C0
20C0
ENDCHAR
STARTCHAR 51BD
ENCODING 20925
SWIDTH 1020 0
DWIDTH 17 0
BBX 16 17 0 -2
BITMAP
0003
48F1
48F1
2781
2219
12E9
03A9
1429
1429
24C9
2AC9
3189
C181
2201
2405
2803
3002
ENDCHAR
STARTCHAR 51C4
ENCODING 20932
SWIDTH 1020 0
DWIDTH 17 0
BBX 16 17 0 -2
BITMAP
01C0
80C0
80C0
48FE
2FC0
24FC
13C8
18FF
17C8
24F8
23C0
32FF
CF88
2210
25B0
21CC
2E02
ENDCHAR
STARTCHAR 51C5
ENCODING 20933
SWIDTH 1020 0
DWIDTH 17 0
BBX 16 16 0 -2
BITMAP
483F
483F
2FC1
2821
2C3D
0BE1
0821
19B9
29C9
2989
29B9
C9C9
2981
283F
2FC1
2801
ENDCHAR
STARTCHAR 51C6
ENCODING 20934
SWIDTH 1020 0
DWIDTH 17 0
BBX 16 17 0 -2
BITMAP
00C4
40C4
40C4
2188
119F
13F0
0A10
0E1E
13F0
1210
221E
23F0
C210
2210
221F
23E0
2200
ENDCHAR
STARTCHAR 51C9
ENCODING 20937
SWIDTH 1020 0
DWIDTH 17 0
BBX 16 17 0 -2
BITMAP
00E0
4020
4020
243F
27E0
1000
061E
13E4
1204
121C
23E4
2420
C224
2222
25A1
28E1
20C0
ENDCHAR
STARTCHAR 51CB
ENCODING 20939
SWIDTH 1020 0
DWIDTH 17 0
BBX 16 16 0 -2
BITMAP
4C3F
4C3F
27C2
2422
263A
0DE2
1422
143E
17C2
25BA
25CA
C58A
29BA
29CA
3006
2004
ENDCHAR
STARTCHAR 51CC
ENCODING 20940
SWIDTH 1020 0
DWIDTH 17 0
BBX 16 17 0 -2
BITMAP
00E0
423C
423C
21E0
2020
183E
07D0
10D2
118F
12C0
2CDC
20E8
C1A8
2610
202C
21C2
2E01
ENDCHAR
STARTCHAR 51CD
ENCODING 20941
SWIDTH 1020 0
DWIDTH 17 0
BBX 16 17 0 -2
BITMAP
00E0
483F
483F
27E0
2020
163F
03E2
0A3E
13E2
1222
223E
23F2
C0E8
21A4
2222
2422
3821
ENDCHAR
STARTCHAR 51D6
ENCODING 20950
SWIDTH 1020 0
DWIDTH 17 0
BBX 16 17 0 -2
BITMAP
4188
2190
2190
223E
17E0
0C3C
17E0
143C
27E0
C43E
27C0
2180
81FF
7F80
0180
0180
0180
ENDCHAR
STARTCHAR 51DB
ENCODING 20955
SWIDTH 1020 0
DWIDTH 17 0
BBX 16 17 0 -2
BITMAP
0020
483F
483F
27C0
203E
13D4
02F4
0AC4
123C
13C0
243C
23C0
C83F
27E4
25A2
28E1
30C1
ENDCHAR
STARTCHAR 51DC
ENCODING 20956
SWIDTH 1020 0
DWIDTH 17 0
BBX 16 17 0 -2
BITMAP
0020
883F
883F
47C0
203E
27C2
043A
05CA
15BE
17D8
20E0
2BBF
47E0
40F8
41A4
8222
8C21
ENDCHAR
STARTCHAR 51DD
ENCODING 20957
SWIDTH 1020 0
DWIDTH 17 0
BBX 16 17 0 -2
BITMAP
04E0
8797
8797
44DA
24CC
2BE4
08CF
143A
17CC
2A28
2A2B
2FEC
C228
25B8
24E8
28C4
1183
ENDCHAR
STARTCHAR 51E0
ENCODING 20960
SWIDTH 1020 0
DWIDTH 17 0
BBX 16 16 0 -2
BITMAP
19F0
19F0
0E20
0820
0820
0820
0820
0820
0820
0820
1020
1020
1022
2022
4012
800F
ENDCHAR
STARTCHAR 51E1
ENCODING 20961
SWIDTH 1020 0
DWIDTH 17 0
BBX 16 16 0 -2
BITMAP
31F0
31F0
1E20
1020
1020
1820
1420
1220
1220
1220
1020
2020
2022
2022
4012
800F
ENDCHAR
STARTCHAR 51E6
ENCODING 20966
SWIDTH 1020 0
DWIDTH 17 0
BBX 16 17 0 -2
BITMAP
2000
21DC
21DC
2EE8
34C8
24C8
44C8
44C8
A4C8
28C8
298A
118A
120A
2C07
4400
8380
00FF
ENDCHAR
STARTCHAR 51E7
ENCODING 20967
SWIDTH 1020 0
DWIDTH 17 0
BBX 16 16 0 -2
BITMAP
61FE
61FE
3E04
2184
2184
29F4
2F94
2994
2994
2994
29D5
29B5
49A5
4182
4183
8181
ENDCHAR
STARTCHAR 51E9
ENCODING 20969
SWIDTH 1020 0
DWIDTH 17 0
BBX 16 16 0 -2
BITMAP
30FC
30FC
1F88
1188
1188
11F8
1F88
1188
13C8
13A8
15A5
2595
2996
5182
8183
0001
ENDCHAR
STARTCHAR 51EA
ENCODING 20970
SWIDTH 1020 0
DWIDTH 17 0
BBX 16 16 0 -2
BITMAP
61FC
61FC
3E08
2388
2188
2188
2D88
25E8
2588
2588
2584
2585
55F5
5E02
8003
0001
ENDCHAR
STARTCHAR 51ED
ENCODING 20973
SWIDTH 1020 0
DWIDTH 17 0
BBX 16 17 0 -2
BITMAP
100C
1030
1030
13E0
283F
67E0
A020
243E
23C0
0000
19F0
0E20
0820
0822
1022
2012
C00F
ENDCHAR
STARTCHAR 51F0
ENCODING 20976
SWIDTH 1020 0
DWIDTH 17 0
BBX 16 16 0 -2
BITMAP
31FC
31FC
1E08
13E8
1628
15E8
1628
15E8
1608
19F8
2789
29E5
2786
51FA
9E03
0001
ENDCHAR
STARTCHAR 51F1
ENCODING 20977
SWIDTH 1020 0
DWIDTH 17 0
BBX 16 17 0 -2
BITMAP
1800
49EE
49EE
49B4
4FA4
7024
8FA4
7024
27A4
3A24
2224
2E24
3424
25A5
16C5
18C6
E383
ENDCHAR
STARTCHAR 51F5
ENCODING 20981
SWIDTH 1020 0
DWIDTH 17 0
BBX 15 17 0 -2
BITMAP
C006
4002
4002
4002
4002
4002
4002
4002
4002
4002
4002
4002
4002
4002
41FE
7E02
4002
ENDCHAR
STARTCHAR 51F6
ENCODING 20982
SWIDTH 1020 0
DWIDTH 17 0
BBX 16 17 0 -2
BITMAP
0010
C013
C013
4011
4C21
4221
41A1
40C1
41A1
4191
4209
4405
5805
4001
43FF
7C01
4001
ENDCHAR
STARTCHAR 51F8
ENCODING 20984
SWIDTH 1020 0
DWIDTH 17 0
BBX 16 16 0 -2
BITMAP
0DF0
0DF0
0620
0420
0420
0420
CC2F
7432
4002
4002
4002
4002
4002
41FE
7E02
4002
ENDCHAR
STARTCHAR 51F9
ENCODING 20985
SWIDTH 1020 0
DWIDTH 17 0
BBX 16 14 0 -2
BITMAP
DEEF
6432
4422
4422
4422
4422
45E2
4622
4402
4002
4002
41FE
7E02
4002
ENDCHAR
STARTCHAR 51FA
ENCODING 20986
SWIDTH 1020 0
DWIDTH 17 0
BBX 14 17 1 -2
BITMAP
0700
4308
4308
4308
4308
4308
43F8
7F08
4300
0304
8304
8304
8304
8304
83FC
FC04
8004
ENDCHAR
STARTCHAR 51FD
ENCODING 20989
SWIDTH 1020 0
DWIDTH 17 0
BBX 16 16 0 -2
BITMAP
81FF
81FF
7E00
0400
05EA
CECA
48D2
50E2
4CD2
42CA
46CA
59C2
4182
41FE
7E02
4002
ENDCHAR
STARTCHAR 51FE
ENCODING 20990
SWIDTH 1020 0
DWIDTH 17 0
BBX 15 16 0 -2
BITMAP
20F8
20F8
1F90
0026
C2C2
41DA
75AA
5DCA
55AA
5592
5DAA
53CA
5182
43FE
7C02
4002
ENDCHAR
STARTCHAR 5200
ENCODING 20992
SWIDTH 1020 0
DWIDTH 17 0
BBX 16 14 0 -2
BITMAP
40FF
3F82
0202
0202
0202
0202
0202
0402
0404
0804
0804
1028
2018
C010
ENDCHAR
STARTCHAR 5203
ENCODING 20995
SWIDTH 1020 0
DWIDTH 17 0
BBX 16 16 0 -2
BITMAP
80FF
80FF
7F82
0182
0182
3182
0D82
0202
0382
02C2
0424
0424
0804
1028
2018
C010
ENDCHAR
STARTCHAR 5204
ENCODING 20996
SWIDTH 1020 0
DWIDTH 17 0
BBX 16 16 0 -2
BITMAP
40FE
40FE
3F84
0184
3184
0D84
0384
02E4
0218
040C
040A
0809
0818
10D0
2030
C020
ENDCHAR
STARTCHAR 5206
ENCODING 20998
SWIDTH 1020 0
DWIDTH 17 0
BBX 16 17 0 -2
BITMAP
00C0
05C0
05C0
0420
0810
0808
1004
20FE
5F85
8204
0204
0404
0408
0808
10D0
2030
C020
ENDCHAR
STARTCHAR 5207
ENCODING 20999
SWIDTH 1020 0
DWIDTH 17 0
BBX 16 17 0 -2
BITMAP
6000
2000
2000
221F
21F1
2611
2811
3011
E011
2021
2422
2422
24C2
1EC2
0194
020C
0C08
ENDCHAR
STARTCHAR 5208
ENCODING 21000
SWIDTH 1020 0
DWIDTH 17 0
BBX 15 17 0 -2
BITMAP
0006
0602
0602
0232
0212
C212
2212
1412
0C12
0412
0A02
0A02
1182
2192
400A
8006
0004
ENDCHAR
STARTCHAR 520A
ENCODING 21002
SWIDTH 1020 0
DWIDTH 17 0
BBX 16 17 0 -2
BITMAP
0003
4781
4781
3831
0811
0811
0811
8FD1
7811
0811
0811
0801
0801
0801
0805
0803
0802
ENDCHAR
STARTCHAR 520B
ENCODING 21003
SWIDTH 1020 0
DWIDTH 17 0
BBX 15 17 0 -2
BITMAP
0786
1802
1802
E8E2
0822
0822
8FA2
7822
0822
0822
1022
1022
1002
2002
200A
4006
8004
ENDCHAR
STARTCHAR 520E
ENCODING 21006
SWIDTH 1020 0
DWIDTH 17 0
BBX 16 17 0 -2
BITMAP
1003
1001
1001
1019
23E9
3EC9
52C9
94C9
24C9
24C9
48C9
8989
1181
2181
4A05
8603
0402
ENDCHAR
STARTCHAR 5211
ENCODING 21009
SWIDTH 1020 0
DWIDTH 17 0
BBX 15 17 0 -2
BITMAP
0006
47C2
47C2
3A32
1212
1212
1212
97D2
7A12
1212
1212
1202
1202
2202
220A
4206
8204
ENDCHAR
STARTCHAR 5214
ENCODING 21012
SWIDTH 1020 0
DWIDTH 17 0
BBX 16 17 0 -2
BITMAP
0C03
0401
0401
0419
47C9
3D89
0589
0589
87E9
7C09
0A09
0989
10C1
10C1
2005
4003
8002
ENDCHAR
STARTCHAR 5217
ENCODING 21015
SWIDTH 1020 0
DWIDTH 17 0
BBX 15 17 0 -2
BITMAP
0006
87C2
87C2
7832
1012
13D2
1D92
1192
2192
3212
4A12
8412
0402
0802
100A
2006
C004
ENDCHAR
STARTCHAR 521D
ENCODING 21021
SWIDTH 1020 0
DWIDTH 17 0
BBX 16 17 0 -2
BITMAP
3000
1000
1000
120F
9DF2
6422
0822
0A22
1422
3822
54C2
92C4
12C4
1184
1228
1418
1810
ENDCHAR
STARTCHAR 5224
ENCODING 21028
SWIDTH 1020 0
DWIDTH 17 0
BBX 15 17 0 -2
BITMAP
1986
4982
4982
4A32
2A12
2812
4F92
3812
0812
0812
8FD2
7812
0802
0802
080A
0806
0804
ENDCHAR
STARTCHAR 5225
ENCODING 21029
SWIDTH 1020 0
DWIDTH 17 0
BBX 15 17 0 -2
BITMAP
0006
67C2
67C2
39B2
2192
2192
2792
3992
2812
0BD2
1D92
1182
1182
2182
2A0A
4606
8404
ENDCHAR
STARTCHAR 5227
ENCODING 21031
SWIDTH 1020 0
DWIDTH 17 0
BBX 16 17 0 -2
BITMAP
1800
0800
0800
0987
4EF9
3811
0811
8F91
7811
1021
1422
2422
2EC2
32C2
C194
020C
0C08
ENDCHAR
STARTCHAR 5229
ENCODING 21033
SWIDTH 1020 0
DWIDTH 17 0
BBX 15 17 0 -2
BITMAP
0386
0C02
0C02
7832
0812
8FD2
7812
1C12
1A12
2992
2992
4812
8802
0802
080A
0806
0804
ENDCHAR
STARTCHAR 522A
ENCODING 21034
SWIDTH 1020 0
DWIDTH 17 0
BBX 16 17 0 -2
BITMAP
0003
C7E1
C7E1
7CD9
54C9
54C9
54C9
D7E9
7CC9
54C9
54C9
54C9
54C1
54C1
56C5
55C3
4182
ENDCHAR
STARTCHAR 522E
ENCODING 21038
SWIDTH 1020 0
DWIDTH 17 0
BBX 16 17 0 -2
BITMAP
0383
0C01
0C01
F831
0811
0811
8FD1
7811
0811
0811
CFD1
7981
4181
4181
4F85
7183
4182
ENDCHAR
STARTCHAR 5230
ENCODING 21040
SWIDTH 1020 0
DWIDTH 17 0
BBX 15 17 0 -2
BITMAP
0006
8782
8782
78E2
1422
1222
2622
39A2
D1A2
1022
9E22
7022
1182
1602
180A
E006
0004
ENDCHAR
STARTCHAR 5233
ENCODING 21043
SWIDTH 1020 0
DWIDTH 17 0
BBX 16 17 0 -2
BITMAP
1803
0801
0801
8FD9
7C09
1389
20C9
66C9
9809
47C9
3809
17C9
1981
2181
0A05
0603
0402
ENDCHAR
STARTCHAR 5236
ENCODING 21046
SWIDTH 1020 0
DWIDTH 17 0
BBX 15 17 0 -2
BITMAP
2806
2802
2802
2FB2
7812
4812
8FD2
7812
0812
CFD2
7992
4992
4982
4D82
4B8A
4A06
0804
ENDCHAR
STARTCHAR 5237
ENCODING 21047
SWIDTH 1020 0
DWIDTH 17 0
BBX 16 17 0 -2
BITMAP
0003
63E1
63E1
3CD9
20C9
23C9
3EC9
2209
3BE9
2EC9
2AC9
2AC1
2AC1
4BC1
4AC5
8203
0202
ENDCHAR
STARTCHAR 5238
ENCODING 21048
SWIDTH 1020 0
DWIDTH 17 0
BBX 16 17 0 -2
BITMAP
0388
1188
1188
0990
49FE
3F80
02C0
82FF
7F90
080C
10F2
2F91
C210
0210
05A0
08E0
30C0
ENDCHAR
STARTCHAR 5239
ENCODING 21049
SWIDTH 1020 0
DWIDTH 17 0
BBX 16 17 0 -2
BITMAP
0203
6201
6201
1431
0C11
1211
2191
D991
0811
8FD1
7811
1C11
2A01
2981
4805
8803
0802
ENDCHAR
STARTCHAR 523A
ENCODING 21050
SWIDTH 1020 0
DWIDTH 17 0
BBX 15 17 0 -2
BITMAP
1806
0832
0832
8FD2
7812
0812
CFD2
7992
4992
4B92
5992
1C12
2A02
2982
48CA
8806
0804
ENDCHAR
STARTCHAR 523B
ENCODING 21051
SWIDTH 1020 0
DWIDTH 17 0
BBX 15 17 0 -2
BITMAP
1806
0832
0832
0812
8FD2
7A12
1212
5412
2592
1992
1212
2212
C402
0A02
118A
20C6
C0C4
ENDCHAR
STARTCHAR 5243
ENCODING 21059
SWIDTH 1020 0
DWIDTH 17 0
BBX 15 17 0 -2
BITMAP
4406
2402
2402
AFB2
7992
0992
4F92
7992
4812
4FD2
F8D2
98D2
2D82
2B82
4A0A
8806
0804
ENDCHAR
STARTCHAR 5244
ENCODING 21060
SWIDTH 1020 0
DWIDTH 17 0
BBX 15 17 1 -2
BITMAP
0006
87C2
87C2
79B2
2B12
5312
8992
4852
2452
A792
7812
0812
0802
0BC2
1C0A
E006
0004
ENDCHAR
STARTCHAR 5247
ENCODING 21063
SWIDTH 1020 0
DWIDTH 17 0
BBX 15 17 0 -2
BITMAP
0006
6F82
6F82
3232
2212
2E12
3212
2212
2E12
3212
2212
2E12
3202
2402
120A
2186
C184
ENDCHAR
STARTCHAR 524A
ENCODING 21066
SWIDTH 1020 0
DWIDTH 17 0
BBX 15 17 0 -2
BITMAP
9986
49B2
49B2
2A12
2A12
CFD2
7192
4192
4F92
7192
4192
4F82
7182
4182
458A
4386
4204
ENDCHAR
STARTCHAR 524B
ENCODING 21067
SWIDTH 1020 0
DWIDTH 17 0
BBX 16 17 0 -2
BITMAP
300C
1004
1004
9EE4
7024
1024
DFA4
6224
4224
4E24
7A04
2814
280C
2808
4802
4402
83FF
ENDCHAR
STARTCHAR 524C
ENCODING 21068
SWIDTH 1020 0
DWIDTH 17 0
BBX 15 17 0 -2
BITMAP
1806
0802
0802
8FB2
7812
0812
CF92
7992
4992
4F92
7812
1E12
2982
28C2
480A
8806
0804
ENDCHAR
STARTCHAR 524D
ENCODING 21069
SWIDTH 1020 0
DWIDTH 17 0
BBX 16 17 0 -2
BITMAP
0820
0420
0420
84FF
7F80
000C
6EE4
3224
2E24
3224
2224
2E24
3224
2204
2A14
260C
2408
ENDCHAR
STARTCHAR 524F
ENCODING 21071
SWIDTH 1020 0
DWIDTH 17 0
BBX 16 17 0 -2
BITMAP
4400
258F
258F
28F2
9E12
65D2
2432
241A
AF96
7422
2423
2422
24C4
24C4
459C
4608
8408
ENDCHAR
STARTCHAR 5254
ENCODING 21076
SWIDTH 1020 0
DWIDTH 17 0
BBX 15 17 0 -2
BITMAP
0006
6782
6782
3A32
2612
3A12
2612
3A12
1012
27D2
7AD2
92D2
24C2
C982
318A
C606
0404
ENDCHAR
STARTCHAR 5256
ENCODING 21078
SWIDTH 1020 0
DWIDTH 17 0
BBX 15 17 0 -2
BITMAP
1806
0802
0802
4FB2
3212
2212
1412
97D2
7812
0012
67D2
3992
2182
2182
278A
3986
2184
ENDCHAR
STARTCHAR 525B
ENCODING 21083
SWIDTH 1020 0
DWIDTH 17 0
BBX 16 17 0 -2
BITMAP
0003
87E1
87E1
FAD9
A2C9
94C9
D7C9
B8C9
8AC9
AAC9
AAC9
AAC9
AEC1
B2C1
A2C5
81C3
8182
ENDCHAR
STARTCHAR 525E
ENCODING 21086
SWIDTH 1020 0
DWIDTH 17 0
BBX 16 17 0 -2
BITMAP
1803
0801
0801
8FD9
7809
1609
2189
C0C9
9FE9
6189
5989
6989
5981
6981
4585
0383
0202
ENDCHAR
STARTCHAR 5263
ENCODING 21091
SWIDTH 1020 0
DWIDTH 17 0
BBX 15 17 0 -2
BITMAP
0806
1432
1432
1212
2792
38D2
4FD2
F992
4992
4F92
7992
4C02
1202
1182
218A
40C6
8004
ENDCHAR
STARTCHAR 5264
ENCODING 21092
SWIDTH 1020 0
DWIDTH 17 0
BBX 15 17 0 -2
BITMAP
1806
0832
0832
8FD2
7A12
1412
0E12
1192
22D2
6E12
B212
2202
2E02
3202
420A
4206
8204
ENDCHAR
STARTCHAR 5265
ENCODING 21093
SWIDTH 1020 0
DWIDTH 17 0
BBX 15 17 0 -2
BITMAP
0006
4E02
4E02
3232
4E12
3412
0412
8FD2
7992
4992
2A12
2C12
1A02
2982
E8CA
1806
1004
ENDCHAR
STARTCHAR 5269
ENCODING 21097
SWIDTH 1020 0
DWIDTH 17 0
BBX 15 17 0 -2
BITMAP
0386
0C02
0C02
7832
8FD2
7812
2A12
ABD2
6A12
2AD2
69D2
9C12
2A02
2982
498A
8806
0804
ENDCHAR
STARTCHAR 526A
ENCODING 21098
SWIDTH 1020 0
DWIDTH 17 0
BBX 16 17 0 -2
BITMAP
1020
0820
0820
89FF
7E00
000C
7EE4
4224
5A24
420C
5A08
81FF
7E02
0202
0414
180C
E008
ENDCHAR
STARTCHAR 526F
ENCODING 21103
SWIDTH 1020 0
DWIDTH 17 0
BBX 15 17 0 -2
BITMAP
0006
8FC2
8FC2
7032
2F92
3212
2212
2E12
3012
CFD2
7992
4F92
7982
4982
4F8A
7186
4184
ENDCHAR
STARTCHAR 5270
ENCODING 21104
SWIDTH 1020 0
DWIDTH 17 0
BBX 15 17 0 -2
BITMAP
01C6
0602
0602
3C32
47D2
3D92
1592
97F2
7D92
1592
57D2
3E12
1582
14C2
242A
4426
8404
ENDCHAR
STARTCHAR 5271
ENCODING 21105
SWIDTH 1020 0
DWIDTH 17 0
BBX 16 17 0 -2
BITMAP
0800
14C7
14C7
1239
2791
38D1
4831
8FD9
7995
4992
4FA3
79A2
1422
12C2
22D4
418C
8608
ENDCHAR
STARTCHAR 5272
ENCODING 21106
SWIDTH 1020 0
DWIDTH 17 0
BBX 15 17 0 -2
BITMAP
1806
0982
0982
4FF2
7992
8812
4F92
3812
4F92
3812
8FD2
7802
2782
3982
278A
3986
2184
ENDCHAR
STARTCHAR 5273
ENCODING 21107
SWIDTH 1020 0
DWIDTH 17 0
BBX 16 17 0 -2
BITMAP
1203
1201
1201
97D9
7A09
1209
0C09
0A09
1189
26C9
5829
A7A9
3981
2181
2785
3983
2182
ENDCHAR
STARTCHAR 5274
ENCODING 21108
SWIDTH 1020 0
DWIDTH 17 0
BBX 15 17 0 -2
BITMAP
1806
4982
4982
49B2
4F92
7012
8FD2
7012
0F92
7212
2212
2E12
3202
25C2
160A
1806
E004
ENDCHAR
STARTCHAR 5275
ENCODING 21109
SWIDTH 1020 0
DWIDTH 17 0
BBX 15 17 0 -2
BITMAP
0806
0E02
0E02
11B2
17D2
3812
67D2
B992
2792
3992
2792
3802
47C2
7982
A78A
3986
2184
ENDCHAR
STARTCHAR 527D
ENCODING 21117
SWIDTH 1020 0
DWIDTH 17 0
BBX 16 17 0 -2
BITMAP
0003
8FE1
8FE1
7A19
57C9
7AC9
57C9
7809
47C9
3809
87E9
7D89
24C1
2421
5425
8C03
0802
ENDCHAR
STARTCHAR 527F
ENCODING 21119
SWIDTH 1020 0
DWIDTH 17 0
BBX 15 17 0 -2
BITMAP
24C6
4982
4982
9232
4992
2792
7992
4F92
7992
4F92
7812
8FD2
7802
1E02
298A
4986
8804
ENDCHAR
STARTCHAR 5283
ENCODING 21123
SWIDTH 1020 0
DWIDTH 17 0
BBX 15 17 0 -2
BITMAP
1806
4F82
4F82
39B2
8FD2
7992
4F92
3812
8FD2
7992
4F92
7982
4F82
7002
8FCA
7006
0004
ENDCHAR
STARTCHAR 5287
ENCODING 21127
SWIDTH 1020 0
DWIDTH 17 0
BBX 16 17 0 -2
BITMAP
1803
0FC1
0FC1
0819
CFE9
78C9
4F89
78C9
4FC9
4009
67E9
5AC9
46C1
5B81
86C5
BA23
0402
ENDCHAR
STARTCHAR 5288
ENCODING 21128
SWIDTH 1020 0
DWIDTH 17 0
BBX 16 17 0 -2
BITMAP
0010
6FDE
6FDE
32E4
2E28
319F
26F0
5A10
539E
96F0
1A10
81FF
7E02
0202
0414
180C
E008
ENDCHAR
STARTCHAR 5289
ENCODING 21129
SWIDTH 1020 0
DWIDTH 17 0
BBX 15 17 0 -2
BITMAP
0806
59E2
59E2
66D2
52D2
5CD2
69D2
DD92
1392
26D2
78D2
CF92
3A02
49C2
2E0A
3806
C004
ENDCHAR
STARTCHAR 528D
ENCODING 21133
SWIDTH 1020 0
DWIDTH 17 0
BBX 16 17 0 -2
BITMAP
0403
0A01
0A01
0999
10C9
27A9
7829
82E9
5BA9
6A29
4AE9
5B89
7181
11C1
2A25
4223
8402
ENDCHAR
STARTCHAR 5291
ENCODING 21137
SWIDTH 1020 0
DWIDTH 17 0
BBX 16 17 0 -2
BITMAP
0C03
87E1
87E1
7999
0A29
95C9
75A9
55A9
55E9
9209
67C9
38C9
27C1
38C1
20C5
40C3
80C2
ENDCHAR
STARTCHAR 5292
ENCODING 21138
SWIDTH 1020 0
DWIDTH 17 0
BBX 16 17 0 -2
BITMAP
0800
1400
1400
12C7
21B9
2E09
7029
87A9
75A9
55A9
57C9
7211
2212
23A2
55AA
44C4
8984
ENDCHAR
STARTCHAR 5294
ENCODING 21140
SWIDTH 1020 0
DWIDTH 17 0
BBX 16 17 0 -2
BITMAP
0800
0CC7
0CC7
1239
2789
38E9
4799
F58D
558B
5791
7211
2212
33A2
2DA2
44D4
498C
9208
ENDCHAR
STARTCHAR 529B
ENCODING 21147
SWIDTH 1020 0
DWIDTH 17 0
BBX 15 17 0 -2
BITMAP
0380
0180
0180
0180
0180
41FE
3F84
0184
0184
0204
0204
0204
0408
0408
08C8
3030
C020
ENDCHAR
STARTCHAR 529F
ENCODING 21151
SWIDTH 1020 0
DWIDTH 17 0
BBX 16 17 0 -2
BITMAP
00E0
0020
0020
8C20
7020
123F
11E2
1022
1022
1222
1CC2
30C4
C184
0184
0228
0418
1810
ENDCHAR
STARTCHAR 52A0
ENCODING 21152
SWIDTH 1020 0
DWIDTH 17 0
BBX 16 17 0 -2
BITMAP
1800
0800
0800
0800
8FF3
799D
1191
1191
1191
1191
1191
2191
2211
4A17
4619
8411
0400
ENDCHAR
STARTCHAR 52A3
ENCODING 21155
SWIDTH 1020 0
DWIDTH 17 0
BBX 16 17 0 -2
BITMAP
0380
198C
198C
0982
1191
23A1
41C0
8380
0D80
F180
41FE
3F84
0204
0204
0428
1818
E010
ENDCHAR
STARTCHAR 52A9
ENCODING 21161
SWIDTH 1020 0
DWIDTH 17 0
BBX 16 17 0 -2
BITMAP
0030
DE10
DE10
6410
4410
5E1F
65F1
4411
4411
5C11
6411
45A1
4622
58C2
60D2
C18C
0608
ENDCHAR
STARTCHAR 52AA
ENCODING 21162
SWIDTH 1020 0
DWIDTH 17 0
BBX 16 17 0 -2
BITMAP
3000
118E
118E
9EF2
7224
2418
6414
1822
15C2
2581
C1FE
3F84
0204
0204
0428
1818
6010
ENDCHAR
STARTCHAR 52AB
ENCODING 21163
SWIDTH 1020 0
DWIDTH 17 0
BBX 16 17 0 -2
BITMAP
1830
0810
0810
0810
4E10
399F
08F1
0811
8F91
7011
1411
1221
2221
2DA2
31CA
C186
0204
ENDCHAR
STARTCHAR 52AC
ENCODING 21164
SWIDTH 1020 0
DWIDTH 17 0
BBX 16 17 0 -2
BITMAP
1018
1008
1008
27C8
3988
41CF
81B9
5989
6989
4989
5989
6991
4211
0222
142A
0CC6
0B84
ENDCHAR
STARTCHAR 52AD
ENCODING 21165
SWIDTH 1020 0
DWIDTH 17 0
BBX 16 17 0 -2
BITMAP
0030
87D0
87D0
7990
1190
1197
22F9
2A11
4411
CE11
7221
4222
4222
4EC2
72D4
418C
0608
ENDCHAR
STARTCHAR 52B1
ENCODING 21169
SWIDTH 1020 0
DWIDTH 17 0
BBX 16 17 0 -2
BITMAP
0030
67D0
67D0
3810
2010
279F
38F2
2812
2BD2
2D92
2992
2992
2992
49A2
5234
96CC
2588
ENDCHAR
STARTCHAR 52B4
ENCODING 21172
SWIDTH 1020 0
DWIDTH 17 0
BBX 16 17 0 -2
BITMAP
2204
1188
1188
0990
49FF
7E02
4604
8208
43FC
3E08
0208
0208
0408
0408
08D0
1030
6020
ENDCHAR
STARTCHAR 52B5
ENCODING 21173
SWIDTH 1020 0
DWIDTH 17 0
BBX 16 17 0 -2
BITMAP
0380
1198
1198
1204
33F2
4EC0
0420
89FF
7E10
118C
21FA
5F89
8208
0208
04D0
1830
6020
ENDCHAR
STARTCHAR 52B9
ENCODING 21177
SWIDTH 1020 0
DWIDTH 17 0
BBX 16 17 0 -2
BITMAP
3030
1010
1010
9F90
7410
22DF
25F1
2591
5411
8811
0811
1411
1221
2221
40CA
8186
0204
ENDCHAR
STARTCHAR 52BC
ENCODING 21180
SWIDTH 1020 0
DWIDTH 17 0
BBX 16 17 0 -2
BITMAP
3030
1010
1010
9F90
7010
119F
9EF1
6011
0011
CE11
7421
4421
4421
4CC2
74CA
4186
0604
ENDCHAR
STARTCHAR 52BE
ENCODING 21182
SWIDTH 1020 0
DWIDTH 17 0
BBX 16 17 0 -2
BITMAP
1830
0810
0810
0810
8F90
719F
14F2
2412
C812
2A12
1212
1422
2422
48C4
14D4
238C
C208
ENDCHAR
STARTCHAR 52C1
ENCODING 21185
SWIDTH 1020 0
DWIDTH 17 0
BBX 16 17 0 -2
BITMAP
0018
87C8
87C8
7988
4988
4ACF
9239
4989
24C9
24C9
8F89
7811
0811
0FA2
382A
C0C6
0384
ENDCHAR
STARTCHAR 52C3
ENCODING 21187
SWIDTH 1020 0
DWIDTH 17 0
BBX 16 17 0 -2
BITMAP
1830
0810
0810
8F90
7810
099F
4FF2
7192
4E12
B412
0992
1612
3822
C822
28D4
118C
1608
ENDCHAR
STARTCHAR 52C5
ENCODING 21189
SWIDTH 1020 0
DWIDTH 17 0
BBX 16 17 0 -2
BITMAP
1830
0810
0810
8FD0
7810
08DF
CFF2
7992
4992
4F92
7992
5C22
2A22
29A4
48D4
898C
0A08
ENDCHAR
STARTCHAR 52C7
ENCODING 21191
SWIDTH 1020 0
DWIDTH 17 0
BBX 15 16 0 -2
BITMAP
10F8
10F8
0F90
0220
11FC
1F88
11F8
1F88
11F8
1F88
41FE
3F84
0204
0424
1818
E010
ENDCHAR
STARTCHAR 52C9
ENCODING 21193
SWIDTH 1020 0
DWIDTH 17 0
BBX 16 17 0 -2
BITMAP
2030
2010
2010
2C10
7410
499F
DFF2
7212
5212
5E22
7222
28D4
28CC
2988
4A02
4402
83FF
ENDCHAR
STARTCHAR 52CD
ENCODING 21197
SWIDTH 1020 0
DWIDTH 17 0
BBX 16 17 0 -2
BITMAP
1818
0808
0808
8FC8
7008
00CF
4FB9
7189
4189
4F89
7991
0A11
2991
49A1
A82A
18C6
1184
ENDCHAR
STARTCHAR 52D2
ENCODING 21202
SWIDTH 1020 0
DWIDTH 17 0
BBX 16 17 0 -2
BITMAP
2430
AF90
AF90
7410
2C10
319F
DFF1
7211
5211
5E11
7211
5021
9FA1
7022
10CA
1186
1204
ENDCHAR
STARTCHAR 52D5
ENCODING 21205
SWIDTH 1020 0
DWIDTH 17 0
BBX 16 17 0 -2
BITMAP
03B0
0C10
0C10
7810
8F90
78DF
4FF2
7992
4F92
7992
4F92
7812
8FA2
7822
0BD4
1CCC
E188
ENDCHAR
STARTCHAR 52D7
ENCODING 21207
SWIDTH 1020 0
DWIDTH 17 0
BBX 16 16 0 -2
BITMAP
19FC
19FC
0E08
09F8
0E08
09F8
0E10
6410
3B9F
26F1
3A11
2611
3BE1
2C2A
F0C6
0384
ENDCHAR
STARTCHAR 52D8
ENCODING 21208
SWIDTH 1020 0
DWIDTH 17 0
BBX 16 17 0 -2
BITMAP
2218
2208
2208
AFC8
7208
2ECF
32F9
2E09
3209
2FC9
F411
5591
57D1
6022
4FAA
70C6
4184
ENDCHAR
STARTCHAR 52D9
ENCODING 21209
SWIDTH 1020 0
DWIDTH 17 0
BBX 16 17 0 -2
BITMAP
0020
8E20
8E20
74CF
48F4
29A4
1218
9F94
7A22
0DD1
1A1E
29F2
2822
4822
A8D4
198C
1608
ENDCHAR
STARTCHAR 52DD
ENCODING 21213
SWIDTH 1020 0
DWIDTH 17 0
BBX 16 17 0 -2
BITMAP
01B2
DD92
DD92
68D4
4ADE
59F0
6828
4C3F
4BE8
58D6
6991
4A3E
4DE2
4822
68D4
998C
9608
ENDCHAR
STARTCHAR 52DE
ENCODING 21214
SWIDTH 1020 0
DWIDTH 17 0
BBX 16 17 0 -2
BITMAP
1A1A
2A2A
2A2A
2C2C
48D4
1622
51FF
7F82
4184
A1FC
1F88
0208
0208
0408
08D0
1030
6020
ENDCHAR
STARTCHAR 52DF
ENCODING 21215
SWIDTH 1020 0
DWIDTH 17 0
BBX 16 17 0 -2
BITMAP
0420
85FF
85FF
7E20
15F8
0E10
09F0
0E10
09F0
0E20
85FF
7E08
12F6
EF91
0420
09A0
31C0
ENDCHAR
STARTCHAR 52E0
ENCODING 21216
SWIDTH 1020 0
DWIDTH 17 0
BBX 16 17 0 -2
BITMAP
0018
B5C8
B5C8
52C8
94C8
31CF
D6F9
0CC9
1209
2989
CAC9
1211
6591
19A2
622A
0CC4
F184
ENDCHAR
STARTCHAR 52E2
ENCODING 21218
SWIDTH 1020 0
DWIDTH 17 0
BBX 16 17 0 -2
BITMAP
18E0
4E20
4E20
39BC
8EE8
79A8
2EE9
2836
CCD6
3BC3
0D80
71FE
3F84
0204
0224
0C18
7010
ENDCHAR
STARTCHAR 52E3
ENCODING 21219
SWIDTH 1020 0
DWIDTH 17 0
BBX 16 17 0 -2
BITMAP
1818
4F88
4F88
3808
4E08
38CF
8FB9
7209
4E09
7211
4E11
7212
4E22
7422
22D4
438C
8208
ENDCHAR
STARTCHAR 52E4
ENCODING 21220
SWIDTH 1020 0
DWIDTH 17 0
BBX 16 17 0 -2
BITMAP
1430
9790
9790
7C10
1410
CF97
79F9
4991
4F91
7811
8F91
7811
8FA1
79A2
0E2A
F0C6
0384
ENDCHAR
STARTCHAR 52E6
ENCODING 21222
SWIDTH 1020 0
DWIDTH 17 0
BBX 16 17 0 -2
BITMAP
4998
9208
9208
4988
4F88
79CF
4FB9
7989
4F89
7811
8FD1
7812
1C22
2A22
2AD4
498C
8A08
ENDCHAR
STARTCHAR 52E7
ENCODING 21223
SWIDTH 1020 0
DWIDTH 17 0
BBX 16 17 0 -2
BITMAP
2018
2788
2788
3808
5408
578F
BDF9
2409
4F89
F809
4F91
7811
4F91
7822
4FAA
70C6
4184
ENDCHAR
STARTCHAR 52F2
ENCODING 21234
SWIDTH 1020 0
DWIDTH 17 0
BBX 16 17 0 -2
BITMAP
0798
7808
7808
8FC8
7808
4FCF
79B9
4F89
7989
4F91
7811
8FAA
7826
8FC8
78C4
2422
C211
ENDCHAR
STARTCHAR 52F3
ENCODING 21235
SWIDTH 1020 0
DWIDTH 17 0
BBX 16 17 0 -2
BITMAP
0798
7808
7808
8FC8
7808
0FCF
7BB9
6989
4F89
7809
4F91
3811
8FD2
7A22
55AA
55C4
9184
ENDCHAR
STARTCHAR 52F5
ENCODING 21237
SWIDTH 1020 0
DWIDTH 17 0
BBX 16 17 0 -2
BITMAP
0018
C7E8
C7E8
7A08
4BC8
7ECF
4BB9
5D89
5789
5D89
5789
5C09
47D1
BCD2
A6DA
ADE6
20C4
ENDCHAR
STARTCHAR 52F8
ENCODING 21240
SWIDTH 1020 0
DWIDTH 17 0
BBX 16 17 0 -2
BITMAP
1218
97C8
97C8
7A08
1788
79CF
4FB9
7A09
27C9
7C11
6791
BC11
2791
3C22
27EA
38C6
2184
ENDCHAR
STARTCHAR 52F9
ENCODING 21241
SWIDTH 1020 0
DWIDTH 17 0
BBX 16 17 0 -2
BITMAP
0800
0800
0800
0800
10FF
1F82
2002
2002
4002
8002
0002
0004
0004
0008
00C8
0030
0020
ENDCHAR
STARTCHAR 52FA
ENCODING 21242
SWIDTH 1020 0
DWIDTH 17 0
BBX 16 17 0 -2
BITMAP
0800
0800
0800
0800
10FF
1F82
2002
2C02
4202
8182
0182
0002
0004
0004
0024
0018
0010
ENDCHAR
STARTCHAR 52FE
ENCODING 21246
SWIDTH 1020 0
DWIDTH 17 0
BBX 16 17 0 -2
BITMAP
0800
0800
0800
0800
10FF
1F82
2202
4202
8402
04C2
0822
09E2
1614
7814
0024
0018
0010
ENDCHAR
STARTCHAR 52FF
ENCODING 21247
SWIDTH 1020 0
DWIDTH 17 0
BBX 16 17 0 -2
BITMAP
0800
0800
0800
0800
10FF
1FA2
2222
4222
8422
08C2
10C4
6184
0204
0408
08C8
7030
0020
ENDCHAR
STARTCHAR 5301
ENCODING 21249
SWIDTH 1020 0
DWIDTH 17 0
BBX 16 17 0 -2
BITMAP
0800
0800
0800
083E
0FC4
10C4
10C4
2EC4
C1C4
01B4
0188
020C
040A
0811
3190
C0E0
00C0
ENDCHAR
STARTCHAR 5302
ENCODING 21250
SWIDTH 1020 0
DWIDTH 17 0
BBX 16 17 0 -2
BITMAP
0800
0800
0800
08FF
1F82
1002
3002
50E2
9182
1E02
1002
1022
1024
0FF4
0024
0018
0010
ENDCHAR
STARTCHAR 5305
ENCODING 21253
SWIDTH 1020 0
DWIDTH 17 0
BBX 16 17 0 -2
BITMAP
1000
1000
1000
10FE
3F84
2004
63E4
9CC4
00C4
33C4
1CC4
1028
1018
1012
1002
0802
07FF
ENDCHAR
STARTCHAR 5306
ENCODING 21254
SWIDTH 1020 0
DWIDTH 17 0
BBX 16 17 0 -2
BITMAP
0800
0800
0800
083F
1FC9
1189
2191
5A11
8621
09A2
30C2
C1A2
0214
0404
1828
6018
0010
ENDCHAR
STARTCHAR 5308
ENCODING 21256
SWIDTH 1020 0
DWIDTH 17 0
BBX 16 17 0 -2
BITMAP
1000
1000
1000
10FF
1F81
20C1
20D1
4991
A591
2211
2591
28D2
21F2
3E12
2014
000C
0008
ENDCHAR
STARTCHAR 530D
ENCODING 21261
SWIDTH 1020 0
DWIDTH 17 0
BBX 16 17 0 -2
BITMAP
1000
1000
1000
10FF
1FA1
2211
43F9
BE01
03F1
3E11
23F1
3E11
23F1
3E12
22DA
2236
2224
ENDCHAR
STARTCHAR 530F
ENCODING 21263
SWIDTH 1020 0
DWIDTH 17 0
BBX 16 17 0 -2
BITMAP
3020
1020
1020
9ECF
70F2
2D82
4202
DBDA
20EA
9ECA
60DA
2CE4
74CC
44C2
28C2
1822
101F
ENDCHAR
STARTCHAR 5310
ENCODING 21264
SWIDTH 1020 0
DWIDTH 17 0
BBX 16 17 0 -2
BITMAP
1000
1000
1000
103F
3FC1
2001
63F1
9C21
09E1
0E01
31F1
1E11
13F2
1E12
13F4
1C0C
0008
ENDCHAR
STARTCHAR 5315
ENCODING 21269
SWIDTH 1020 0
DWIDTH 17 0
BBX 13 16 2 -2
BITMAP
C000
C000
4010
4020
4040
4080
4700
5800
6000
4000
4000
4000
4010
4010
2010
1FF8
ENDCHAR
STARTCHAR 5316
ENCODING 21270
SWIDTH 1020 0
DWIDTH 17 0
BBX 16 17 0 -2
BITMAP
0B80
0980
0980
0982
1182
1184
1188
3190
51E0
9180
1180
1180
1180
1182
1182
10C2
103F
ENDCHAR
STARTCHAR 5317
ENCODING 21271
SWIDTH 1020 0
DWIDTH 17 0
BBX 16 17 0 -2
BITMAP
0DC0
04C0
04C0
04C0
04C0
04C6
9CC8
64F0
04C0
04C0
04C0
0CC0
34C0
C4C2
04C2
0422
041F
ENDCHAR
STARTCHAR 5319
ENCODING 21273
SWIDTH 1020 0
DWIDTH 17 0
BBX 16 17 0 -2
BITMAP
00E0
6FA0
6FA0
3222
2E22
3224
2E38
3020
8FA0
7820
0822
6BA2
2C12
280F
5800
4600
81FF
ENDCHAR
STARTCHAR 531A
ENCODING 21274
SWIDTH 1020 0
DWIDTH 17 0
BBX 16 16 0 -2
BITMAP
C03E
C03E
7FC0
4000
4000
4000
4000
4000
4000
4000
4000
4000
4000
40FF
7F80
4000
ENDCHAR
STARTCHAR 531D
ENCODING 21277
SWIDTH 1020 0
DWIDTH 17 0
BBX 16 16 0 -2
BITMAP
C0FE
C0FE
7F80
4180
59FC
4F88
4988
4988
49A8
4998
4990
4180
4180
41FF
7E00
4000
ENDCHAR
STARTCHAR 5320
ENCODING 21280
SWIDTH 1020 0
DWIDTH 17 0
BBX 16 16 0 -2
BITMAP
C0FF
C0FF
7F80
4018
4CE0
4780
443E
47E0
4420
4420
4420
4820
5020
40FF
7F80
4000
ENDCHAR
STARTCHAR 5321
ENCODING 21281
SWIDTH 1020 0
DWIDTH 17 0
BBX 16 16 0 -2
BITMAP
C03E
C03E
7FC0
4000
483C
47C0
40C0
44F8
43C0
40C0
50FE
4F80
4000
40FF
7F80
4000
ENDCHAR
STARTCHAR 5323
ENCODING 21283
SWIDTH 1020 0
DWIDTH 17 0
BBX 16 16 0 -2
BITMAP
C03E
C03E
7FC0
4000
58FC
4FC4
48FC
4FC4
48C4
48FC
4FC4
48C0
40C0
40FF
7F80
4000
ENDCHAR
STARTCHAR 532A
ENCODING 21290
SWIDTH 1020 0
DWIDTH 17 0
BBX 16 16 0 -2
BITMAP
C0FF
C0FF
7F80
42E0
422E
5E30
422C
5E30
4220
47AE
5A30
4420
4420
48FF
7F80
4000
ENDCHAR
STARTCHAR 532F
ENCODING 21295
SWIDTH 1020 0
DWIDTH 17 0
BBX 16 16 0 -2
BITMAP
C1FE
C1FE
7EC8
50D0
499E
65F0
579C
45F0
499C
49F0
719E
49E0
4800
41FF
7E00
4000
ENDCHAR
STARTCHAR 5331
ENCODING 21297
SWIDTH 1020 0
DWIDTH 17 0
BBX 16 16 0 -2
BITMAP
C03E
C03E
7FC0
40C0
4CFC
47C8
64FF
5F88
44F8
4788
44F8
4790
4208
44FF
7F80
4000
ENDCHAR
STARTCHAR 5333
ENCODING 21299
SWIDTH 1020 0
DWIDTH 17 0
BBX 16 16 0 -2
BITMAP
C0FE
C0FE
7FC0
41B0
420C
44F2
4B8D
7234
4DAC
49B4
4F90
4418
4A24
51FF
7E00
4000
ENDCHAR
STARTCHAR 5338
ENCODING 21304
SWIDTH 1020 0
DWIDTH 17 0
BBX 16 15 0 -1
BITMAP
80FF
80FF
7F80
2000
2000
2000
2000
2000
2000
2000
2000
2000
2000
1000
0FFE
ENDCHAR
STARTCHAR 5339
ENCODING 21305
SWIDTH 1020 0
DWIDTH 17 0
BBX 16 16 0 -2
BITMAP
C0FE
C0FE
7FC0
44C0
44C0
44C0
44C4
44C4
48C4
483E
5000
6000
4000
40FF
7F80
4000
ENDCHAR
STARTCHAR 533A
ENCODING 21306
SWIDTH 1020 0
DWIDTH 17 0
BBX 16 16 0 -2
BITMAP
C0FE
C0FE
7F80
4010
4010
4E20
41A0
40E0
40D0
4188
4204
4404
5800
40FF
7F80
4000
ENDCHAR
STARTCHAR 533B
ENCODING 21307
SWIDTH 1020 0
DWIDTH 17 0
BBX 16 16 0 -2
BITMAP
C0FF
C0FF
7F80
4400
44FC
47C0
48C0
48FE
5FE0
6190
4208
4204
4404
49FF
7E00
4000
ENDCHAR
STARTCHAR 533F
ENCODING 21311
SWIDTH 1020 0
DWIDTH 17 0
BBX 16 16 0 -2
BITMAP
C0FE
C0FE
7F90
52FC
4F90
4220
62FE
5F80
42FC
4790
4C10
74F0
4780
40FF
7F80
4000
ENDCHAR
STARTCHAR 5340
ENCODING 21312
SWIDTH 1020 0
DWIDTH 17 0
BBX 16 16 0 -2
BITMAP
C1FE
C1FE
7E00
40F8
4790
4210
42F0
41A6
57BA
59A2
51A6
57BA
5980
40FF
7F80
4000
ENDCHAR
STARTCHAR 5341
ENCODING 21313
SWIDTH 1020 0
DWIDTH 17 0
BBX 16 17 0 -2
BITMAP
0380
0180
0180
0180
0180
0180
0180
81FF
7F80
0180
0180
0180
0180
0180
0180
0180
0180
ENDCHAR
STARTCHAR 5343
ENCODING 21315
SWIDTH 1020 0
DWIDTH 17 0
BBX 16 17 0 -2
BITMAP
0018
00E0
00E0
0780
3980
0180
0180
0180
81FF
7F80
0180
0180
0180
0180
0180
0180
0180
ENDCHAR
STARTCHAR 5345
ENCODING 21317
SWIDTH 1020 0
DWIDTH 17 0
BBX 16 17 0 -2
BITMAP
3398
1188
1188
1188
1188
1188
1188
91FF
7F88
1188
1188
1188
1188
2188
2188
4188
8188
ENDCHAR
STARTCHAR 5346
ENCODING 21318
SWIDTH 1020 0
DWIDTH 17 0
BBX 16 17 0 -2
BITMAP
0600
0200
0200
43F0
3C20
0420
0420
0822
1022
239F
C180
81FF
7F80
0180
0180
0180
0180
ENDCHAR
STARTCHAR 5347
ENCODING 21319
SWIDTH 1020 0
DWIDTH 17 0
BBX 16 17 0 -2
BITMAP
03B0
0410
0410
1C10
6410
0410
0410
84FF
7F90
0410
0410
0810
0810
1010
1010
2010
C010
ENDCHAR
STARTCHAR 5348
ENCODING 21320
SWIDTH 1020 0
DWIDTH 17 0
BBX 16 17 0 -2
BITMAP
0800
0800
0800
0800
10FC
1F80
2180
4180
0180
81FF
7F80
0180
0180
0180
0180
0180
0180
ENDCHAR
STARTCHAR 5349
ENCODING 21321
SWIDTH 1020 0
DWIDTH 17 0
BBX 16 17 0 -2
BITMAP
0380
0180
0180
41FE
3F80
0198
1988
0988
0808
89FF
7E08
0808
1008
1008
2008
4008
8008
ENDCHAR
STARTCHAR 534A
ENCODING 21322
SWIDTH 1020 0
DWIDTH 17 0
BBX 16 17 0 -2
BITMAP
0384
2184
2184
1188
0988
0990
41FC
3F80
0180
0180
81FF
7F80
0180
0180
0180
0180
0180
ENDCHAR
STARTCHAR 534D
ENCODING 21325
SWIDTH 1020 0
DWIDTH 17 0
BBX 16 16 0 -2
BITMAP
87C6
87C6
7982
0182
0182
0182
0182
C1FE
7F82
4180
4180
4180
4180
419F
41E0
4180
ENDCHAR
STARTCHAR 5351
ENCODING 21329
SWIDTH 1020 0
DWIDTH 17 0
BBX 16 17 0 -2
BITMAP
0200
0200
0200
35FC
1F88
1188
11F8
1F88
1188
11F8
1EC8
08C0
91FF
7EC0
00C0
00C0
00C0
ENDCHAR
STARTCHAR 5352
ENCODING 21330
SWIDTH 1020 0
DWIDTH 17 0
BBX 16 17 0 -2
BITMAP
0380
0180
0180
41FE
3E10
0810
0828
1424
12C2
6180
81FF
7F80
0180
0180
0180
0180
0180
ENDCHAR
STARTCHAR 5353
ENCODING 21331
SWIDTH 1020 0
DWIDTH 17 0
BBX 16 17 0 -2
BITMAP
0380
019E
019E
01E0
0180
19FC
0F88
08F8
0F88
0808
08F8
0F88
0180
81FF
7F80
0180
0180
ENDCHAR
STARTCHAR 5354
ENCODING 21332
SWIDTH 1020 0
DWIDTH 17 0
BBX 16 17 0 -2
BITMAP
30E0
123E
123E
13E4
9C24
70C4
10C4
11B8
1610
1218
1BEF
1639
1229
1229
16DA
19E6
1184
ENDCHAR
STARTCHAR 5357
ENCODING 21335
SWIDTH 1020 0
DWIDTH 17 0
BBX 16 17 0 -2
BITMAP
0380
0180
0180
81FF
7F80
0180
61FE
3FA4
22C4
2AF4
2784
2184
29F4
2784
2194
218C
2188
ENDCHAR
STARTCHAR 5358
ENCODING 21336
SWIDTH 1020 0
DWIDTH 17 0
BBX 16 17 0 -2
BITMAP
1208
0990
0990
05A0
35FC
1F88
11F8
1F88
1188
11F8
1F88
1180
81FF
7F80
0180
0180
0180
ENDCHAR
STARTCHAR 535A
ENCODING 21338
SWIDTH 1020 0
DWIDTH 17 0
BBX 16 17 0 -2
BITMAP
30EC
1022
1022
143F
13E0
9E3E
73E4
123C
13E4
123C
13C8
183F
17C8
1188
10E8
1018
1010
ENDCHAR
STARTCHAR 535C
ENCODING 21340
SWIDTH 1020 0
DWIDTH 17 0
BBX 9 17 5 -2
BITMAP
C000
4000
4000
4000
4000
4000
7800
4600
4100
4080
4000
4000
4000
4000
4000
4000
4000
ENDCHAR
STARTCHAR 535E
ENCODING 21342
SWIDTH 1020 0
DWIDTH 17 0
BBX 16 17 0 -2
BITMAP
0380
0180
0180
0180
81FF
7E00
0180
0180
01E0
0198
0184
0182
0180
0180
0180
0180
0180
ENDCHAR
STARTCHAR 5360
ENCODING 21344
SWIDTH 1020 0
DWIDTH 17 0
BBX 13 17 2 -2
BITMAP
0E00
0600
0600
0600
06F8
0700
0600
0600
0600
C7F0
7820
4020
4020
4020
47E0
7820
4020
ENDCHAR
STARTCHAR 5366
ENCODING 21350
SWIDTH 1020 0
DWIDTH 17 0
BBX 16 17 0 -2
BITMAP
1830
0810
0810
4F90
3810
0810
8FD8
7014
1812
0811
4F91
3810
09D0
0E10
1810
E010
0010
ENDCHAR
STARTCHAR 5369
ENCODING 21353
SWIDTH 1020 0
DWIDTH 17 0
BBX 10 16 3 -2
BITMAP
C7C0
C7C0
7C80
4080
4080
4080
4080
4080
4080
4C80
4700
4100
4000
4000
4000
4000
ENDCHAR
STARTCHAR 536E
ENCODING 21358
SWIDTH 1020 0
DWIDTH 17 0
BBX 16 17 0 -2
BITMAP
000C
00F0
00F0
6780
3800
203F
3FC0
2000
2C3C
27C8
2408
2428
2418
4412
4402
8402
03FF
ENDCHAR
STARTCHAR 536F
ENCODING 21359
SWIDTH 1020 0
DWIDTH 17 0
BBX 16 17 0 -2
BITMAP
0600
0800
0800
D0E7
6639
4221
4221
4221
4221
4221
4625
5A23
6222
C420
0420
0820
3020
ENDCHAR
STARTCHAR 5370
ENCODING 21360
SWIDTH 1020 0
DWIDTH 17 0
BBX 16 17 0 -2
BITMAP
0380
0400
0400
D9CF
60F2
40C2
40C2
4EC2
70C2
40C2
40C2
40DA
4EC6
70C4
40C0
00C0
00C0
ENDCHAR
STARTCHAR 5371
ENCODING 21361
SWIDTH 1020 0
DWIDTH 17 0
BBX 16 17 0 -2
BITMAP
0800
09F0
09F0
0E20
10C0
21FF
7F80
A000
2CF8
2790
2410
24D0
2430
4422
4402
8202
01FF
ENDCHAR
STARTCHAR 5373
ENCODING 21363
SWIDTH 1020 0
DWIDTH 17 0
BBX 16 16 0 -2
BITMAP
CEE7
CEE7
7239
4E21
7221
4221
4E21
7221
4A21
4425
4223
4622
59A0
61A0
C020
0020
ENDCHAR
STARTCHAR 5374
ENCODING 21364
SWIDTH 1020 0
DWIDTH 17 0
BBX 16 17 0 -2
BITMAP
1800
0837
0837
4F99
3811
0811
0811
8FD1
7811
0C11
0A15
1193
1192
17D0
38D0
C0D0
0010
ENDCHAR
STARTCHAR 5375
ENCODING 21365
SWIDTH 1020 0
DWIDTH 17 0
BBX 16 17 0 -2
BITMAP
0180
0380
0380
64EF
3A32
2222
3232
2A2A
2A2A
2622
2A22
322A
C426
0424
0820
1020
6020
ENDCHAR
STARTCHAR 5377
ENCODING 21367
SWIDTH 1020 0
DWIDTH 17 0
BBX 16 17 0 -2
BITMAP
1180
1198
1198
2204
53F2
9EC0
0420
85FF
7E10
080C
19F2
2E11
4990
88E4
0824
0804
07FE
ENDCHAR
STARTCHAR 5378
ENCODING 21368
SWIDTH 1020 0
DWIDTH 17 0
BBX 16 17 0 -2
BITMAP
2000
2000
2000
27E7
3839
4821
4821
8FA1
7821
0821
0BA1
6C25
2823
2BA2
2C20
3020
C020
ENDCHAR
STARTCHAR 537B
ENCODING 21371
SWIDTH 1020 0
DWIDTH 17 0
BBX 16 17 0 -2
BITMAP
1400
2200
2200
22E7
49B9
9421
1221
21A1
20E1
47A1
BA29
2226
2222
2220
2E20
3220
2220
ENDCHAR
STARTCHAR 537F
ENCODING 21375
SWIDTH 1020 0
DWIDTH 17 0
BBX 16 17 0 -2
BITMAP
0800
0E1B
0E1B
D2ED
63A9
5AE9
4BA9
4A29
4AE9
5BA9
6A0D
CACB
922A
12E8
23A8
4608
8008
ENDCHAR
STARTCHAR 5382
ENCODING 21378
SWIDTH 1020 0
DWIDTH 17 0
BBX 16 15 0 -1
BITMAP
603F
603F
3FC0
2000
2000
2000
2000
2000
2000
2000
2000
2000
4000
4000
8000
ENDCHAR
STARTCHAR 5384
ENCODING 21380
SWIDTH 1020 0
DWIDTH 17 0
BBX 16 16 0 -2
BITMAP
60FF
60FF
3F80
2000
2CFC
2788
2408
2408
2408
2428
2418
2410
4402
4402
8202
01FF
ENDCHAR
STARTCHAR 5396
ENCODING 21398
SWIDTH 1020 0
DWIDTH 17 0
BBX 16 16 0 -2
BITMAP
60FF
60FF
3F80
22E0
2214
33F4
2E0A
2232
2584
2589
25B1
4582
498C
49B2
9182
20FF
ENDCHAR
STARTCHAR 5398
ENCODING 21400
SWIDTH 1020 0
DWIDTH 17 0
BBX 16 15 0 -1
BITMAP
60FF
60FF
3F80
24FC
27C8
24F8
27C8
24F8
27C8
24C0
30FC
2FC0
40C0
60FF
9F80
ENDCHAR
STARTCHAR 539A
ENCODING 21402
SWIDTH 1020 0
DWIDTH 17 0
BBX 16 16 0 -2
BITMAP
60FF
60FF
3F80
24FC
2788
24F8
2788
2CFC
2790
21A0
30FF
2FC0
4020
41A0
80C0
00C0
ENDCHAR
STARTCHAR 539F
ENCODING 21407
SWIDTH 1020 0
DWIDTH 17 0
BBX 16 16 0 -2
BITMAP
603F
603F
3FC0
2180
2DBC
27C8
2438
27C8
2408
2438
27C8
24C8
44C4
4AC2
91C2
2181
ENDCHAR
STARTCHAR 53A0
ENCODING 21408
SWIDTH 1020 0
DWIDTH 17 0
BBX 16 16 0 -2
BITMAP
60FF
60FF
3F80
2006
2BDA
2CCA
2BCA
2CCA
2BCA
2CCA
28CA
2BC2
4D82
498A
88C6
30C4
ENDCHAR
STARTCHAR 53A5
ENCODING 21413
SWIDTH 1020 0
DWIDTH 17 0
BBX 16 16 0 -2
BITMAP
60FF
60FF
3F90
28D0
2597
35DA
2E22
22DC
2AC8
2BC8
2ED4
2A14
4422
4422
88C1
3381
ENDCHAR
STARTCHAR 53A6
ENCODING 21414
SWIDTH 1020 0
DWIDTH 17 0
BBX 16 16 0 -2
BITMAP
60FF
60FF
3F80
30FE
2F80
22F8
2788
24F8
2788
24F8
2790
22F8
4E20
71D8
8604
3803
ENDCHAR
STARTCHAR 53A8
ENCODING 21416
SWIDTH 1020 0
DWIDTH 17 0
BBX 16 16 0 -2
BITMAP
603F
603F
3FC0
200C
33C4
2C04
2BCF
2DB4
29A4
2B94
2D94
3204
4AE4
4F94
B80C
0008
ENDCHAR
STARTCHAR 53A9
ENCODING 21417
SWIDTH 1020 0
DWIDTH 17 0
BBX 16 16 0 -2
BITMAP
60FF
60FF
3F80
2026
3BDC
2CD4
2BD4
2CD4
2BD7
2CFC
2A14
2994
4BA5
4DA5
98C6
0183
ENDCHAR
STARTCHAR 53AD
ENCODING 21421
SWIDTH 1020 0
DWIDTH 17 0
BBX 16 16 0 -2
BITMAP
603F
603F
3FC0
2CDC
2BCA
2CC9
2BEF
2C18
33E8
2CC8
2BD4
2CD2
4BD2
4CE1
89C1
0981
ENDCHAR
STARTCHAR 53AE
ENCODING 21422
SWIDTH 1020 0
DWIDTH 17 0
BBX 16 16 0 -2
BITMAP
603F
603F
3FC0
2983
29B4
3BD8
2D90
2B97
2D9A
2B92
2D92
2BD2
5E22
49A2
90C2
2382
ENDCHAR
STARTCHAR 53B0
ENCODING 21424
SWIDTH 1020 0
DWIDTH 17 0
BBX 16 16 0 -2
BITMAP
60FF
60FF
3F80
2AC8
2AC8
3230
2BD7
2CDA
28E2
2ED2
2ACC
2AC4
4ECA
4ACA
89D1
09A1
ENDCHAR
STARTCHAR 53B3
ENCODING 21427
SWIDTH 1020 0
DWIDTH 17 0
BBX 16 17 0 -2
BITMAP
0984
04C8
04C8
64FF
3FC0
2010
2F90
2417
37DC
2DB4
2BD4
2D88
2B8C
4D92
4B92
BDA1
01C1
ENDCHAR
STARTCHAR 53B6
ENCODING 21430
SWIDTH 1020 0
DWIDTH 17 0
BBX 16 17 0 -2
BITMAP
0380
0180
0180
0180
0200
0200
0200
0200
0420
0410
0408
0808
0804
103E
17C2
F801
0001
ENDCHAR
STARTCHAR 53BB
ENCODING 21435
SWIDTH 1020 0
DWIDTH 17 0
BBX 16 16 0 -1
BITMAP
0380
0180
0180
0180
21FC
1F80
0180
0180
81FF
7F80
0220
0210
0408
043C
0BC2
7C02
ENDCHAR
STARTCHAR 53C2
ENCODING 21442
SWIDTH 1020 0
DWIDTH 17 0
BBX 16 17 0 -2
BITMAP
0210
0208
0208
04FC
7F82
0200
83FF
7E10
04CC
08D2
3191
C624
18C4
0388
0C10
00E0
1F80
ENDCHAR
STARTCHAR 53C3
ENCODING 21443
SWIDTH 1020 0
DWIDTH 17 0
BBX 16 17 0 -2
BITMAP
0400
0408
0408
09FC
7E02
2008
298A
59D7
E639
0CC8
3194
C62A
18C9
6390
1C20
03C0
1C00
ENDCHAR
STARTCHAR 53C8
ENCODING 21448
SWIDTH 1020 0
DWIDTH 17 0
BBX 16 14 0 -2
BITMAP
20FC
1F88
0810
0410
0220
01A0
00C0
00E0
0190
0208
0404
0802
3002
C001
ENDCHAR
STARTCHAR 53C9
ENCODING 21449
SWIDTH 1020 0
DWIDTH 17 0
BBX 16 16 0 -2
BITMAP
40FC
40FC
3F88
1208
0990
0990
0420
0220
01C0
00C0
01A0
0210
0408
0804
3002
C001
ENDCHAR
STARTCHAR 53CA
ENCODING 21450
SWIDTH 1020 0
DWIDTH 17 0
BBX 16 16 0 -2
BITMAP
21F0
21F0
1E10
0410
0420
0420
063C
05C4
08C8
0828
1010
1028
20C4
4182
8602
3801
ENDCHAR
STARTCHAR 53CB
ENCODING 21451
SWIDTH 1020 0
DWIDTH 17 0
BBX 16 17 0 -2
BITMAP
0200
0200
0200
0200
82FF
7F80
0200
02F8
0790
0410
0BA0
08E0
10D0
2188
C204
0C02
7001
ENDCHAR
STARTCHAR 53CC
ENCODING 21452
SWIDTH 1020 0
DWIDTH 17 0
BBX 16 16 0 -2
BITMAP
478E
478E
3AF2
0202
22C4
1424
0C14
0408
0A08
0A14
1194
11A2
2022
20C1
4181
8601
ENDCHAR
STARTCHAR 53CD
ENCODING 21453
SWIDTH 1020 0
DWIDTH 17 0
BBX 16 16 0 -2
BITMAP
30FE
30FE
1F80
1000
1000
10FC
1F88
1408
1210
11D0
2020
20D0
4188
8204
0C02
3001
ENDCHAR
STARTCHAR 53CE
ENCODING 21454
SWIDTH 1020 0
DWIDTH 17 0
BBX 16 17 0 -2
BITMAP
1800
0800
0800
CC1E
4BE4
4984
48C4
4824
4828
5818
6808
C814
0824
08C2
0982
0E01
0801
ENDCHAR
STARTCHAR 53D4
ENCODING 21460
SWIDTH 1020 0
DWIDTH 17 0
BBX 16 17 0 -2
BITMAP
1800
0800
0800
0F8E
08F2
08C4
8FA4
7814
0C14
6A08
2A08
2994
4994
4822
A822
18C1
1381
ENDCHAR
STARTCHAR 53D6
ENCODING 21462
SWIDTH 1020 0
DWIDTH 17 0
BBX 16 16 0 -2
BITMAP
87C0
87C0
7ACE
2232
2EC2
3224
2214
2E14
3208
2208
2614
3A14
2222
C2C2
0381
0201
ENDCHAR
STARTCHAR 53D7
ENCODING 21463
SWIDTH 1020 0
DWIDTH 17 0
BBX 16 17 0 -2
BITMAP
001C
01E4
01E4
3F88
1188
08D0
44FF
7F82
4004
A1F8
1E10
03A0
00C0
01B0
060C
1802
E001
ENDCHAR
STARTCHAR 53D9
ENCODING 21465
SWIDTH 1020 0
DWIDTH 17 0
BBX 16 17 0 -2
BITMAP
0800
1400
1400
138E
22F2
4EC2
B824
0814
8F94
7808
4A08
2A14
2994
49A2
6822
98C1
1381
ENDCHAR
STARTCHAR 53DB
ENCODING 21467
SWIDTH 1020 0
DWIDTH 17 0
BBX 16 17 0 -2
BITMAP
3000
92CF
92CF
52F0
54C0
10C0
9ECE
70F2
12C2
1CE4
3194
D188
1208
2414
2822
41C2
8601
ENDCHAR
STARTCHAR 53DF
ENCODING 21471
SWIDTH 1020 0
DWIDTH 17 0
BBX 16 17 0 -2
BITMAP
0380
6DBE
6DBE
3184
2184
2DBC
3184
2184
23FC
3D80
41FC
3E08
0210
01E0
03B0
0C0C
F003
ENDCHAR
STARTCHAR 53E1
ENCODING 21473
SWIDTH 1020 0
DWIDTH 17 0
BBX 16 17 0 -2
BITMAP
1800
0FA7
0FA7
081A
4FE2
70D2
9ECA
298A
54CC
9204
2F84
72CA
AECA
3212
2E11
3221
22C1
ENDCHAR
STARTCHAR 53E2
ENCODING 21474
SWIDTH 1020 0
DWIDTH 17 0
BBX 16 17 0 -2
BITMAP
22C4
92FF
92FF
7FA0
44FE
3F80
21FC
1F80
81FF
7E00
278E
3AF2
2614
3A08
2614
3AE2
C381
ENDCHAR
STARTCHAR 53E3
ENCODING 21475
SWIDTH 1020 0
DWIDTH 17 0
BBX 14 13 1 -1
BITMAP
C1FC
7F08
4008
4008
4008
4008
4008
4008
4008
4008
43F8
7C08
4008
ENDCHAR
STARTCHAR 53E4
ENCODING 21476
SWIDTH 1020 0
DWIDTH 17 0
BBX 16 17 0 -2
BITMAP
0380
0180
0180
0180
81FF
7F80
0180
0180
0180
31FC
1E08
1008
1008
1008
11F8
1E08
1008
ENDCHAR
STARTCHAR 53E5
ENCODING 21477
SWIDTH 1020 0
DWIDTH 17 0
BBX 16 17 0 -2
BITMAP
0800
0800
0800
083F
1FC2
1002
2002
5BE2
8CC2
08C2
08C2
0BC4
0CC4
0804
0028
0018
0010
ENDCHAR
STARTCHAR 53E8
ENCODING 21480
SWIDTH 1020 0
DWIDTH 17 0
BBX 16 16 0 -2
BITMAP
9E1F
9E1F
E9E2
8822
8822
88C2
88C2
88C2
B8C2
C982
8184
0204
0204
0428
0818
3010
ENDCHAR
STARTCHAR 53E9
ENCODING 21481
SWIDTH 1020 0
DWIDTH 17 0
BBX 16 16 0 -2
BITMAP
01CF
01CF
DEF2
64C2
44C2
44C2
44C2
44C2
44C2
5CDA
64C6
40C4
00C0
00C0
00C0
00C0
ENDCHAR
STARTCHAR 53EA
ENCODING 21482
SWIDTH 1020 0
DWIDTH 17 0
BBX 16 15 0 -1
BITMAP
18FC
18FC
0F88
0808
0808
0808
0808
08F8
0F88
0830
0408
0804
1002
2001
C001
ENDCHAR
STARTCHAR 53EB
ENCODING 21483
SWIDTH 1020 0
DWIDTH 17 0
BBX 16 17 0 -2
BITMAP
000C
01C4
01C4
DCC4
68C4
48C4
48C4
48C4
48C4
48C7
58CC
68F4
41C4
0604
0004
0004
0004
ENDCHAR
STARTCHAR 53EC
ENCODING 21484
SWIDTH 1020 0
DWIDTH 17 0
BBX 16 16 0 -2
BITMAP
80FF
80FF
7F82
0202
0402
0414
180C
E008
10FC
1F88
1008
1008
1008
10F8
1F88
1008
ENDCHAR
STARTCHAR 53ED
ENCODING 21485
SWIDTH 1020 0
DWIDTH 17 0
BBX 16 17 0 -2
BITMAP
0010
03B8
03B8
D990
6990
4988
4988
4988
4984
5A04
6A02
4202
0402
0401
0801
1001
2001
ENDCHAR
STARTCHAR 53EE
ENCODING 21486
SWIDTH 1020 0
DWIDTH 17 0
BBX 16 16 0 -2
BITMAP
041F
041F
9BF0
E810
8810
8810
8810
8810
8810
9810
E810
8010
0010
00D0
0030
0020
ENDCHAR
STARTCHAR 53EF
ENCODING 21487
SWIDTH 1020 0
DWIDTH 17 0
BBX 16 16 0 -2
BITMAP
81FF
81FF
7E08
0008
0008
37C8
1988
1188
1188
1788
1988
1188
0008
0028
0018
0010
ENDCHAR
STARTCHAR 53F0
ENCODING 21488
SWIDTH 1020 0
DWIDTH 17 0
BBX 16 17 0 -2
BITMAP
0200
0200
0200
0410
0408
081C
09E2
1E01
E001
18FC
0F88
0808
0808
0808
08F8
0F88
0808
ENDCHAR
STARTCHAR 53F1
ENCODING 21489
SWIDTH 1020 0
DWIDTH 17 0
BBX 16 17 0 -2
BITMAP
01C0
00C0
00C0
00C0
DCC3
68C4
48D8
48E0
49C0
4AC0
5CC0
68C0
40C0
00C2
00C2
0022
001F
ENDCHAR
STARTCHAR 53F2
ENCODING 21490
SWIDTH 1020 0
DWIDTH 17 0
BBX 16 17 0 -2
BITMAP
0380
0180
0180
61FE
3F84
2184
2184
21FC
3F84
2180
0D80
02C0
0230
0408
0804
3002
C001
ENDCHAR
STARTCHAR 53F3
ENCODING 21491
SWIDTH 1020 0
DWIDTH 17 0
BBX 16 17 0 -2
BITMAP
0600
0200
0200
0200
82FF
7F80
0400
0400
0800
08FC
1F88
2808
4808
8808
08F8
0F88
0808
ENDCHAR
STARTCHAR 53F6
ENCODING 21494
SWIDTH 1020 0
DWIDTH 17 0
BBX 16 17 0 -2
BITMAP
0030
0010
0010
0010
DC10
6810
4C1F
4BF0
4810
4810
5810
6810
4810
0010
0010
0010
0010
ENDCHAR
STARTCHAR 53F7
ENCODING 21495
SWIDTH 1020 0
DWIDTH 17 0
BBX 16 16 0 -2
BITMAP
18F8
18F8
0F90
0810
08F0
0F90
0800
83FF
7C00
04FC
0F88
0808
0010
0190
00E0
00C0
ENDCHAR
STARTCHAR 53F8
ENCODING 21496
SWIDTH 1020 0
DWIDTH 17 0
BBX 16 16 0 -2
BITMAP
81FF
81FF
7E02
0002
43F2
3C02
0002
1BE2
0CC2
08C2
08C2
0BC2
0CC2
000A
0006
0004
ENDCHAR
STARTCHAR 53FA
ENCODING 21498
SWIDTH 1020 0
DWIDTH 17 0
BBX 16 17 0 -2
BITMAP
0020
01F0
01F0
9C20
E820
8820
8820
8820
88D0
98C8
E8C8
8184
0184
0202
0402
0801
3001
ENDCHAR
STARTCHAR 5401
ENCODING 21505
SWIDTH 1020 0
DWIDTH 17 0
BBX 16 16 0 -2
BITMAP
020E
020E
9DF0
E810
8810
8810
8C1F
8BF0
8810
B810
C810
8010
0010
00D0
0030
0020
ENDCHAR
STARTCHAR 5403
ENCODING 21507
SWIDTH 1020 0
DWIDTH 17 0
BBX 16 17 0 -2
BITMAP
0180
0180
0180
B980
D21F
93E0
9400
9800
9238
B1D0
D020
81C0
0200
0402
0402
0202
01FF
ENDCHAR
STARTCHAR 5404
ENCODING 21508
SWIDTH 1020 0
DWIDTH 17 0
BBX 16 17 0 -2
BITMAP
0200
0200
0200
04F8
0790
0810
1620
61C0
01B0
020C
0C02
31F9
CE10
0810
09F0
0E10
0810
ENDCHAR
STARTCHAR 5408
ENCODING 21512
SWIDTH 1020 0
DWIDTH 17 0
BBX 16 17 0 -2
BITMAP
0180
0180
0180
02E0
0210
0408
0804
18FA
2781
C000
18FC
0F88
0808
0808
08F8
0F88
0808
ENDCHAR
STARTCHAR 5409
ENCODING 21513
SWIDTH 1020 0
DWIDTH 17 0
BBX 16 17 0 -2
BITMAP
0380
0180
0180
0180
81FF
7F80
0180
41FE
3F80
0000
18FC
0F88
0808
0808
08F8
0F88
0808
ENDCHAR
STARTCHAR 540A
ENCODING 21514
SWIDTH 1020 0
DWIDTH 17 0
BBX 14 16 1 -2
BITMAP
33F0
33F0
1C20
1020
1020
13E0
1F20
1300
C3FC
7F08
4308
4308
4328
4318
4310
0300
ENDCHAR
STARTCHAR 540B
ENCODING 21515
SWIDTH 1020 0
DWIDTH 17 0
BBX 16 17 0 -2
BITMAP
000C
0004
0004
0004
DC04
6A0F
49F4
4A04
4984
48C4
58C4
6804
4004
0004
0014
000C
0008
ENDCHAR
STARTCHAR 540C
ENCODING 21516
SWIDTH 1020 0
DWIDTH 17 0
BBX 15 16 1 -2
BITMAP
C1FE
C1FE
7F04
4004
51F4
4F04
4004
59F4
4F24
4824
49E4
4F24
4804
4014
400C
4008
ENDCHAR
STARTCHAR 540D
ENCODING 21517
SWIDTH 1020 0
DWIDTH 17 0
BBX 15 17 0 -2
BITMAP
0180
0180
0180
023C
07C8
0810
1C10
63A0
00C0
0180
023E
0FC4
3404
C404
043C
07C4
0404
ENDCHAR
STARTCHAR 540E
ENCODING 21518
SWIDTH 1020 0
DWIDTH 17 0
BBX 16 17 0 -2
BITMAP
000C
00F0
00F0
6380
3C00
2000
20FF
3F80
2000
2CFE
2784
2404
2404
4404
44FC
8784
0404
ENDCHAR
STARTCHAR 540F
ENCODING 21519
SWIDTH 1020 0
DWIDTH 17 0
BBX 16 17 0 -2
BITMAP
0380
0180
0180
81FF
7F80
0180
31FC
1F88
1188
11F8
1F88
0980
07C0
0230
040C
1802
E001
ENDCHAR
STARTCHAR 5410
ENCODING 21520
SWIDTH 1020 0
DWIDTH 17 0
BBX 16 16 0 -1
BITMAP
00E0
0020
0020
0020
DC20
6820
4C3E
4BE0
4820
4820
4820
5820
6820
4020
083F
07C0
ENDCHAR
STARTCHAR 5411
ENCODING 21521
SWIDTH 1020 0
DWIDTH 17 0
BBX 16 17 0 -2
BITMAP
0180
0180
0180
0200
C4FF
7F82
4002
4CF2
47A2
4422
4422
44E2
47A2
4402
400A
4006
4004
ENDCHAR
STARTCHAR 541B
ENCODING 21531
SWIDTH 1020 0
DWIDTH 17 0
BBX 16 16 0 -2
BITMAP
21F8
21F8
1E10
0210
83FF
7E10
0210
23F0
1E00
04FC
0F88
3808
C808
09F8
0E08
0808
ENDCHAR
STARTCHAR 541D
ENCODING 21533
SWIDTH 1020 0
DWIDTH 17 0
BBX 16 17 0 -2
BITMAP
0380
0180
0180
81FF
7E10
0420
02C0
01A0
0218
0C06
30F9
CF88
0808
0808
08F8
0F88
0808
ENDCHAR
STARTCHAR 541F
ENCODING 21535
SWIDTH 1020 0
DWIDTH 17 0
BBX 16 17 0 -2
BITMAP
0010
0028
0028
DC24
68C2
499D
4AE1
4C00
4A1E
49E2
5804
6804
4008
0008
0010
0010
0020
ENDCHAR
STARTCHAR 5420
ENCODING 21536
SWIDTH 1020 0
DWIDTH 17 0
BBX 16 17 0 -2
BITMAP
00E8
0024
0024
DC22
6822
4820
4C3F
4BE0
4820
48D0
58C8
68C4
4184
0182
0202
0401
1801
ENDCHAR
STARTCHAR 5426
ENCODING 21542
SWIDTH 1020 0
DWIDTH 17 0
BBX 16 16 0 -2
BITMAP
81FF
81FF
7EC0
01A0
0398
0584
0982
3181
D1FC
1F88
1008
1008
1008
11F8
1E08
1008
ENDCHAR
STARTCHAR 5429
ENCODING 21545
SWIDTH 1020 0
DWIDTH 17 0
BBX 16 17 0 -2
BITMAP
0010
03B8
03B8
B990
D188
9184
9202
9201
963D
B9C4
D0C4
80C4
0184
0184
0228
0418
1810
ENDCHAR
STARTCHAR 542B
ENCODING 21547
SWIDTH 1020 0
DWIDTH 17 0
BBX 16 17 0 -2
BITMAP
0180
01C0
01C0
0230
0408
0CE4
1382
30F9
CF90
0020
00C0
19FC
0E08
0808
09F8
0E08
0808
ENDCHAR
STARTCHAR 542C
ENCODING 21548
SWIDTH 1020 0
DWIDTH 17 0
BBX 16 17 0 -2
BITMAP
0006
0398
0398
DDE0
6980
4980
4987
49F8
4988
5988
6988
4188
0208
0208
0408
0808
0008
ENDCHAR
STARTCHAR 542D
ENCODING 21549
SWIDTH 1020 0
DWIDTH 17 0
BBX 16 17 0 -2
BITMAP
00E0
0020
0020
B020
D83F
97C0
9000
93B8
91D0
B190
D190
8190
0210
0212
0412
0812
300F
ENDCHAR
STARTCHAR 542E
ENCODING 21550
SWIDTH 1020 0
DWIDTH 17 0
BBX 16 17 0 -2
BITMAP
00C0
00C0
00C0
B8C8
D184
918C
91B2
97D2
9190
B190
D190
8190
0210
0212
0412
0812
300F
ENDCHAR
STARTCHAR 5436
ENCODING 21558
SWIDTH 1020 0
DWIDTH 17 0
BBX 16 17 0 -2
BITMAP
0020
01F0
01F0
B820
D43F
97E2
9422
94D2
94CA
94CA
B58A
D582
8602
0402
040A
0406
0404
ENDCHAR
STARTCHAR 5438
ENCODING 21560
SWIDTH 1020 0
DWIDTH 17 0
BBX 16 16 0 -2
BITMAP
043C
043C
03C4
D8C4
68C8
48C8
48CF
48E9
4992
598A
6A04
4204
040A
0812
30E1
0781
ENDCHAR
STARTCHAR 5439
ENCODING 21561
SWIDTH 1020 0
DWIDTH 17 0
BBX 16 17 0 -2
BITMAP
00C0
00C0
00C0
00C0
DD8F
69F2
4A04
4C30
4810
4810
4810
5828
6824
40C2
00C2
0381
0C01
ENDCHAR
STARTCHAR 543B
ENCODING 21563
SWIDTH 1020 0
DWIDTH 17 0
BBX 16 17 0 -2
BITMAP
00C0
00C0
00C0
00C0
DD8F
69F9
4A29
4C29
48C9
48C9
5991
6A12
4422
00C2
0194
060C
0008
ENDCHAR
STARTCHAR 543C
ENCODING 21564
SWIDTH 1020 0
DWIDTH 17 0
BBX 16 17 0 -2
BITMAP
0018
04E8
04E8
BBA8
D0C8
9388
9188
9188
91E8
9388
BD88
D188
8188
018A
058A
038A
0207
ENDCHAR
STARTCHAR 543D
ENCODING 21565
SWIDTH 1020 0
DWIDTH 17 0
BBX 16 17 0 -2
BITMAP
00E0
0020
0020
BA20
D220
923E
97E0
9420
9020
B83F
D7E0
8020
0020
0020
0020
0020
0020
ENDCHAR
STARTCHAR 543E
ENCODING 21566
SWIDTH 1020 0
DWIDTH 17 0
BBX 16 16 0 -2
BITMAP
21FC
21FC
1E00
0200
23F8
1E10
0410
85FF
7E00
0000
31FC
1E08
1008
11F8
1E08
1008
ENDCHAR
STARTCHAR 5440
ENCODING 21568
SWIDTH 1020 0
DWIDTH 17 0
BBX 16 16 0 -2
BITMAP
021E
021E
B9E8
D188
9188
9188
9A1F
97E8
B028
D0C8
8188
0208
0408
0828
3018
0010
ENDCHAR
STARTCHAR 5442
ENCODING 21570
SWIDTH 1020 0
DWIDTH 17 0
BBX 13 16 2 -2
BITMAP
63F0
63F0
3E20
2020
2020
23E0
3E20
2600
0600
CBF8
7E10
4010
4010
43F0
7E10
4010
ENDCHAR
STARTCHAR 5446
ENCODING 21574
SWIDTH 1020 0
DWIDTH 17 0
BBX 16 16 0 -2
BITMAP
18F8
18F8
0F90
0810
0810
09F0
0F90
0980
81FF
7FC0
03A0
0598
0984
3182
C181
0180
ENDCHAR
STARTCHAR 5448
ENCODING 21576
SWIDTH 1020 0
DWIDTH 17 0
BBX 16 15 0 -1
BITMAP
18FC
18FC
0F88
0808
0808
08F8
0F80
40FE
3F80
0180
21FC
1F80
0180
81FF
7E00
ENDCHAR
STARTCHAR 5449
ENCODING 21577
SWIDTH 1020 0
DWIDTH 17 0
BBX 16 16 0 -2
BITMAP
063C
063C
33C8
1208
1238
13C8
1200
10FC
1F88
1008
81FF
7E00
0018
0404
1802
6001
ENDCHAR
STARTCHAR 544A
ENCODING 21578
SWIDTH 1020 0
DWIDTH 17 0
BBX 16 17 0 -2
BITMAP
0380
1180
1180
1180
11FC
3F80
4180
81FF
7F80
0000
18FC
0F88
0808
0808
08F8
0F88
0808
ENDCHAR
STARTCHAR 544E
ENCODING 21582
SWIDTH 1020 0
DWIDTH 17 0
BBX 16 16 0 -2
BITMAP
061E
061E
BBE4
D204
9204
921C
93E4
9220
B210
D208
8208
0404
0402
0402
0801
1001
ENDCHAR
STARTCHAR 5451
ENCODING 21585
SWIDTH 1020 0
DWIDTH 17 0
BBX 16 17 0 -2
BITMAP
001C
01E0
01E0
3F80
0180
82FF
7FC0
0430
0808
1004
29FA
CE11
0810
0810
09F0
0E10
0810
ENDCHAR
STARTCHAR 545F
ENCODING 21599
SWIDTH 1020 0
DWIDTH 17 0
BBX 16 17 0 -2
BITMAP
00E0
0020
0020
B820
D43F
93E0
90C0
90D8
9588
9390
B0D0
D028
8024
00C2
00DE
01E1
0E01
ENDCHAR
STARTCHAR 5468
ENCODING 21608
SWIDTH 1020 0
DWIDTH 17 0
BBX 16 16 0 -2
BITMAP
60FF
60FF
3F82
2182
29F2
2782
2182
31FA
2E02
25F2
2622
2422
25E2
462A
4006
8004
ENDCHAR
STARTCHAR 546A
ENCODING 21610
SWIDTH 1020 0
DWIDTH 17 0
BBX 16 16 0 -2
BITMAP
061E
061E
DBE4
6A04
4A04
4A04
4A1C
4BF4
5AD0
68D0
40D0
0190
0192
0212
0412
180F
ENDCHAR
STARTCHAR 5470
ENCODING 21616
SWIDTH 1020 0
DWIDTH 17 0
BBX 16 17 0 -2
BITMAP
18E0
6822
6822
2BAC
2C30
2820
2BA2
2C22
301F
C000
18F8
0F90
0810
0810
09F0
0E10
0810
ENDCHAR
STARTCHAR 5471
ENCODING 21617
SWIDTH 1020 0
DWIDTH 17 0
BBX 16 17 0 -2
BITMAP
000E
0630
0630
BBC8
D228
9224
9224
9224
9222
9222
B232
D22A
8429
0439
08E5
0B85
1001
ENDCHAR
STARTCHAR 5473
ENCODING 21619
SWIDTH 1020 0
DWIDTH 17 0
BBX 16 17 0 -2
BITMAP
00E0
0020
0020
0020
DC3E
6BE0
4820
4820
4C3F
4BF0
58E8
69A4
49A4
0222
0421
1821
0020
ENDCHAR
STARTCHAR 5475
ENCODING 21621
SWIDTH 1020 0
DWIDTH 17 0
BBX 16 16 0 -2
BITMAP
081F
081F
B7E4
D004
9004
96F4
93A4
9224
9224
B2E4
D3A4
8204
0004
0014
000C
0008
ENDCHAR
STARTCHAR 5476
ENCODING 21622
SWIDTH 1020 0
DWIDTH 17 0
BBX 16 17 0 -2
BITMAP
0600
02C7
02C7
B23A
DBC2
96E2
92D2
92D2
94CC
BD84
D584
82C4
02CA
04CA
0411
0821
10C1
ENDCHAR
STARTCHAR 5477
ENCODING 21623
SWIDTH 1020 0
DWIDTH 17 0
BBX 16 16 0 -2
BITMAP
060F
060F
DBF1
6A11
4A1F
4BF1
4A11
4A11
5A1F
6BF1
4211
0010
0010
0010
0010
0010
ENDCHAR
STARTCHAR 547B
ENCODING 21627
SWIDTH 1020 0
DWIDTH 17 0
BBX 16 17 0 -2
BITMAP
0030
0010
0010
061F
DBF1
6A11
4A1F
4BF1
4A11
4A11
5A1F
6BF1
4210
0010
0010
0010
0010
ENDCHAR
STARTCHAR 547C
ENCODING 21628
SWIDTH 1020 0
DWIDTH 17 0
BBX 16 17 0 -2
BITMAP
0006
0018
0018
03E2
DC22
6A14
4994
48D4
4CDF
4BF0
5810
6810
4010
0010
01A0
00E0
00C0
ENDCHAR
STARTCHAR 547D
ENCODING 21629
SWIDTH 1020 0
DWIDTH 17 0
BBX 16 17 0 -2
BITMAP
0180
02C0
02C0
0230
0408
08F4
1782
2001
6DDE
B4E4
24C4
24C4
2CD4
34CC
20C8
00C0
00C0
ENDCHAR
STARTCHAR 5480
ENCODING 21632
SWIDTH 1020 0
DWIDTH 17 0
BBX 16 15 0 -1
BITMAP
039E
039E
DDE4
6984
499C
49E4
4984
4984
599C
69E4
4184
0184
0184
11BF
0FC0
ENDCHAR
STARTCHAR 5484
ENCODING 21636
SWIDTH 1020 0
DWIDTH 17 0
BBX 16 17 0 -2
BITMAP
0030
0010
0010
DB96
6992
4992
499E
49F2
4992
5810
6E13
4211
0211
0211
021F
03E1
0201
ENDCHAR
STARTCHAR 5486
ENCODING 21638
SWIDTH 1020 0
DWIDTH 17 0
BBX 16 17 0 -2
BITMAP
0180
0180
0180
B99F
D3E2
9202
9402
9AFA
9392
9212
B2F4
D38C
8208
0202
0202
0202
01FF
ENDCHAR
STARTCHAR 548B
ENCODING 21643
SWIDTH 1020 0
DWIDTH 17 0
BBX 16 17 0 -2
BITMAP
00C0
00C0
00C0
00C0
DD9F
69E0
4A20
4C2E
4830
4820
4820
582F
6830
4020
0020
0020
0020
ENDCHAR
STARTCHAR 548C
ENCODING 21644
SWIDTH 1020 0
DWIDTH 17 0
BBX 16 17 0 -2
BITMAP
0380
0C00
0C00
7800
08EF
8FB2
7822
0C22
1A22
29A2
29A2
4822
882E
0832
0822
0800
0800
ENDCHAR
STARTCHAR 548E
ENCODING 21646
SWIDTH 1020 0
DWIDTH 17 0
BBX 16 17 0 -2
BITMAP
0818
0B88
0B88
1D88
1190
2A18
4424
86C2
09C0
303F
C000
18F8
0F90
0810
08F0
0F90
0810
ENDCHAR
STARTCHAR 548F
ENCODING 21647
SWIDTH 1020 0
DWIDTH 17 0
BBX 16 17 0 -2
BITMAP
01E0
0010
0010
B800
D4F0
93A2
9022
9BA4
95B4
B1A8
D224
8222
0422
0821
11A1
20E0
00C0
ENDCHAR
STARTCHAR 5490
ENCODING 21648
SWIDTH 1020 0
DWIDTH 17 0
BBX 16 17 0 -2
BITMAP
018C
0184
0184
B984
D184
92CF
9234
96C4
9AC4
B224
D224
8204
0204
0204
0214
020C
0208
ENDCHAR
STARTCHAR 5492
ENCODING 21650
SWIDTH 1020 0
DWIDTH 17 0
BBX 16 16 0 -2
BITMAP
DEEF
DEEF
6432
4422
5C2E
6432
4000
0DF0
0620
0420
0420
0420
0822
0822
3022
C01F
ENDCHAR
STARTCHAR 54A2
ENCODING 21666
SWIDTH 1020 0
DWIDTH 17 0
BBX 16 16 0 -2
BITMAP
6EEF
6EEF
3232
2E2E
3232
2000
11F8
0E00
81FF
7E00
04FC
0F88
0808
00D0
0030
0020
ENDCHAR
STARTCHAR 54A4
ENCODING 21668
SWIDTH 1020 0
DWIDTH 17 0
BBX 16 17 0 -2
BITMAP
00E0
0020
0020
B43F
D7E2
9404
981C
90E0
97C0
90C0
B8FE
D7C0
80C0
00C2
00C2
00C2
003F
ENDCHAR
STARTCHAR 54A5
ENCODING 21669
SWIDTH 1020 0
DWIDTH 17 0
BBX 16 15 0 -1
BITMAP
041F
041F
BBE0
D0C8
90C4
919C
97E2
9020
B020
D43E
83E0
0020
0020
103F
0FC0
ENDCHAR
STARTCHAR 54A8
ENCODING 21672
SWIDTH 1020 0
DWIDTH 17 0
BBX 16 17 0 -2
BITMAP
0180
0180
0180
9A1F
63E2
04C4
0CE0
31A0
C218
0C04
30FB
1F88
1008
1008
11F8
1E08
1008
ENDCHAR
STARTCHAR 54AB
ENCODING 21675
SWIDTH 1020 0
DWIDTH 17 0
BBX 16 16 0 -2
BITMAP
6ECE
6ECE
32F2
22C2
22C2
22CE
2EF2
3AC0
2824
2822
24C1
2581
4200
41C0
8038
0007
ENDCHAR
STARTCHAR 54AC
ENCODING 21676
SWIDTH 1020 0
DWIDTH 17 0
BBX 16 17 0 -2
BITMAP
00E0
0020
0020
B83E
D7C0
918C
9182
920A
94C8
B028
D010
8028
0024
00C4
0182
0201
0C01
ENDCHAR
STARTCHAR 54AF
ENCODING 21679
SWIDTH 1020 0
DWIDTH 17 0
BBX 16 17 0 -2
BITMAP
00C0
00C0
00C0
B8DE
D1E4
9188
92D0
9C38
90C4
B182
D63D
8BC4
0204
0204
023C
03C4
0204
ENDCHAR
STARTCHAR 54B2
ENCODING 21682
SWIDTH 1020 0
DWIDTH 17 0
BBX 16 17 0 -2
BITMAP
0188
0188
0188
D8D0
6CDE
4BE0
4820
4820
4C3F
4BE0
5830
6828
40C4
00C4
0182
0201
0C01
ENDCHAR
ENDFONT
